G04 #@! TF.GenerationSoftware,KiCad,Pcbnew,(6.0.2)*
G04 #@! TF.CreationDate,2022-02-22T23:29:17+09:00*
G04 #@! TF.ProjectId,ACBoard,4143426f-6172-4642-9e6b-696361645f70,rev?*
G04 #@! TF.SameCoordinates,Original*
G04 #@! TF.FileFunction,Legend,Bot*
G04 #@! TF.FilePolarity,Positive*
%FSLAX46Y46*%
G04 Gerber Fmt 4.6, Leading zero omitted, Abs format (unit mm)*
G04 Created by KiCad (PCBNEW (6.0.2)) date 2022-02-22 23:29:17*
%MOMM*%
%LPD*%
G01*
G04 APERTURE LIST*
G04 Aperture macros list*
%AMRoundRect*
0 Rectangle with rounded corners*
0 $1 Rounding radius*
0 $2 $3 $4 $5 $6 $7 $8 $9 X,Y pos of 4 corners*
0 Add a 4 corners polygon primitive as box body*
4,1,4,$2,$3,$4,$5,$6,$7,$8,$9,$2,$3,0*
0 Add four circle primitives for the rounded corners*
1,1,$1+$1,$2,$3*
1,1,$1+$1,$4,$5*
1,1,$1+$1,$6,$7*
1,1,$1+$1,$8,$9*
0 Add four rect primitives between the rounded corners*
20,1,$1+$1,$2,$3,$4,$5,0*
20,1,$1+$1,$4,$5,$6,$7,0*
20,1,$1+$1,$6,$7,$8,$9,0*
20,1,$1+$1,$8,$9,$2,$3,0*%
G04 Aperture macros list end*
%ADD10C,0.150000*%
%ADD11C,0.200000*%
%ADD12C,0.127000*%
%ADD13C,0.120000*%
%ADD14C,0.100000*%
%ADD15C,4.000000*%
%ADD16RoundRect,0.042000X-0.258000X0.943000X-0.258000X-0.943000X0.258000X-0.943000X0.258000X0.943000X0*%
%ADD17R,1.600000X1.600000*%
%ADD18O,1.600000X1.600000*%
%ADD19R,2.250000X2.250000*%
%ADD20C,2.250000*%
%ADD21C,1.600000*%
%ADD22RoundRect,0.237500X-0.237500X0.250000X-0.237500X-0.250000X0.237500X-0.250000X0.237500X0.250000X0*%
%ADD23RoundRect,0.237500X0.237500X-0.250000X0.237500X0.250000X-0.237500X0.250000X-0.237500X-0.250000X0*%
%ADD24RoundRect,0.237500X0.250000X0.237500X-0.250000X0.237500X-0.250000X-0.237500X0.250000X-0.237500X0*%
%ADD25O,1.000000X5.000000*%
%ADD26C,2.000000*%
%ADD27R,1.700000X1.700000*%
%ADD28O,1.700000X1.700000*%
%ADD29R,2.800000X2.800000*%
%ADD30O,2.800000X2.800000*%
%ADD31RoundRect,0.100000X0.100000X-0.217500X0.100000X0.217500X-0.100000X0.217500X-0.100000X-0.217500X0*%
%ADD32O,3.500000X3.500000*%
%ADD33R,2.000000X1.905000*%
%ADD34O,2.000000X1.905000*%
%ADD35RoundRect,0.250000X-0.412500X-0.650000X0.412500X-0.650000X0.412500X0.650000X-0.412500X0.650000X0*%
%ADD36RoundRect,0.250000X-0.475000X0.337500X-0.475000X-0.337500X0.475000X-0.337500X0.475000X0.337500X0*%
G04 APERTURE END LIST*
D10*
X195305380Y-35683095D02*
X196114904Y-35683095D01*
X196210142Y-35730714D01*
X196257761Y-35778333D01*
X196305380Y-35873571D01*
X196305380Y-36064047D01*
X196257761Y-36159285D01*
X196210142Y-36206904D01*
X196114904Y-36254523D01*
X195305380Y-36254523D01*
X195305380Y-36635476D02*
X195305380Y-37254523D01*
X195686333Y-36921190D01*
X195686333Y-37064047D01*
X195733952Y-37159285D01*
X195781571Y-37206904D01*
X195876809Y-37254523D01*
X196114904Y-37254523D01*
X196210142Y-37206904D01*
X196257761Y-37159285D01*
X196305380Y-37064047D01*
X196305380Y-36778333D01*
X196257761Y-36683095D01*
X196210142Y-36635476D01*
X204922380Y-26860833D02*
X204446190Y-26527500D01*
X204922380Y-26289404D02*
X203922380Y-26289404D01*
X203922380Y-26670357D01*
X203970000Y-26765595D01*
X204017619Y-26813214D01*
X204112857Y-26860833D01*
X204255714Y-26860833D01*
X204350952Y-26813214D01*
X204398571Y-26765595D01*
X204446190Y-26670357D01*
X204446190Y-26289404D01*
X203922380Y-27194166D02*
X203922380Y-27860833D01*
X204922380Y-27432261D01*
X200002380Y-26860833D02*
X199526190Y-26527500D01*
X200002380Y-26289404D02*
X199002380Y-26289404D01*
X199002380Y-26670357D01*
X199050000Y-26765595D01*
X199097619Y-26813214D01*
X199192857Y-26860833D01*
X199335714Y-26860833D01*
X199430952Y-26813214D01*
X199478571Y-26765595D01*
X199526190Y-26670357D01*
X199526190Y-26289404D01*
X199002380Y-27717976D02*
X199002380Y-27527500D01*
X199050000Y-27432261D01*
X199097619Y-27384642D01*
X199240476Y-27289404D01*
X199430952Y-27241785D01*
X199811904Y-27241785D01*
X199907142Y-27289404D01*
X199954761Y-27337023D01*
X200002380Y-27432261D01*
X200002380Y-27622738D01*
X199954761Y-27717976D01*
X199907142Y-27765595D01*
X199811904Y-27813214D01*
X199573809Y-27813214D01*
X199478571Y-27765595D01*
X199430952Y-27717976D01*
X199383333Y-27622738D01*
X199383333Y-27432261D01*
X199430952Y-27337023D01*
X199478571Y-27289404D01*
X199573809Y-27241785D01*
X180632380Y-35393333D02*
X180156190Y-35060000D01*
X180632380Y-34821904D02*
X179632380Y-34821904D01*
X179632380Y-35202857D01*
X179680000Y-35298095D01*
X179727619Y-35345714D01*
X179822857Y-35393333D01*
X179965714Y-35393333D01*
X180060952Y-35345714D01*
X180108571Y-35298095D01*
X180156190Y-35202857D01*
X180156190Y-34821904D01*
X179632380Y-36298095D02*
X179632380Y-35821904D01*
X180108571Y-35774285D01*
X180060952Y-35821904D01*
X180013333Y-35917142D01*
X180013333Y-36155238D01*
X180060952Y-36250476D01*
X180108571Y-36298095D01*
X180203809Y-36345714D01*
X180441904Y-36345714D01*
X180537142Y-36298095D01*
X180584761Y-36250476D01*
X180632380Y-36155238D01*
X180632380Y-35917142D01*
X180584761Y-35821904D01*
X180537142Y-35774285D01*
X172886666Y-62522380D02*
X173220000Y-62046190D01*
X173458095Y-62522380D02*
X173458095Y-61522380D01*
X173077142Y-61522380D01*
X172981904Y-61570000D01*
X172934285Y-61617619D01*
X172886666Y-61712857D01*
X172886666Y-61855714D01*
X172934285Y-61950952D01*
X172981904Y-61998571D01*
X173077142Y-62046190D01*
X173458095Y-62046190D01*
X172029523Y-61855714D02*
X172029523Y-62522380D01*
X172267619Y-61474761D02*
X172505714Y-62189047D01*
X171886666Y-62189047D01*
X172886666Y-52362380D02*
X173220000Y-51886190D01*
X173458095Y-52362380D02*
X173458095Y-51362380D01*
X173077142Y-51362380D01*
X172981904Y-51410000D01*
X172934285Y-51457619D01*
X172886666Y-51552857D01*
X172886666Y-51695714D01*
X172934285Y-51790952D01*
X172981904Y-51838571D01*
X173077142Y-51886190D01*
X173458095Y-51886190D01*
X172553333Y-51362380D02*
X171934285Y-51362380D01*
X172267619Y-51743333D01*
X172124761Y-51743333D01*
X172029523Y-51790952D01*
X171981904Y-51838571D01*
X171934285Y-51933809D01*
X171934285Y-52171904D01*
X171981904Y-52267142D01*
X172029523Y-52314761D01*
X172124761Y-52362380D01*
X172410476Y-52362380D01*
X172505714Y-52314761D01*
X172553333Y-52267142D01*
X172886666Y-57442380D02*
X173220000Y-56966190D01*
X173458095Y-57442380D02*
X173458095Y-56442380D01*
X173077142Y-56442380D01*
X172981904Y-56490000D01*
X172934285Y-56537619D01*
X172886666Y-56632857D01*
X172886666Y-56775714D01*
X172934285Y-56870952D01*
X172981904Y-56918571D01*
X173077142Y-56966190D01*
X173458095Y-56966190D01*
X172505714Y-56537619D02*
X172458095Y-56490000D01*
X172362857Y-56442380D01*
X172124761Y-56442380D01*
X172029523Y-56490000D01*
X171981904Y-56537619D01*
X171934285Y-56632857D01*
X171934285Y-56728095D01*
X171981904Y-56870952D01*
X172553333Y-57442380D01*
X171934285Y-57442380D01*
X172886666Y-48552380D02*
X173220000Y-48076190D01*
X173458095Y-48552380D02*
X173458095Y-47552380D01*
X173077142Y-47552380D01*
X172981904Y-47600000D01*
X172934285Y-47647619D01*
X172886666Y-47742857D01*
X172886666Y-47885714D01*
X172934285Y-47980952D01*
X172981904Y-48028571D01*
X173077142Y-48076190D01*
X173458095Y-48076190D01*
X171934285Y-48552380D02*
X172505714Y-48552380D01*
X172220000Y-48552380D02*
X172220000Y-47552380D01*
X172315238Y-47695238D01*
X172410476Y-47790476D01*
X172505714Y-47838095D01*
X189462380Y-34821904D02*
X188462380Y-34821904D01*
X188462380Y-35060000D01*
X188510000Y-35202857D01*
X188605238Y-35298095D01*
X188700476Y-35345714D01*
X188890952Y-35393333D01*
X189033809Y-35393333D01*
X189224285Y-35345714D01*
X189319523Y-35298095D01*
X189414761Y-35202857D01*
X189462380Y-35060000D01*
X189462380Y-34821904D01*
X188462380Y-35726666D02*
X188462380Y-36345714D01*
X188843333Y-36012380D01*
X188843333Y-36155238D01*
X188890952Y-36250476D01*
X188938571Y-36298095D01*
X189033809Y-36345714D01*
X189271904Y-36345714D01*
X189367142Y-36298095D01*
X189414761Y-36250476D01*
X189462380Y-36155238D01*
X189462380Y-35869523D01*
X189414761Y-35774285D01*
X189367142Y-35726666D01*
X199556666Y-46657142D02*
X199604285Y-46704761D01*
X199747142Y-46752380D01*
X199842380Y-46752380D01*
X199985238Y-46704761D01*
X200080476Y-46609523D01*
X200128095Y-46514285D01*
X200175714Y-46323809D01*
X200175714Y-46180952D01*
X200128095Y-45990476D01*
X200080476Y-45895238D01*
X199985238Y-45800000D01*
X199842380Y-45752380D01*
X199747142Y-45752380D01*
X199604285Y-45800000D01*
X199556666Y-45847619D01*
X199175714Y-45847619D02*
X199128095Y-45800000D01*
X199032857Y-45752380D01*
X198794761Y-45752380D01*
X198699523Y-45800000D01*
X198651904Y-45847619D01*
X198604285Y-45942857D01*
X198604285Y-46038095D01*
X198651904Y-46180952D01*
X199223333Y-46752380D01*
X198604285Y-46752380D01*
X203147142Y-31583333D02*
X203194761Y-31535714D01*
X203242380Y-31392857D01*
X203242380Y-31297619D01*
X203194761Y-31154761D01*
X203099523Y-31059523D01*
X203004285Y-31011904D01*
X202813809Y-30964285D01*
X202670952Y-30964285D01*
X202480476Y-31011904D01*
X202385238Y-31059523D01*
X202290000Y-31154761D01*
X202242380Y-31297619D01*
X202242380Y-31392857D01*
X202290000Y-31535714D01*
X202337619Y-31583333D01*
X203242380Y-32535714D02*
X203242380Y-31964285D01*
X203242380Y-32250000D02*
X202242380Y-32250000D01*
X202385238Y-32154761D01*
X202480476Y-32059523D01*
X202528095Y-31964285D01*
D11*
X197185000Y-32790000D02*
G75*
G03*
X197185000Y-32790000I-100000J0D01*
G01*
D12*
X196865000Y-34880000D02*
X196865000Y-38780000D01*
X201915000Y-34880000D02*
X201915000Y-38780000D01*
D13*
X203722500Y-26772776D02*
X203722500Y-27282224D01*
X202677500Y-26772776D02*
X202677500Y-27282224D01*
X197597500Y-27282224D02*
X197597500Y-26772776D01*
X198642500Y-27282224D02*
X198642500Y-26772776D01*
X181087500Y-35305276D02*
X181087500Y-35814724D01*
X182132500Y-35305276D02*
X182132500Y-35814724D01*
X172974724Y-62977500D02*
X172465276Y-62977500D01*
X172974724Y-64022500D02*
X172465276Y-64022500D01*
X172974724Y-52817500D02*
X172465276Y-52817500D01*
X172974724Y-53862500D02*
X172465276Y-53862500D01*
X172974724Y-57897500D02*
X172465276Y-57897500D01*
X172974724Y-58942500D02*
X172465276Y-58942500D01*
X172974724Y-49007500D02*
X172465276Y-49007500D01*
X172974724Y-50052500D02*
X172465276Y-50052500D01*
D14*
X188010000Y-36595000D02*
G75*
G03*
X188010000Y-36595000I-50000J0D01*
G01*
D13*
X198678748Y-45360000D02*
X200101252Y-45360000D01*
X198678748Y-43540000D02*
X200101252Y-43540000D01*
X205205000Y-31488748D02*
X205205000Y-32011252D01*
X203735000Y-31488748D02*
X203735000Y-32011252D01*
%LPC*%
D15*
X208915000Y-61595000D03*
X208915000Y-68580000D03*
X208915000Y-20320000D03*
X172085000Y-68580000D03*
X167005000Y-68580000D03*
D16*
X197485000Y-39300000D03*
X198755000Y-39300000D03*
X200025000Y-39300000D03*
X201295000Y-39300000D03*
X201295000Y-34360000D03*
X200025000Y-34360000D03*
X198755000Y-34360000D03*
X197485000Y-34360000D03*
D17*
X168920000Y-58435000D03*
D18*
X168920000Y-60975000D03*
X168920000Y-63515000D03*
X176540000Y-63515000D03*
X176540000Y-58435000D03*
D17*
X168920000Y-49545000D03*
D18*
X168920000Y-52085000D03*
X168920000Y-54625000D03*
X176540000Y-54625000D03*
X176540000Y-49545000D03*
D19*
X171300000Y-29260000D03*
D20*
X171300000Y-33060000D03*
X171300000Y-38060000D03*
X171300000Y-43060000D03*
X184300000Y-43060000D03*
X184300000Y-38060000D03*
X184300000Y-33060000D03*
X184300000Y-28060000D03*
D21*
X180710000Y-66635000D03*
X182510000Y-61635000D03*
X182510000Y-50205000D03*
X180710000Y-55205000D03*
D22*
X203200000Y-27940000D03*
X203200000Y-26115000D03*
D23*
X198120000Y-26115000D03*
X198120000Y-27940000D03*
D22*
X181610000Y-34647500D03*
X181610000Y-36472500D03*
D24*
X173632500Y-63500000D03*
X171807500Y-63500000D03*
X173632500Y-53340000D03*
X171807500Y-53340000D03*
X173632500Y-58420000D03*
X171807500Y-58420000D03*
X173632500Y-49530000D03*
X171807500Y-49530000D03*
D25*
X194310000Y-41910000D03*
X207010000Y-41910000D03*
X194310000Y-29210000D03*
X207010000Y-29210000D03*
D26*
X166910000Y-19050000D03*
X170910000Y-19050000D03*
D27*
X160015000Y-19055000D03*
D28*
X162555000Y-19055000D03*
X160015000Y-21595000D03*
X162555000Y-21595000D03*
X160015000Y-24135000D03*
X162555000Y-24135000D03*
X160015000Y-26675000D03*
X162555000Y-26675000D03*
X160015000Y-29215000D03*
X162555000Y-29215000D03*
X160015000Y-31755000D03*
X162555000Y-31755000D03*
X160015000Y-34295000D03*
X162555000Y-34295000D03*
X160015000Y-36835000D03*
X162555000Y-36835000D03*
X160015000Y-39375000D03*
X162555000Y-39375000D03*
X160015000Y-41915000D03*
X162555000Y-41915000D03*
X160015000Y-44455000D03*
X162555000Y-44455000D03*
X160015000Y-46995000D03*
X162555000Y-46995000D03*
X160015000Y-49535000D03*
X162555000Y-49535000D03*
X160015000Y-52075000D03*
X162555000Y-52075000D03*
X160015000Y-54615000D03*
X162555000Y-54615000D03*
X160015000Y-57155000D03*
X162555000Y-57155000D03*
X160015000Y-59695000D03*
X162555000Y-59695000D03*
X160015000Y-62235000D03*
X162555000Y-62235000D03*
X160015000Y-64775000D03*
X162555000Y-64775000D03*
X160015000Y-67315000D03*
X162555000Y-67315000D03*
D27*
X215920000Y-19080000D03*
D28*
X213380000Y-19080000D03*
X215920000Y-21620000D03*
X213380000Y-21620000D03*
X215920000Y-24160000D03*
X213380000Y-24160000D03*
X215920000Y-26700000D03*
X213380000Y-26700000D03*
X215920000Y-29240000D03*
X213380000Y-29240000D03*
X215920000Y-31780000D03*
X213380000Y-31780000D03*
X215920000Y-34320000D03*
X213380000Y-34320000D03*
X215920000Y-36860000D03*
X213380000Y-36860000D03*
X215920000Y-39400000D03*
X213380000Y-39400000D03*
X215920000Y-41940000D03*
X213380000Y-41940000D03*
X215920000Y-44480000D03*
X213380000Y-44480000D03*
X215920000Y-47020000D03*
X213380000Y-47020000D03*
X215920000Y-49560000D03*
X213380000Y-49560000D03*
X215920000Y-52100000D03*
X213380000Y-52100000D03*
X215920000Y-54640000D03*
X213380000Y-54640000D03*
X215920000Y-57180000D03*
X213380000Y-57180000D03*
X215920000Y-59720000D03*
X213380000Y-59720000D03*
X215920000Y-62260000D03*
X213380000Y-62260000D03*
X215920000Y-64800000D03*
X213380000Y-64800000D03*
X215920000Y-67340000D03*
X213380000Y-67340000D03*
D29*
X191770000Y-20320000D03*
D30*
X204470000Y-20320000D03*
D29*
X175260000Y-20320000D03*
D30*
X187960000Y-20320000D03*
D31*
X187960000Y-35967500D03*
X187960000Y-35152500D03*
D32*
X203645000Y-65405000D03*
D33*
X186985000Y-62865000D03*
D34*
X186985000Y-65405000D03*
X186985000Y-67945000D03*
D32*
X203645000Y-53975000D03*
D33*
X186985000Y-51435000D03*
D34*
X186985000Y-53975000D03*
X186985000Y-56515000D03*
D35*
X200952500Y-44450000D03*
X197827500Y-44450000D03*
D36*
X204470000Y-32787500D03*
X204470000Y-30712500D03*
M02*
