G04 #@! TF.GenerationSoftware,KiCad,Pcbnew,(6.0.2)*
G04 #@! TF.CreationDate,2022-02-22T23:29:17+09:00*
G04 #@! TF.ProjectId,ACBoard,4143426f-6172-4642-9e6b-696361645f70,rev?*
G04 #@! TF.SameCoordinates,Original*
G04 #@! TF.FileFunction,Copper,L1,Top*
G04 #@! TF.FilePolarity,Positive*
%FSLAX46Y46*%
G04 Gerber Fmt 4.6, Leading zero omitted, Abs format (unit mm)*
G04 Created by KiCad (PCBNEW (6.0.2)) date 2022-02-22 23:29:17*
%MOMM*%
%LPD*%
G01*
G04 APERTURE LIST*
G04 #@! TA.AperFunction,WasherPad*
%ADD10C,4.000000*%
G04 #@! TD*
G04 #@! TA.AperFunction,SMDPad,CuDef*
%ADD11R,13.000000X9.000000*%
G04 #@! TD*
G04 #@! TA.AperFunction,ComponentPad*
%ADD12R,1.600000X1.600000*%
G04 #@! TD*
G04 #@! TA.AperFunction,ComponentPad*
%ADD13O,1.600000X1.600000*%
G04 #@! TD*
G04 #@! TA.AperFunction,ComponentPad*
%ADD14R,2.250000X2.250000*%
G04 #@! TD*
G04 #@! TA.AperFunction,ComponentPad*
%ADD15C,2.250000*%
G04 #@! TD*
G04 #@! TA.AperFunction,ComponentPad*
%ADD16C,1.600000*%
G04 #@! TD*
G04 #@! TA.AperFunction,ComponentPad*
%ADD17O,1.000000X5.000000*%
G04 #@! TD*
G04 #@! TA.AperFunction,ComponentPad*
%ADD18C,2.000000*%
G04 #@! TD*
G04 #@! TA.AperFunction,ComponentPad*
%ADD19R,1.700000X1.700000*%
G04 #@! TD*
G04 #@! TA.AperFunction,ComponentPad*
%ADD20O,1.700000X1.700000*%
G04 #@! TD*
G04 #@! TA.AperFunction,ComponentPad*
%ADD21R,2.800000X2.800000*%
G04 #@! TD*
G04 #@! TA.AperFunction,ComponentPad*
%ADD22O,2.800000X2.800000*%
G04 #@! TD*
G04 #@! TA.AperFunction,ComponentPad*
%ADD23R,2.000000X1.905000*%
G04 #@! TD*
G04 #@! TA.AperFunction,ComponentPad*
%ADD24O,2.000000X1.905000*%
G04 #@! TD*
G04 #@! TA.AperFunction,ViaPad*
%ADD25C,0.800000*%
G04 #@! TD*
G04 #@! TA.AperFunction,Conductor*
%ADD26C,0.250000*%
G04 #@! TD*
G04 #@! TA.AperFunction,Conductor*
%ADD27C,1.000000*%
G04 #@! TD*
G04 APERTURE END LIST*
D10*
X208915000Y-61595000D03*
X208915000Y-68580000D03*
X208915000Y-20320000D03*
X172085000Y-68580000D03*
X167005000Y-68580000D03*
D11*
X198755000Y-53975000D03*
X198755000Y-65405000D03*
D12*
X168920000Y-58435000D03*
D13*
X168920000Y-60975000D03*
X168920000Y-63515000D03*
X176540000Y-63515000D03*
X176540000Y-58435000D03*
D12*
X168920000Y-49545000D03*
D13*
X168920000Y-52085000D03*
X168920000Y-54625000D03*
X176540000Y-54625000D03*
X176540000Y-49545000D03*
D14*
X171300000Y-29260000D03*
D15*
X171300000Y-33060000D03*
X171300000Y-38060000D03*
X171300000Y-43060000D03*
X184300000Y-43060000D03*
X184300000Y-38060000D03*
X184300000Y-33060000D03*
X184300000Y-28060000D03*
D16*
X180710000Y-66635000D03*
X182510000Y-61635000D03*
X182510000Y-50205000D03*
X180710000Y-55205000D03*
D17*
X194310000Y-41910000D03*
X207010000Y-41910000D03*
X194310000Y-29210000D03*
X207010000Y-29210000D03*
D18*
X166910000Y-19050000D03*
X170910000Y-19050000D03*
D19*
X160015000Y-19055000D03*
D20*
X162555000Y-19055000D03*
X160015000Y-21595000D03*
X162555000Y-21595000D03*
X160015000Y-24135000D03*
X162555000Y-24135000D03*
X160015000Y-26675000D03*
X162555000Y-26675000D03*
X160015000Y-29215000D03*
X162555000Y-29215000D03*
X160015000Y-31755000D03*
X162555000Y-31755000D03*
X160015000Y-34295000D03*
X162555000Y-34295000D03*
X160015000Y-36835000D03*
X162555000Y-36835000D03*
X160015000Y-39375000D03*
X162555000Y-39375000D03*
X160015000Y-41915000D03*
X162555000Y-41915000D03*
X160015000Y-44455000D03*
X162555000Y-44455000D03*
X160015000Y-46995000D03*
X162555000Y-46995000D03*
X160015000Y-49535000D03*
X162555000Y-49535000D03*
X160015000Y-52075000D03*
X162555000Y-52075000D03*
X160015000Y-54615000D03*
X162555000Y-54615000D03*
X160015000Y-57155000D03*
X162555000Y-57155000D03*
X160015000Y-59695000D03*
X162555000Y-59695000D03*
X160015000Y-62235000D03*
X162555000Y-62235000D03*
X160015000Y-64775000D03*
X162555000Y-64775000D03*
X160015000Y-67315000D03*
X162555000Y-67315000D03*
D19*
X215920000Y-19080000D03*
D20*
X213380000Y-19080000D03*
X215920000Y-21620000D03*
X213380000Y-21620000D03*
X215920000Y-24160000D03*
X213380000Y-24160000D03*
X215920000Y-26700000D03*
X213380000Y-26700000D03*
X215920000Y-29240000D03*
X213380000Y-29240000D03*
X215920000Y-31780000D03*
X213380000Y-31780000D03*
X215920000Y-34320000D03*
X213380000Y-34320000D03*
X215920000Y-36860000D03*
X213380000Y-36860000D03*
X215920000Y-39400000D03*
X213380000Y-39400000D03*
X215920000Y-41940000D03*
X213380000Y-41940000D03*
X215920000Y-44480000D03*
X213380000Y-44480000D03*
X215920000Y-47020000D03*
X213380000Y-47020000D03*
X215920000Y-49560000D03*
X213380000Y-49560000D03*
X215920000Y-52100000D03*
X213380000Y-52100000D03*
X215920000Y-54640000D03*
X213380000Y-54640000D03*
X215920000Y-57180000D03*
X213380000Y-57180000D03*
X215920000Y-59720000D03*
X213380000Y-59720000D03*
X215920000Y-62260000D03*
X213380000Y-62260000D03*
X215920000Y-64800000D03*
X213380000Y-64800000D03*
X215920000Y-67340000D03*
X213380000Y-67340000D03*
D21*
X191770000Y-20320000D03*
D22*
X204470000Y-20320000D03*
D21*
X175260000Y-20320000D03*
D22*
X187960000Y-20320000D03*
D23*
X186985000Y-62865000D03*
D24*
X186985000Y-65405000D03*
X186985000Y-67945000D03*
D23*
X186985000Y-51435000D03*
D24*
X186985000Y-53975000D03*
X186985000Y-56515000D03*
D25*
X184150000Y-55245000D03*
X182880000Y-55245000D03*
X184150000Y-57785000D03*
X182880000Y-57785000D03*
X168275000Y-33655000D03*
X168910000Y-41275000D03*
X188595000Y-42545000D03*
X188595000Y-43815000D03*
X187325000Y-43815000D03*
X187325000Y-42545000D03*
X185420000Y-20320000D03*
X185420000Y-21590000D03*
X184150000Y-21590000D03*
X184150000Y-20320000D03*
X209550000Y-41910000D03*
X209550000Y-40640000D03*
X215900000Y-69850000D03*
X214630000Y-69850000D03*
X213360000Y-69850000D03*
X180975000Y-52070000D03*
X179705000Y-53340000D03*
X179705000Y-52070000D03*
X179705000Y-50800000D03*
X196850000Y-63500000D03*
X196850000Y-62230000D03*
X195580000Y-62230000D03*
X195580000Y-63500000D03*
X195580000Y-66040000D03*
X194310000Y-66040000D03*
X193040000Y-67310000D03*
X166370000Y-62865000D03*
X166370000Y-61595000D03*
X166370000Y-58420000D03*
X178435000Y-61595000D03*
X184785000Y-67310000D03*
X183515000Y-67310000D03*
X177800000Y-66675000D03*
X177800000Y-65405000D03*
X207645000Y-53975000D03*
X208915000Y-53975000D03*
X208915000Y-52705000D03*
X207645000Y-52705000D03*
X191135000Y-53340000D03*
X189865000Y-53340000D03*
X191135000Y-54610000D03*
X191135000Y-55880000D03*
X189865000Y-55880000D03*
X189865000Y-54610000D03*
X179705000Y-41275000D03*
X179705000Y-42545000D03*
X178435000Y-42545000D03*
X178435000Y-41275000D03*
X176530000Y-33020000D03*
X176530000Y-34290000D03*
X175260000Y-34290000D03*
X175260000Y-33020000D03*
X180975000Y-24130000D03*
X202565000Y-40005000D03*
X202565000Y-42545000D03*
X202565000Y-41275000D03*
X196215000Y-41275000D03*
X196215000Y-42545000D03*
X195580000Y-67310000D03*
X194310000Y-62230000D03*
X194310000Y-63500000D03*
X194310000Y-67310000D03*
X193040000Y-66040000D03*
X193040000Y-63500000D03*
X195580000Y-53975000D03*
X194310000Y-55245000D03*
X194310000Y-53975000D03*
X193040000Y-53975000D03*
X193040000Y-55245000D03*
X193040000Y-56515000D03*
X200025000Y-56515000D03*
X204470000Y-57785000D03*
X203200000Y-57785000D03*
X201930000Y-57785000D03*
X200660000Y-57785000D03*
X199390000Y-57785000D03*
X198755000Y-19050000D03*
X196850000Y-19050000D03*
X189865000Y-28575000D03*
X189865000Y-29845000D03*
X188595000Y-29845000D03*
X188595000Y-28575000D03*
X190500000Y-35560000D03*
X191770000Y-35560000D03*
X191770000Y-34290000D03*
X190500000Y-34290000D03*
X194310000Y-21590000D03*
X161290000Y-70485000D03*
X160020000Y-70485000D03*
X207645000Y-37465000D03*
X208915000Y-37465000D03*
X210185000Y-31115000D03*
X208915000Y-31115000D03*
X208915000Y-29845000D03*
X201930000Y-29210000D03*
X201930000Y-30480000D03*
X200660000Y-30480000D03*
X200660000Y-29210000D03*
X177800000Y-29845000D03*
X177800000Y-28575000D03*
X176530000Y-28575000D03*
X176530000Y-29845000D03*
X175260000Y-29845000D03*
X175260000Y-28575000D03*
X177800000Y-38735000D03*
X177800000Y-37465000D03*
X176530000Y-37465000D03*
X176530000Y-38735000D03*
X175260000Y-38735000D03*
X175260000Y-37465000D03*
X196198000Y-45930900D03*
X200514100Y-42321100D03*
D26*
X215920000Y-64800000D02*
X214744700Y-64800000D01*
X160015000Y-64775000D02*
X161190300Y-64775000D01*
X214744700Y-65167400D02*
X214744700Y-64800000D01*
X213936800Y-65975300D02*
X214744700Y-65167400D01*
X208219500Y-65975300D02*
X213936800Y-65975300D01*
X206375900Y-67818900D02*
X208219500Y-65975300D01*
X206375900Y-69926800D02*
X206375900Y-67818900D01*
X205612900Y-70689800D02*
X206375900Y-69926800D01*
X178120300Y-70689800D02*
X205612900Y-70689800D01*
X173380800Y-65950300D02*
X178120300Y-70689800D01*
X161998200Y-65950300D02*
X173380800Y-65950300D01*
X161190300Y-65142400D02*
X161998200Y-65950300D01*
X161190300Y-64775000D02*
X161190300Y-65142400D01*
X161190300Y-62602400D02*
X161190300Y-62235000D01*
X161998200Y-63410300D02*
X161190300Y-62602400D01*
X164524800Y-63410300D02*
X161998200Y-63410300D01*
X166577300Y-65462800D02*
X164524800Y-63410300D01*
X173591800Y-65462800D02*
X166577300Y-65462800D01*
X178359300Y-70230300D02*
X173591800Y-65462800D01*
X205417300Y-70230300D02*
X178359300Y-70230300D01*
X205766700Y-69880900D02*
X205417300Y-70230300D01*
X205766700Y-67791200D02*
X205766700Y-69880900D01*
X208994600Y-64563300D02*
X205766700Y-67791200D01*
X209313200Y-64563300D02*
X208994600Y-64563300D01*
X210441200Y-63435300D02*
X209313200Y-64563300D01*
X213936800Y-63435300D02*
X210441200Y-63435300D01*
X214744700Y-62627400D02*
X213936800Y-63435300D01*
X214744700Y-62260000D02*
X214744700Y-62627400D01*
X215920000Y-62260000D02*
X214744700Y-62260000D01*
X160015000Y-62235000D02*
X161190300Y-62235000D01*
X215920000Y-59720000D02*
X214744700Y-59720000D01*
X160015000Y-59695000D02*
X161190300Y-59695000D01*
X214744700Y-59352700D02*
X214744700Y-59720000D01*
X213916000Y-58524000D02*
X214744700Y-59352700D01*
X207576800Y-58524000D02*
X213916000Y-58524000D01*
X206395800Y-59705000D02*
X207576800Y-58524000D01*
X165999500Y-59705000D02*
X206395800Y-59705000D01*
X164814200Y-58519700D02*
X165999500Y-59705000D01*
X161998200Y-58519700D02*
X164814200Y-58519700D01*
X161190300Y-59327600D02*
X161998200Y-58519700D01*
X161190300Y-59695000D02*
X161190300Y-59327600D01*
X178443200Y-57155000D02*
X162555000Y-57155000D01*
X180542800Y-59254600D02*
X178443200Y-57155000D01*
X206209300Y-59254600D02*
X180542800Y-59254600D01*
X208283900Y-57180000D02*
X206209300Y-59254600D01*
X213380000Y-57180000D02*
X208283900Y-57180000D01*
X161190300Y-56787600D02*
X161190300Y-57155000D01*
X161998200Y-55979700D02*
X161190300Y-56787600D01*
X179045700Y-55979700D02*
X161998200Y-55979700D01*
X181866300Y-58800300D02*
X179045700Y-55979700D01*
X205708400Y-58800300D02*
X181866300Y-58800300D01*
X208533400Y-55975300D02*
X205708400Y-58800300D01*
X213907300Y-55975300D02*
X208533400Y-55975300D01*
X214744700Y-56812700D02*
X213907300Y-55975300D01*
X214744700Y-57180000D02*
X214744700Y-56812700D01*
X215920000Y-57180000D02*
X214744700Y-57180000D01*
X160015000Y-57155000D02*
X161190300Y-57155000D01*
X161190300Y-54247600D02*
X161190300Y-54615000D01*
X161998200Y-53439700D02*
X161190300Y-54247600D01*
X175491900Y-53439700D02*
X161998200Y-53439700D01*
X179863000Y-49068600D02*
X175491900Y-53439700D01*
X207173400Y-49068600D02*
X179863000Y-49068600D01*
X211569500Y-53464700D02*
X207173400Y-49068600D01*
X213936800Y-53464700D02*
X211569500Y-53464700D01*
X214744700Y-54272600D02*
X213936800Y-53464700D01*
X214744700Y-54640000D02*
X214744700Y-54272600D01*
X215920000Y-54640000D02*
X214744700Y-54640000D01*
X160015000Y-54615000D02*
X161190300Y-54615000D01*
X213380000Y-52100000D02*
X212204700Y-52100000D01*
X162555000Y-52075000D02*
X163730300Y-52075000D01*
X164905600Y-50899700D02*
X163730300Y-52075000D01*
X177311300Y-50899700D02*
X164905600Y-50899700D01*
X179592800Y-48618200D02*
X177311300Y-50899700D01*
X208715300Y-48618200D02*
X179592800Y-48618200D01*
X212197100Y-52100000D02*
X208715300Y-48618200D01*
X212204700Y-52100000D02*
X212197100Y-52100000D01*
X215920000Y-52100000D02*
X214744700Y-52100000D01*
X160015000Y-52075000D02*
X161190300Y-52075000D01*
X161190300Y-51707600D02*
X161190300Y-52075000D01*
X161998200Y-50899700D02*
X161190300Y-51707600D01*
X163786000Y-50899700D02*
X161998200Y-50899700D01*
X166517800Y-48167900D02*
X163786000Y-50899700D01*
X208901900Y-48167900D02*
X166517800Y-48167900D01*
X211658700Y-50924700D02*
X208901900Y-48167900D01*
X213936800Y-50924700D02*
X211658700Y-50924700D01*
X214744700Y-51732600D02*
X213936800Y-50924700D01*
X214744700Y-52100000D02*
X214744700Y-51732600D01*
X213380000Y-49560000D02*
X212204700Y-49560000D01*
X162555000Y-49535000D02*
X163730300Y-49535000D01*
X165547700Y-47717600D02*
X163730300Y-49535000D01*
X210362300Y-47717600D02*
X165547700Y-47717600D01*
X212204700Y-49560000D02*
X210362300Y-47717600D01*
X163908400Y-46816900D02*
X163730300Y-46995000D01*
X212001600Y-46816900D02*
X163908400Y-46816900D01*
X212204700Y-47020000D02*
X212001600Y-46816900D01*
X213380000Y-47020000D02*
X212204700Y-47020000D01*
X162555000Y-46995000D02*
X163730300Y-46995000D01*
X215920000Y-47020000D02*
X214744700Y-47020000D01*
X160015000Y-46995000D02*
X161190300Y-46995000D01*
X196198000Y-45819700D02*
X196198000Y-45930900D01*
X161998200Y-45819700D02*
X196198000Y-45819700D01*
X161190300Y-46627600D02*
X161998200Y-45819700D01*
X161190300Y-46995000D02*
X161190300Y-46627600D01*
X214744700Y-46652700D02*
X214744700Y-47020000D01*
X213911700Y-45819700D02*
X214744700Y-46652700D01*
X196198000Y-45819700D02*
X213911700Y-45819700D01*
X164479800Y-45204500D02*
X163730300Y-44455000D01*
X211480200Y-45204500D02*
X164479800Y-45204500D01*
X212204700Y-44480000D02*
X211480200Y-45204500D01*
X213380000Y-44480000D02*
X212204700Y-44480000D01*
X162555000Y-44455000D02*
X163730300Y-44455000D01*
X202947200Y-44754200D02*
X200514100Y-42321100D01*
X208847500Y-44754200D02*
X202947200Y-44754200D01*
X210315700Y-43286000D02*
X208847500Y-44754200D01*
X213918000Y-43286000D02*
X210315700Y-43286000D01*
X214744700Y-44112700D02*
X213918000Y-43286000D01*
X214744700Y-44480000D02*
X214744700Y-44112700D01*
X215920000Y-44480000D02*
X214744700Y-44480000D01*
X198081000Y-44754200D02*
X200514100Y-42321100D01*
X168910800Y-44754200D02*
X198081000Y-44754200D01*
X167396300Y-43239700D02*
X168910800Y-44754200D01*
X162038300Y-43239700D02*
X167396300Y-43239700D01*
X161190300Y-44087700D02*
X162038300Y-43239700D01*
X161190300Y-44455000D02*
X161190300Y-44087700D01*
X160015000Y-44455000D02*
X161190300Y-44455000D01*
X215920000Y-41940000D02*
X215920000Y-43115300D01*
X160015000Y-41915000D02*
X160015000Y-43090300D01*
X159647600Y-43090300D02*
X160015000Y-43090300D01*
X158839700Y-43898200D02*
X159647600Y-43090300D01*
X158839700Y-47526600D02*
X158839700Y-43898200D01*
X159485800Y-48172700D02*
X158839700Y-47526600D01*
X163973000Y-48172700D02*
X159485800Y-48172700D01*
X164878400Y-47267300D02*
X163973000Y-48172700D01*
X211181900Y-47267300D02*
X164878400Y-47267300D01*
X212113700Y-48199100D02*
X211181900Y-47267300D01*
X216462400Y-48199100D02*
X212113700Y-48199100D01*
X217098900Y-47562600D02*
X216462400Y-48199100D01*
X217098900Y-43926900D02*
X217098900Y-47562600D01*
X216287300Y-43115300D02*
X217098900Y-43926900D01*
X215920000Y-43115300D02*
X216287300Y-43115300D01*
X163900900Y-39545600D02*
X163730300Y-39375000D01*
X185763300Y-39545600D02*
X163900900Y-39545600D01*
X186284500Y-39024400D02*
X185763300Y-39545600D01*
X211829100Y-39024400D02*
X186284500Y-39024400D01*
X212204700Y-39400000D02*
X211829100Y-39024400D01*
X213380000Y-39400000D02*
X212204700Y-39400000D01*
X162555000Y-39375000D02*
X163730300Y-39375000D01*
X163986200Y-36579100D02*
X163730300Y-36835000D01*
X211923800Y-36579100D02*
X163986200Y-36579100D01*
X212204700Y-36860000D02*
X211923800Y-36579100D01*
X213380000Y-36860000D02*
X212204700Y-36860000D01*
X162555000Y-36835000D02*
X163730300Y-36835000D01*
X164360000Y-31125300D02*
X163730300Y-31755000D01*
X192023600Y-31125300D02*
X164360000Y-31125300D01*
X193001800Y-32103500D02*
X192023600Y-31125300D01*
X211881200Y-32103500D02*
X193001800Y-32103500D01*
X212204700Y-31780000D02*
X211881200Y-32103500D01*
X213380000Y-31780000D02*
X212204700Y-31780000D01*
X162555000Y-31755000D02*
X163730300Y-31755000D01*
X215920000Y-31780000D02*
X214744700Y-31780000D01*
X160015000Y-31755000D02*
X161190300Y-31755000D01*
X214744700Y-32147300D02*
X214744700Y-31780000D01*
X213927600Y-32964400D02*
X214744700Y-32147300D01*
X187736100Y-32964400D02*
X213927600Y-32964400D01*
X186347300Y-31575600D02*
X187736100Y-32964400D01*
X166197600Y-31575600D02*
X186347300Y-31575600D01*
X164842900Y-32930300D02*
X166197600Y-31575600D01*
X161998200Y-32930300D02*
X164842900Y-32930300D01*
X161190300Y-32122400D02*
X161998200Y-32930300D01*
X161190300Y-31755000D02*
X161190300Y-32122400D01*
X210472200Y-29240000D02*
X213380000Y-29240000D01*
X207601900Y-26369700D02*
X210472200Y-29240000D01*
X171202300Y-26369700D02*
X207601900Y-26369700D01*
X168357000Y-29215000D02*
X171202300Y-26369700D01*
X162555000Y-29215000D02*
X168357000Y-29215000D01*
X213380000Y-26700000D02*
X212204700Y-26700000D01*
X162555000Y-26675000D02*
X163730300Y-26675000D01*
X164939200Y-25466100D02*
X163730300Y-26675000D01*
X210333900Y-25466100D02*
X164939200Y-25466100D01*
X211567800Y-26700000D02*
X210333900Y-25466100D01*
X212204700Y-26700000D02*
X211567800Y-26700000D01*
X161190300Y-27042400D02*
X161190300Y-26675000D01*
X161998200Y-27850300D02*
X161190300Y-27042400D01*
X165250500Y-27850300D02*
X161998200Y-27850300D01*
X167184300Y-25916500D02*
X165250500Y-27850300D01*
X209191800Y-25916500D02*
X167184300Y-25916500D01*
X211165900Y-27890600D02*
X209191800Y-25916500D01*
X213921400Y-27890600D02*
X211165900Y-27890600D01*
X214744700Y-27067300D02*
X213921400Y-27890600D01*
X214744700Y-26700000D02*
X214744700Y-27067300D01*
X215920000Y-26700000D02*
X214744700Y-26700000D01*
X160015000Y-26675000D02*
X161190300Y-26675000D01*
X215920000Y-24160000D02*
X214744700Y-24160000D01*
X160015000Y-24135000D02*
X161190300Y-24135000D01*
X161190300Y-24502400D02*
X161190300Y-24135000D01*
X161998200Y-25310300D02*
X161190300Y-24502400D01*
X163975400Y-25310300D02*
X161998200Y-25310300D01*
X164274300Y-25011400D02*
X163975400Y-25310300D01*
X210834400Y-25011400D02*
X164274300Y-25011400D01*
X211193700Y-25370700D02*
X210834400Y-25011400D01*
X213901300Y-25370700D02*
X211193700Y-25370700D01*
X214744700Y-24527300D02*
X213901300Y-25370700D01*
X214744700Y-24160000D02*
X214744700Y-24527300D01*
X161190300Y-21962300D02*
X161190300Y-21595000D01*
X162034100Y-22806100D02*
X161190300Y-21962300D01*
X213861500Y-22806100D02*
X162034100Y-22806100D01*
X214744700Y-21922900D02*
X213861500Y-22806100D01*
X214744700Y-21620000D02*
X214744700Y-21922900D01*
X215920000Y-21620000D02*
X214744700Y-21620000D01*
X160015000Y-21595000D02*
X161190300Y-21595000D01*
X165064200Y-17721100D02*
X163730300Y-19055000D01*
X210845800Y-17721100D02*
X165064200Y-17721100D01*
X212204700Y-19080000D02*
X210845800Y-17721100D01*
X213380000Y-19080000D02*
X212204700Y-19080000D01*
X162555000Y-19055000D02*
X163730300Y-19055000D01*
X187960000Y-20320000D02*
X191770000Y-20320000D01*
X182555000Y-63515000D02*
X176540000Y-63515000D01*
X186985000Y-67945000D02*
X182555000Y-63515000D01*
D27*
X183954700Y-61635000D02*
X182510000Y-61635000D01*
X185184700Y-62865000D02*
X183954700Y-61635000D01*
X186985000Y-62865000D02*
X185184700Y-62865000D01*
D26*
X180217900Y-56515000D02*
X185659700Y-56515000D01*
X178327900Y-54625000D02*
X180217900Y-56515000D01*
X176540000Y-54625000D02*
X178327900Y-54625000D01*
X186985000Y-56515000D02*
X185659700Y-56515000D01*
D27*
X181940000Y-53975000D02*
X180710000Y-55205000D01*
X186985000Y-53975000D02*
X181940000Y-53975000D01*
X183740000Y-51435000D02*
X182510000Y-50205000D01*
X186985000Y-51435000D02*
X183740000Y-51435000D01*
D26*
X161190300Y-19422300D02*
X161190300Y-19055000D01*
X162187600Y-20419600D02*
X161190300Y-19422300D01*
X173435100Y-20419600D02*
X162187600Y-20419600D01*
X173534700Y-20320000D02*
X173435100Y-20419600D01*
X175260000Y-20320000D02*
X173534700Y-20320000D01*
X160015000Y-19055000D02*
X161190300Y-19055000D01*
X198755000Y-65405000D02*
X198755000Y-62992300D01*
X213380000Y-59720000D02*
X212204700Y-59720000D01*
X206634700Y-54640000D02*
X213380000Y-54640000D01*
X205212700Y-56062000D02*
X206634700Y-54640000D01*
X200842000Y-56062000D02*
X205212700Y-56062000D01*
X198755000Y-53975000D02*
X200842000Y-56062000D01*
X165010300Y-60975000D02*
X168920000Y-60975000D01*
X163730300Y-59695000D02*
X165010300Y-60975000D01*
X162555000Y-59695000D02*
X163730300Y-59695000D01*
X168920000Y-60975000D02*
X170045300Y-60975000D01*
X196271600Y-60508900D02*
X198755000Y-62992300D01*
X170511400Y-60508900D02*
X196271600Y-60508900D01*
X170045300Y-60975000D02*
X170511400Y-60508900D01*
X204080300Y-62992300D02*
X198755000Y-62992300D01*
X207805700Y-59266900D02*
X204080300Y-62992300D01*
X211751600Y-59266900D02*
X207805700Y-59266900D01*
X212204700Y-59720000D02*
X211751600Y-59266900D01*
X216287400Y-28064700D02*
X215920000Y-28064700D01*
X217095300Y-27256800D02*
X216287400Y-28064700D01*
X217095300Y-23654000D02*
X217095300Y-27256800D01*
X216410600Y-22969300D02*
X217095300Y-23654000D01*
X214570700Y-22969300D02*
X216410600Y-22969300D01*
X213380000Y-24160000D02*
X214570700Y-22969300D01*
X215920000Y-29240000D02*
X215920000Y-28064700D01*
X213747400Y-40764700D02*
X213380000Y-40764700D01*
X214555300Y-39956800D02*
X213747400Y-40764700D01*
X214555300Y-36303300D02*
X214555300Y-39956800D01*
X213747300Y-35495300D02*
X214555300Y-36303300D01*
X213380000Y-35495300D02*
X213747300Y-35495300D01*
X213380000Y-34320000D02*
X213380000Y-35495300D01*
X213380000Y-41940000D02*
X213380000Y-40764700D01*
G04 #@! TA.AperFunction,Conductor*
G36*
X158196512Y-47661627D02*
G01*
X158231153Y-47710469D01*
X158237505Y-47726513D01*
X158241349Y-47737742D01*
X158244335Y-47748020D01*
X158253682Y-47780193D01*
X158257715Y-47787012D01*
X158257717Y-47787017D01*
X158263993Y-47797628D01*
X158272688Y-47815376D01*
X158280148Y-47834217D01*
X158284810Y-47840633D01*
X158284810Y-47840634D01*
X158306136Y-47869987D01*
X158312652Y-47879907D01*
X158335158Y-47917962D01*
X158349479Y-47932283D01*
X158362319Y-47947316D01*
X158374228Y-47963707D01*
X158392933Y-47979181D01*
X158408305Y-47991898D01*
X158417084Y-47999888D01*
X158938400Y-48521204D01*
X158972426Y-48583516D01*
X158967361Y-48654331D01*
X158953393Y-48681303D01*
X158833098Y-48857649D01*
X158828000Y-48866623D01*
X158738338Y-49059783D01*
X158734775Y-49069470D01*
X158679389Y-49269183D01*
X158680912Y-49277607D01*
X158693292Y-49281000D01*
X160143000Y-49281000D01*
X160211121Y-49301002D01*
X160257614Y-49354658D01*
X160269000Y-49407000D01*
X160269000Y-49663000D01*
X160248998Y-49731121D01*
X160195342Y-49777614D01*
X160143000Y-49789000D01*
X158698225Y-49789000D01*
X158684694Y-49792973D01*
X158683257Y-49802966D01*
X158713565Y-49937446D01*
X158716645Y-49947275D01*
X158796770Y-50144603D01*
X158801413Y-50153794D01*
X158912694Y-50335388D01*
X158918777Y-50343699D01*
X159058213Y-50504667D01*
X159065580Y-50511883D01*
X159229434Y-50647916D01*
X159237881Y-50653831D01*
X159306969Y-50694203D01*
X159355693Y-50745842D01*
X159368764Y-50815625D01*
X159342033Y-50881396D01*
X159301584Y-50914752D01*
X159288607Y-50921507D01*
X159284474Y-50924610D01*
X159284471Y-50924612D01*
X159114100Y-51052530D01*
X159109965Y-51055635D01*
X158955629Y-51217138D01*
X158829743Y-51401680D01*
X158735688Y-51604305D01*
X158675989Y-51819570D01*
X158675440Y-51824707D01*
X158674456Y-51833913D01*
X158652251Y-52041695D01*
X158652548Y-52046848D01*
X158652548Y-52046851D01*
X158660057Y-52177074D01*
X158665110Y-52264715D01*
X158666247Y-52269761D01*
X158666248Y-52269767D01*
X158688441Y-52368241D01*
X158714222Y-52482639D01*
X158798266Y-52689616D01*
X158835736Y-52750761D01*
X158912291Y-52875688D01*
X158914987Y-52880088D01*
X158918367Y-52883990D01*
X158922919Y-52889245D01*
X159061250Y-53048938D01*
X159233126Y-53191632D01*
X159290025Y-53224881D01*
X159306445Y-53234476D01*
X159355169Y-53286114D01*
X159368240Y-53355897D01*
X159341509Y-53421669D01*
X159301055Y-53455027D01*
X159288607Y-53461507D01*
X159284474Y-53464610D01*
X159284471Y-53464612D01*
X159114100Y-53592530D01*
X159109965Y-53595635D01*
X158955629Y-53757138D01*
X158829743Y-53941680D01*
X158794567Y-54017461D01*
X158747805Y-54118202D01*
X158735688Y-54144305D01*
X158675989Y-54359570D01*
X158652251Y-54581695D01*
X158652548Y-54586848D01*
X158652548Y-54586851D01*
X158663786Y-54781757D01*
X158665110Y-54804715D01*
X158666247Y-54809761D01*
X158666248Y-54809767D01*
X158686096Y-54897837D01*
X158714222Y-55022639D01*
X158798266Y-55229616D01*
X158818200Y-55262145D01*
X158891405Y-55381605D01*
X158914987Y-55420088D01*
X159061250Y-55588938D01*
X159233126Y-55731632D01*
X159303595Y-55772811D01*
X159306445Y-55774476D01*
X159355169Y-55826114D01*
X159368240Y-55895897D01*
X159341509Y-55961669D01*
X159301055Y-55995027D01*
X159288607Y-56001507D01*
X159284474Y-56004610D01*
X159284471Y-56004612D01*
X159114100Y-56132530D01*
X159109965Y-56135635D01*
X158955629Y-56297138D01*
X158829743Y-56481680D01*
X158735688Y-56684305D01*
X158675989Y-56899570D01*
X158652251Y-57121695D01*
X158652548Y-57126848D01*
X158652548Y-57126851D01*
X158662048Y-57291611D01*
X158665110Y-57344715D01*
X158666247Y-57349761D01*
X158666248Y-57349767D01*
X158690304Y-57456508D01*
X158714222Y-57562639D01*
X158798266Y-57769616D01*
X158836952Y-57832746D01*
X158912291Y-57955688D01*
X158914987Y-57960088D01*
X159061250Y-58128938D01*
X159233126Y-58271632D01*
X159270253Y-58293327D01*
X159306445Y-58314476D01*
X159355169Y-58366114D01*
X159368240Y-58435897D01*
X159341509Y-58501669D01*
X159301055Y-58535027D01*
X159288607Y-58541507D01*
X159284474Y-58544610D01*
X159284471Y-58544612D01*
X159114100Y-58672530D01*
X159109965Y-58675635D01*
X158955629Y-58837138D01*
X158829743Y-59021680D01*
X158804603Y-59075840D01*
X158744855Y-59204557D01*
X158735688Y-59224305D01*
X158675989Y-59439570D01*
X158652251Y-59661695D01*
X158652548Y-59666848D01*
X158652548Y-59666851D01*
X158664360Y-59871703D01*
X158665110Y-59884715D01*
X158666247Y-59889761D01*
X158666248Y-59889767D01*
X158686096Y-59977837D01*
X158714222Y-60102639D01*
X158768424Y-60236123D01*
X158794633Y-60300668D01*
X158798266Y-60309616D01*
X158914987Y-60500088D01*
X159061250Y-60668938D01*
X159233126Y-60811632D01*
X159270253Y-60833327D01*
X159306445Y-60854476D01*
X159355169Y-60906114D01*
X159368240Y-60975897D01*
X159341509Y-61041669D01*
X159301055Y-61075027D01*
X159288607Y-61081507D01*
X159284474Y-61084610D01*
X159284471Y-61084612D01*
X159114100Y-61212530D01*
X159109965Y-61215635D01*
X158955629Y-61377138D01*
X158952720Y-61381403D01*
X158952714Y-61381411D01*
X158894144Y-61467271D01*
X158829743Y-61561680D01*
X158735688Y-61764305D01*
X158675989Y-61979570D01*
X158652251Y-62201695D01*
X158652548Y-62206848D01*
X158652548Y-62206851D01*
X158661316Y-62358919D01*
X158665110Y-62424715D01*
X158666247Y-62429761D01*
X158666248Y-62429767D01*
X158683348Y-62505643D01*
X158714222Y-62642639D01*
X158770728Y-62781798D01*
X158795631Y-62843126D01*
X158798266Y-62849616D01*
X158819307Y-62883952D01*
X158896101Y-63009268D01*
X158914987Y-63040088D01*
X159061250Y-63208938D01*
X159233126Y-63351632D01*
X159270253Y-63373327D01*
X159306445Y-63394476D01*
X159355169Y-63446114D01*
X159368240Y-63515897D01*
X159341509Y-63581669D01*
X159301055Y-63615027D01*
X159288607Y-63621507D01*
X159284474Y-63624610D01*
X159284471Y-63624612D01*
X159115685Y-63751340D01*
X159109965Y-63755635D01*
X159065311Y-63802363D01*
X159011177Y-63859011D01*
X158955629Y-63917138D01*
X158829743Y-64101680D01*
X158798494Y-64169000D01*
X158751023Y-64271269D01*
X158735688Y-64304305D01*
X158675989Y-64519570D01*
X158652251Y-64741695D01*
X158652548Y-64746848D01*
X158652548Y-64746851D01*
X158659817Y-64872921D01*
X158665110Y-64964715D01*
X158666247Y-64969761D01*
X158666248Y-64969767D01*
X158686982Y-65061768D01*
X158714222Y-65182639D01*
X158798266Y-65389616D01*
X158914987Y-65580088D01*
X159061250Y-65748938D01*
X159233126Y-65891632D01*
X159270253Y-65913327D01*
X159306955Y-65934774D01*
X159355679Y-65986412D01*
X159368750Y-66056195D01*
X159342019Y-66121967D01*
X159301562Y-66155327D01*
X159293457Y-66159546D01*
X159284738Y-66165036D01*
X159114433Y-66292905D01*
X159106726Y-66299748D01*
X158959590Y-66453717D01*
X158953104Y-66461727D01*
X158833098Y-66637649D01*
X158828000Y-66646623D01*
X158738338Y-66839783D01*
X158734775Y-66849470D01*
X158679389Y-67049183D01*
X158680912Y-67057607D01*
X158693292Y-67061000D01*
X160143000Y-67061000D01*
X160211121Y-67081002D01*
X160257614Y-67134658D01*
X160269000Y-67187000D01*
X160269000Y-68633517D01*
X160273064Y-68647359D01*
X160286478Y-68649393D01*
X160293184Y-68648534D01*
X160303262Y-68646392D01*
X160507255Y-68585191D01*
X160516842Y-68581433D01*
X160708095Y-68487739D01*
X160716945Y-68482464D01*
X160890328Y-68358792D01*
X160898200Y-68352139D01*
X161049052Y-68201812D01*
X161055730Y-68193965D01*
X161183022Y-68016819D01*
X161184279Y-68017722D01*
X161231373Y-67974362D01*
X161301311Y-67962145D01*
X161366751Y-67989678D01*
X161394579Y-68021511D01*
X161454987Y-68120088D01*
X161601250Y-68288938D01*
X161773126Y-68431632D01*
X161966000Y-68544338D01*
X161970825Y-68546180D01*
X161970826Y-68546181D01*
X162023458Y-68566279D01*
X162174692Y-68624030D01*
X162179760Y-68625061D01*
X162179763Y-68625062D01*
X162274862Y-68644410D01*
X162393597Y-68668567D01*
X162398772Y-68668757D01*
X162398774Y-68668757D01*
X162611673Y-68676564D01*
X162611677Y-68676564D01*
X162616837Y-68676753D01*
X162621957Y-68676097D01*
X162621959Y-68676097D01*
X162833288Y-68649025D01*
X162833289Y-68649025D01*
X162838416Y-68648368D01*
X162843966Y-68646703D01*
X163047429Y-68585661D01*
X163047434Y-68585659D01*
X163052384Y-68584174D01*
X163252994Y-68485896D01*
X163434860Y-68356173D01*
X163466785Y-68324360D01*
X163589435Y-68202137D01*
X163593096Y-68198489D01*
X163628665Y-68148990D01*
X163720435Y-68021277D01*
X163723453Y-68017077D01*
X163732209Y-67999362D01*
X163820136Y-67821453D01*
X163820137Y-67821451D01*
X163822430Y-67816811D01*
X163874826Y-67644357D01*
X163885865Y-67608023D01*
X163885865Y-67608021D01*
X163887370Y-67603069D01*
X163916529Y-67381590D01*
X163916796Y-67370678D01*
X163918074Y-67318365D01*
X163918074Y-67318361D01*
X163918156Y-67315000D01*
X163899852Y-67092361D01*
X163845431Y-66875702D01*
X163795140Y-66760041D01*
X163786320Y-66689596D01*
X163816987Y-66625564D01*
X163877403Y-66588276D01*
X163910690Y-66583800D01*
X165148031Y-66583800D01*
X165216152Y-66603802D01*
X165262645Y-66657458D01*
X165272749Y-66727732D01*
X165243255Y-66792312D01*
X165234284Y-66801650D01*
X165183361Y-66849470D01*
X165172767Y-66859418D01*
X165170243Y-66862469D01*
X165170242Y-66862470D01*
X165079895Y-66971680D01*
X164971568Y-67102625D01*
X164857927Y-67281695D01*
X164813505Y-67351693D01*
X164802438Y-67369131D01*
X164800754Y-67372710D01*
X164800750Y-67372717D01*
X164672927Y-67644357D01*
X164668044Y-67654734D01*
X164666818Y-67658506D01*
X164666818Y-67658507D01*
X164645980Y-67722639D01*
X164570505Y-67954928D01*
X164511359Y-68264980D01*
X164491540Y-68580000D01*
X164511359Y-68895020D01*
X164570505Y-69205072D01*
X164617139Y-69348596D01*
X164635791Y-69406000D01*
X164668044Y-69505266D01*
X164669731Y-69508852D01*
X164669733Y-69508856D01*
X164800750Y-69787283D01*
X164800754Y-69787290D01*
X164802438Y-69790869D01*
X164971568Y-70057375D01*
X165172767Y-70300582D01*
X165402860Y-70516654D01*
X165658221Y-70702184D01*
X165934821Y-70854247D01*
X165938490Y-70855700D01*
X165938495Y-70855702D01*
X166224628Y-70968990D01*
X166228298Y-70970443D01*
X166232120Y-70971424D01*
X166232119Y-70971424D01*
X166339357Y-70998958D01*
X166400363Y-71035273D01*
X166432052Y-71098805D01*
X166424362Y-71169384D01*
X166379735Y-71224601D01*
X166308022Y-71247000D01*
X158114000Y-71247000D01*
X158045879Y-71226998D01*
X157999386Y-71173342D01*
X157988000Y-71121000D01*
X157988000Y-67582966D01*
X158683257Y-67582966D01*
X158713565Y-67717446D01*
X158716645Y-67727275D01*
X158796770Y-67924603D01*
X158801413Y-67933794D01*
X158912694Y-68115388D01*
X158918777Y-68123699D01*
X159058213Y-68284667D01*
X159065580Y-68291883D01*
X159229434Y-68427916D01*
X159237881Y-68433831D01*
X159421756Y-68541279D01*
X159431042Y-68545729D01*
X159630001Y-68621703D01*
X159639899Y-68624579D01*
X159743250Y-68645606D01*
X159757299Y-68644410D01*
X159761000Y-68634065D01*
X159761000Y-67587115D01*
X159756525Y-67571876D01*
X159755135Y-67570671D01*
X159747452Y-67569000D01*
X158698225Y-67569000D01*
X158684694Y-67572973D01*
X158683257Y-67582966D01*
X157988000Y-67582966D01*
X157988000Y-47756851D01*
X158008002Y-47688730D01*
X158061658Y-47642237D01*
X158131932Y-47632133D01*
X158196512Y-47661627D01*
G37*
G04 #@! TD.AperFunction*
G04 #@! TA.AperFunction,Conductor*
G36*
X218509121Y-17038002D02*
G01*
X218555614Y-17091658D01*
X218567000Y-17144000D01*
X218567000Y-71121000D01*
X218546998Y-71189121D01*
X218493342Y-71235614D01*
X218441000Y-71247000D01*
X209611978Y-71247000D01*
X209543857Y-71226998D01*
X209497364Y-71173342D01*
X209487260Y-71103068D01*
X209516754Y-71038488D01*
X209580643Y-70998958D01*
X209687881Y-70971424D01*
X209687880Y-70971424D01*
X209691702Y-70970443D01*
X209695372Y-70968990D01*
X209981505Y-70855702D01*
X209981510Y-70855700D01*
X209985179Y-70854247D01*
X210261779Y-70702184D01*
X210517140Y-70516654D01*
X210747233Y-70300582D01*
X210948432Y-70057375D01*
X211117562Y-69790869D01*
X211119246Y-69787290D01*
X211119250Y-69787283D01*
X211250267Y-69508856D01*
X211250269Y-69508852D01*
X211251956Y-69505266D01*
X211284210Y-69406000D01*
X211302861Y-69348596D01*
X211349495Y-69205072D01*
X211408641Y-68895020D01*
X211428460Y-68580000D01*
X211408641Y-68264980D01*
X211349495Y-67954928D01*
X211274020Y-67722639D01*
X211253182Y-67658507D01*
X211253182Y-67658506D01*
X211251956Y-67654734D01*
X211247073Y-67644357D01*
X211119250Y-67372717D01*
X211119246Y-67372710D01*
X211117562Y-67369131D01*
X211106496Y-67351693D01*
X211062073Y-67281695D01*
X210948432Y-67102625D01*
X210840105Y-66971680D01*
X210749758Y-66862470D01*
X210749757Y-66862469D01*
X210747233Y-66859418D01*
X210744342Y-66856703D01*
X210712339Y-66826650D01*
X210676373Y-66765437D01*
X210679212Y-66694497D01*
X210719952Y-66636353D01*
X210785661Y-66609465D01*
X210798592Y-66608800D01*
X212024210Y-66608800D01*
X212092331Y-66628802D01*
X212138824Y-66682458D01*
X212148928Y-66752732D01*
X212138498Y-66787850D01*
X212103861Y-66862470D01*
X212100688Y-66869305D01*
X212040989Y-67084570D01*
X212017251Y-67306695D01*
X212017548Y-67311848D01*
X212017548Y-67311851D01*
X212028785Y-67506737D01*
X212030110Y-67529715D01*
X212031247Y-67534761D01*
X212031248Y-67534767D01*
X212043972Y-67591224D01*
X212079222Y-67747639D01*
X212163266Y-67954616D01*
X212181865Y-67984967D01*
X212261971Y-68115688D01*
X212279987Y-68145088D01*
X212426250Y-68313938D01*
X212598126Y-68456632D01*
X212791000Y-68569338D01*
X212795825Y-68571180D01*
X212795826Y-68571181D01*
X212868612Y-68598975D01*
X212999692Y-68649030D01*
X213004760Y-68650061D01*
X213004763Y-68650062D01*
X213099862Y-68669410D01*
X213218597Y-68693567D01*
X213223772Y-68693757D01*
X213223774Y-68693757D01*
X213436673Y-68701564D01*
X213436677Y-68701564D01*
X213441837Y-68701753D01*
X213446957Y-68701097D01*
X213446959Y-68701097D01*
X213658288Y-68674025D01*
X213658289Y-68674025D01*
X213663416Y-68673368D01*
X213668366Y-68671883D01*
X213872429Y-68610661D01*
X213872434Y-68610659D01*
X213877384Y-68609174D01*
X214077994Y-68510896D01*
X214259860Y-68381173D01*
X214282320Y-68358792D01*
X214341209Y-68300107D01*
X214418096Y-68223489D01*
X214433673Y-68201812D01*
X214548453Y-68042077D01*
X214549640Y-68042930D01*
X214596960Y-67999362D01*
X214666897Y-67987145D01*
X214732338Y-68014678D01*
X214760166Y-68046511D01*
X214817694Y-68140388D01*
X214823777Y-68148699D01*
X214963213Y-68309667D01*
X214970580Y-68316883D01*
X215134434Y-68452916D01*
X215142881Y-68458831D01*
X215326756Y-68566279D01*
X215336042Y-68570729D01*
X215535001Y-68646703D01*
X215544899Y-68649579D01*
X215648250Y-68670606D01*
X215662299Y-68669410D01*
X215666000Y-68659065D01*
X215666000Y-68658517D01*
X216174000Y-68658517D01*
X216178064Y-68672359D01*
X216191478Y-68674393D01*
X216198184Y-68673534D01*
X216208262Y-68671392D01*
X216412255Y-68610191D01*
X216421842Y-68606433D01*
X216613095Y-68512739D01*
X216621945Y-68507464D01*
X216795328Y-68383792D01*
X216803200Y-68377139D01*
X216954052Y-68226812D01*
X216960730Y-68218965D01*
X217085003Y-68046020D01*
X217090313Y-68037183D01*
X217184670Y-67846267D01*
X217188469Y-67836672D01*
X217250377Y-67632910D01*
X217252555Y-67622837D01*
X217253986Y-67611962D01*
X217251775Y-67597778D01*
X217238617Y-67594000D01*
X216192115Y-67594000D01*
X216176876Y-67598475D01*
X216175671Y-67599865D01*
X216174000Y-67607548D01*
X216174000Y-68658517D01*
X215666000Y-68658517D01*
X215666000Y-67212000D01*
X215686002Y-67143879D01*
X215739658Y-67097386D01*
X215792000Y-67086000D01*
X217238344Y-67086000D01*
X217251875Y-67082027D01*
X217253180Y-67072947D01*
X217211214Y-66905875D01*
X217207894Y-66896124D01*
X217122972Y-66700814D01*
X217118105Y-66691739D01*
X217002426Y-66512926D01*
X216996136Y-66504757D01*
X216852806Y-66347240D01*
X216845273Y-66340215D01*
X216678139Y-66208222D01*
X216669556Y-66202520D01*
X216632602Y-66182120D01*
X216582631Y-66131687D01*
X216567859Y-66062245D01*
X216592975Y-65995839D01*
X216620327Y-65969232D01*
X216668635Y-65934774D01*
X216799860Y-65841173D01*
X216958096Y-65683489D01*
X217088453Y-65502077D01*
X217134396Y-65409119D01*
X217185136Y-65306453D01*
X217185137Y-65306451D01*
X217187430Y-65301811D01*
X217245836Y-65109574D01*
X217250865Y-65093023D01*
X217250865Y-65093021D01*
X217252370Y-65088069D01*
X217281529Y-64866590D01*
X217282134Y-64841817D01*
X217283074Y-64803365D01*
X217283074Y-64803361D01*
X217283156Y-64800000D01*
X217264852Y-64577361D01*
X217210431Y-64360702D01*
X217121354Y-64155840D01*
X217066908Y-64071679D01*
X217002822Y-63972617D01*
X217002818Y-63972612D01*
X217000014Y-63968277D01*
X216849670Y-63803051D01*
X216845619Y-63799852D01*
X216845615Y-63799848D01*
X216678414Y-63667800D01*
X216678410Y-63667798D01*
X216674359Y-63664598D01*
X216633053Y-63641796D01*
X216583084Y-63591364D01*
X216568312Y-63521921D01*
X216593428Y-63455516D01*
X216620780Y-63428909D01*
X216669053Y-63394476D01*
X216799860Y-63301173D01*
X216958096Y-63143489D01*
X216987509Y-63102557D01*
X217085435Y-62966277D01*
X217088453Y-62962077D01*
X217091795Y-62955316D01*
X217185136Y-62766453D01*
X217185137Y-62766451D01*
X217187430Y-62761811D01*
X217252370Y-62548069D01*
X217281529Y-62326590D01*
X217281611Y-62323240D01*
X217283074Y-62263365D01*
X217283074Y-62263361D01*
X217283156Y-62260000D01*
X217264852Y-62037361D01*
X217210431Y-61820702D01*
X217121354Y-61615840D01*
X217067150Y-61532054D01*
X217002822Y-61432617D01*
X217002820Y-61432614D01*
X217000014Y-61428277D01*
X216849670Y-61263051D01*
X216845619Y-61259852D01*
X216845615Y-61259848D01*
X216678414Y-61127800D01*
X216678410Y-61127798D01*
X216674359Y-61124598D01*
X216633053Y-61101796D01*
X216583084Y-61051364D01*
X216568312Y-60981921D01*
X216593428Y-60915516D01*
X216620780Y-60888909D01*
X216669436Y-60854203D01*
X216799860Y-60761173D01*
X216822320Y-60738792D01*
X216918326Y-60643120D01*
X216958096Y-60603489D01*
X216973673Y-60581812D01*
X217085435Y-60426277D01*
X217088453Y-60422077D01*
X217093356Y-60412158D01*
X217185136Y-60226453D01*
X217185137Y-60226451D01*
X217187430Y-60221811D01*
X217252370Y-60008069D01*
X217281529Y-59786590D01*
X217281699Y-59779644D01*
X217283074Y-59723365D01*
X217283074Y-59723361D01*
X217283156Y-59720000D01*
X217264852Y-59497361D01*
X217210431Y-59280702D01*
X217121354Y-59075840D01*
X217070895Y-58997842D01*
X217002822Y-58892617D01*
X217002820Y-58892614D01*
X217000014Y-58888277D01*
X216849670Y-58723051D01*
X216845619Y-58719852D01*
X216845615Y-58719848D01*
X216678414Y-58587800D01*
X216678410Y-58587798D01*
X216674359Y-58584598D01*
X216633053Y-58561796D01*
X216583084Y-58511364D01*
X216568312Y-58441921D01*
X216593428Y-58375516D01*
X216620780Y-58348909D01*
X216669053Y-58314476D01*
X216799860Y-58221173D01*
X216867367Y-58153902D01*
X216914175Y-58107257D01*
X216958096Y-58063489D01*
X216970019Y-58046897D01*
X217085435Y-57886277D01*
X217088453Y-57882077D01*
X217109320Y-57839857D01*
X217185136Y-57686453D01*
X217185137Y-57686451D01*
X217187430Y-57681811D01*
X217252370Y-57468069D01*
X217281529Y-57246590D01*
X217283156Y-57180000D01*
X217264852Y-56957361D01*
X217210431Y-56740702D01*
X217121354Y-56535840D01*
X217000014Y-56348277D01*
X216849670Y-56183051D01*
X216845619Y-56179852D01*
X216845615Y-56179848D01*
X216678414Y-56047800D01*
X216678410Y-56047798D01*
X216674359Y-56044598D01*
X216633053Y-56021796D01*
X216583084Y-55971364D01*
X216568312Y-55901921D01*
X216593428Y-55835516D01*
X216620780Y-55808909D01*
X216678251Y-55767915D01*
X216799860Y-55681173D01*
X216843552Y-55637634D01*
X216905976Y-55575427D01*
X216958096Y-55523489D01*
X216961149Y-55519241D01*
X217085435Y-55346277D01*
X217088453Y-55342077D01*
X217095057Y-55328716D01*
X217185136Y-55146453D01*
X217185137Y-55146451D01*
X217187430Y-55141811D01*
X217252370Y-54928069D01*
X217281529Y-54706590D01*
X217281699Y-54699644D01*
X217283074Y-54643365D01*
X217283074Y-54643361D01*
X217283156Y-54640000D01*
X217264852Y-54417361D01*
X217210431Y-54200702D01*
X217121354Y-53995840D01*
X217063433Y-53906308D01*
X217002822Y-53812617D01*
X217002820Y-53812614D01*
X217000014Y-53808277D01*
X216849670Y-53643051D01*
X216845619Y-53639852D01*
X216845615Y-53639848D01*
X216678414Y-53507800D01*
X216678410Y-53507798D01*
X216674359Y-53504598D01*
X216633053Y-53481796D01*
X216583084Y-53431364D01*
X216568312Y-53361921D01*
X216593428Y-53295516D01*
X216620780Y-53268909D01*
X216669053Y-53234476D01*
X216799860Y-53141173D01*
X216815450Y-53125638D01*
X216939841Y-53001680D01*
X216958096Y-52983489D01*
X216967208Y-52970809D01*
X217085435Y-52806277D01*
X217088453Y-52802077D01*
X217108283Y-52761955D01*
X217185136Y-52606453D01*
X217185137Y-52606451D01*
X217187430Y-52601811D01*
X217241341Y-52424371D01*
X217250865Y-52393023D01*
X217250865Y-52393021D01*
X217252370Y-52388069D01*
X217281529Y-52166590D01*
X217281611Y-52163240D01*
X217283074Y-52103365D01*
X217283074Y-52103361D01*
X217283156Y-52100000D01*
X217264852Y-51877361D01*
X217210431Y-51660702D01*
X217121354Y-51455840D01*
X217000014Y-51268277D01*
X216849670Y-51103051D01*
X216845619Y-51099852D01*
X216845615Y-51099848D01*
X216678414Y-50967800D01*
X216678410Y-50967798D01*
X216674359Y-50964598D01*
X216632569Y-50941529D01*
X216582598Y-50891097D01*
X216567826Y-50821654D01*
X216592942Y-50755248D01*
X216620294Y-50728641D01*
X216795328Y-50603792D01*
X216803200Y-50597139D01*
X216954052Y-50446812D01*
X216960730Y-50438965D01*
X217085003Y-50266020D01*
X217090313Y-50257183D01*
X217184670Y-50066267D01*
X217188469Y-50056672D01*
X217250377Y-49852910D01*
X217252555Y-49842837D01*
X217253986Y-49831962D01*
X217251775Y-49817778D01*
X217238617Y-49814000D01*
X215792000Y-49814000D01*
X215723879Y-49793998D01*
X215677386Y-49740342D01*
X215666000Y-49688000D01*
X215666000Y-49432000D01*
X215686002Y-49363879D01*
X215739658Y-49317386D01*
X215792000Y-49306000D01*
X217238344Y-49306000D01*
X217251875Y-49302027D01*
X217253180Y-49292947D01*
X217211214Y-49125875D01*
X217207894Y-49116124D01*
X217122972Y-48920814D01*
X217118105Y-48911739D01*
X217002426Y-48732926D01*
X216992982Y-48720662D01*
X216994846Y-48719227D01*
X216968090Y-48664217D01*
X216976484Y-48593718D01*
X217003240Y-48554166D01*
X217491158Y-48066248D01*
X217499438Y-48058713D01*
X217505918Y-48054600D01*
X217552544Y-48004948D01*
X217555298Y-48002107D01*
X217575035Y-47982370D01*
X217577515Y-47979173D01*
X217585220Y-47970151D01*
X217591271Y-47963707D01*
X217615486Y-47937921D01*
X217619305Y-47930975D01*
X217619307Y-47930972D01*
X217625248Y-47920166D01*
X217636099Y-47903647D01*
X217643658Y-47893901D01*
X217648514Y-47887641D01*
X217651659Y-47880372D01*
X217651662Y-47880368D01*
X217666074Y-47847063D01*
X217671291Y-47836413D01*
X217692595Y-47797660D01*
X217697633Y-47778037D01*
X217704037Y-47759334D01*
X217708933Y-47748020D01*
X217708933Y-47748019D01*
X217712081Y-47740745D01*
X217713320Y-47732922D01*
X217713323Y-47732912D01*
X217718999Y-47697076D01*
X217721405Y-47685456D01*
X217730428Y-47650311D01*
X217730428Y-47650310D01*
X217732400Y-47642630D01*
X217732400Y-47622376D01*
X217733951Y-47602665D01*
X217735880Y-47590486D01*
X217737120Y-47582657D01*
X217732959Y-47538638D01*
X217732400Y-47526781D01*
X217732400Y-44005668D01*
X217732927Y-43994485D01*
X217734602Y-43986992D01*
X217734240Y-43975458D01*
X217732462Y-43918902D01*
X217732400Y-43914944D01*
X217732400Y-43887044D01*
X217731896Y-43883053D01*
X217730963Y-43871211D01*
X217730245Y-43848342D01*
X217729574Y-43827011D01*
X217727362Y-43819397D01*
X217727361Y-43819392D01*
X217723923Y-43807559D01*
X217719912Y-43788195D01*
X217718367Y-43775964D01*
X217717374Y-43768103D01*
X217714457Y-43760736D01*
X217714456Y-43760731D01*
X217701098Y-43726992D01*
X217697254Y-43715765D01*
X217687130Y-43680922D01*
X217684918Y-43673307D01*
X217674607Y-43655872D01*
X217665912Y-43638124D01*
X217658452Y-43619283D01*
X217632464Y-43583513D01*
X217625948Y-43573593D01*
X217607480Y-43542365D01*
X217607478Y-43542362D01*
X217603442Y-43535538D01*
X217589121Y-43521217D01*
X217576280Y-43506183D01*
X217569031Y-43496206D01*
X217564372Y-43489793D01*
X217558267Y-43484742D01*
X217558262Y-43484737D01*
X217530296Y-43461601D01*
X217521518Y-43453613D01*
X217005899Y-42937994D01*
X216971873Y-42875682D01*
X216976938Y-42804867D01*
X216992671Y-42775373D01*
X217085435Y-42646277D01*
X217088453Y-42642077D01*
X217094587Y-42629667D01*
X217185136Y-42446453D01*
X217185137Y-42446451D01*
X217187430Y-42441811D01*
X217252370Y-42228069D01*
X217281529Y-42006590D01*
X217283156Y-41940000D01*
X217264852Y-41717361D01*
X217210431Y-41500702D01*
X217121354Y-41295840D01*
X217000014Y-41108277D01*
X216849670Y-40943051D01*
X216845619Y-40939852D01*
X216845615Y-40939848D01*
X216678414Y-40807800D01*
X216678410Y-40807798D01*
X216674359Y-40804598D01*
X216633053Y-40781796D01*
X216583084Y-40731364D01*
X216568312Y-40661921D01*
X216593428Y-40595516D01*
X216620780Y-40568909D01*
X216669053Y-40534476D01*
X216799860Y-40441173D01*
X216958096Y-40283489D01*
X217008313Y-40213605D01*
X217085435Y-40106277D01*
X217088453Y-40102077D01*
X217093991Y-40090873D01*
X217185136Y-39906453D01*
X217185137Y-39906451D01*
X217187430Y-39901811D01*
X217248956Y-39699306D01*
X217250865Y-39693023D01*
X217250865Y-39693021D01*
X217252370Y-39688069D01*
X217281529Y-39466590D01*
X217283156Y-39400000D01*
X217264852Y-39177361D01*
X217210431Y-38960702D01*
X217121354Y-38755840D01*
X217000014Y-38568277D01*
X216849670Y-38403051D01*
X216845619Y-38399852D01*
X216845615Y-38399848D01*
X216678414Y-38267800D01*
X216678410Y-38267798D01*
X216674359Y-38264598D01*
X216633053Y-38241796D01*
X216583084Y-38191364D01*
X216568312Y-38121921D01*
X216593428Y-38055516D01*
X216620780Y-38028909D01*
X216669053Y-37994476D01*
X216799860Y-37901173D01*
X216958096Y-37743489D01*
X217088453Y-37562077D01*
X217093991Y-37550873D01*
X217185136Y-37366453D01*
X217185137Y-37366451D01*
X217187430Y-37361811D01*
X217252370Y-37148069D01*
X217281529Y-36926590D01*
X217283156Y-36860000D01*
X217264852Y-36637361D01*
X217210431Y-36420702D01*
X217121354Y-36215840D01*
X217000014Y-36028277D01*
X216849670Y-35863051D01*
X216845619Y-35859852D01*
X216845615Y-35859848D01*
X216678414Y-35727800D01*
X216678410Y-35727798D01*
X216674359Y-35724598D01*
X216633053Y-35701796D01*
X216583084Y-35651364D01*
X216568312Y-35581921D01*
X216593428Y-35515516D01*
X216620780Y-35488909D01*
X216669436Y-35454203D01*
X216799860Y-35361173D01*
X216822320Y-35338792D01*
X216954435Y-35207137D01*
X216958096Y-35203489D01*
X216973673Y-35181812D01*
X217085435Y-35026277D01*
X217088453Y-35022077D01*
X217098618Y-35001511D01*
X217185136Y-34826453D01*
X217185137Y-34826451D01*
X217187430Y-34821811D01*
X217252370Y-34608069D01*
X217281529Y-34386590D01*
X217281611Y-34383240D01*
X217283074Y-34323365D01*
X217283074Y-34323361D01*
X217283156Y-34320000D01*
X217264852Y-34097361D01*
X217210431Y-33880702D01*
X217121354Y-33675840D01*
X217069104Y-33595074D01*
X217002822Y-33492617D01*
X217002820Y-33492614D01*
X217000014Y-33488277D01*
X216849670Y-33323051D01*
X216845619Y-33319852D01*
X216845615Y-33319848D01*
X216678414Y-33187800D01*
X216678410Y-33187798D01*
X216674359Y-33184598D01*
X216633053Y-33161796D01*
X216583084Y-33111364D01*
X216568312Y-33041921D01*
X216593428Y-32975516D01*
X216620780Y-32948909D01*
X216669053Y-32914476D01*
X216799860Y-32821173D01*
X216958096Y-32663489D01*
X217088453Y-32482077D01*
X217137263Y-32383318D01*
X217185136Y-32286453D01*
X217185137Y-32286451D01*
X217187430Y-32281811D01*
X217252370Y-32068069D01*
X217281529Y-31846590D01*
X217283156Y-31780000D01*
X217264852Y-31557361D01*
X217210431Y-31340702D01*
X217121354Y-31135840D01*
X217000014Y-30948277D01*
X216849670Y-30783051D01*
X216845619Y-30779852D01*
X216845615Y-30779848D01*
X216678414Y-30647800D01*
X216678410Y-30647798D01*
X216674359Y-30644598D01*
X216632569Y-30621529D01*
X216582598Y-30571097D01*
X216567826Y-30501654D01*
X216592942Y-30435248D01*
X216620294Y-30408641D01*
X216795328Y-30283792D01*
X216803200Y-30277139D01*
X216954052Y-30126812D01*
X216960730Y-30118965D01*
X217085003Y-29946020D01*
X217090313Y-29937183D01*
X217184670Y-29746267D01*
X217188469Y-29736672D01*
X217250377Y-29532910D01*
X217252555Y-29522837D01*
X217253986Y-29511962D01*
X217251775Y-29497778D01*
X217238617Y-29494000D01*
X215792000Y-29494000D01*
X215723879Y-29473998D01*
X215677386Y-29420342D01*
X215666000Y-29368000D01*
X215666000Y-29112000D01*
X215686002Y-29043879D01*
X215739658Y-28997386D01*
X215792000Y-28986000D01*
X217238344Y-28986000D01*
X217251875Y-28982027D01*
X217253180Y-28972947D01*
X217211214Y-28805875D01*
X217207894Y-28796124D01*
X217122972Y-28600814D01*
X217118105Y-28591739D01*
X217002426Y-28412926D01*
X216996136Y-28404757D01*
X216852806Y-28247240D01*
X216845273Y-28240215D01*
X216678139Y-28108222D01*
X216669556Y-28102520D01*
X216632602Y-28082120D01*
X216582631Y-28031687D01*
X216567859Y-27962245D01*
X216592975Y-27895839D01*
X216620327Y-27869232D01*
X216668635Y-27834774D01*
X216799860Y-27741173D01*
X216859036Y-27682204D01*
X216954435Y-27587137D01*
X216958096Y-27583489D01*
X216976073Y-27558472D01*
X217085435Y-27406277D01*
X217088453Y-27402077D01*
X217133025Y-27311893D01*
X217185136Y-27206453D01*
X217185137Y-27206451D01*
X217187430Y-27201811D01*
X217252370Y-26988069D01*
X217281529Y-26766590D01*
X217281611Y-26763240D01*
X217283074Y-26703365D01*
X217283074Y-26703361D01*
X217283156Y-26700000D01*
X217264852Y-26477361D01*
X217210431Y-26260702D01*
X217121354Y-26055840D01*
X217000014Y-25868277D01*
X216849670Y-25703051D01*
X216845619Y-25699852D01*
X216845615Y-25699848D01*
X216678414Y-25567800D01*
X216678410Y-25567798D01*
X216674359Y-25564598D01*
X216633053Y-25541796D01*
X216583084Y-25491364D01*
X216568312Y-25421921D01*
X216593428Y-25355516D01*
X216620780Y-25328909D01*
X216669053Y-25294476D01*
X216799860Y-25201173D01*
X216958096Y-25043489D01*
X217088453Y-24862077D01*
X217144035Y-24749616D01*
X217185136Y-24666453D01*
X217185137Y-24666451D01*
X217187430Y-24661811D01*
X217227737Y-24529145D01*
X217250865Y-24453023D01*
X217250865Y-24453021D01*
X217252370Y-24448069D01*
X217281529Y-24226590D01*
X217283156Y-24160000D01*
X217264852Y-23937361D01*
X217210431Y-23720702D01*
X217121354Y-23515840D01*
X217051136Y-23407299D01*
X217002822Y-23332617D01*
X217002820Y-23332614D01*
X217000014Y-23328277D01*
X216849670Y-23163051D01*
X216845619Y-23159852D01*
X216845615Y-23159848D01*
X216678414Y-23027800D01*
X216678410Y-23027798D01*
X216674359Y-23024598D01*
X216633053Y-23001796D01*
X216583084Y-22951364D01*
X216568312Y-22881921D01*
X216593428Y-22815516D01*
X216620780Y-22788909D01*
X216669053Y-22754476D01*
X216799860Y-22661173D01*
X216958096Y-22503489D01*
X217088453Y-22322077D01*
X217144035Y-22209616D01*
X217185136Y-22126453D01*
X217185137Y-22126451D01*
X217187430Y-22121811D01*
X217252370Y-21908069D01*
X217281529Y-21686590D01*
X217282321Y-21654167D01*
X217283074Y-21623365D01*
X217283074Y-21623361D01*
X217283156Y-21620000D01*
X217264852Y-21397361D01*
X217210431Y-21180702D01*
X217121354Y-20975840D01*
X217007637Y-20800060D01*
X217002822Y-20792617D01*
X217002820Y-20792614D01*
X217000014Y-20788277D01*
X216981215Y-20767617D01*
X216852798Y-20626488D01*
X216821746Y-20562642D01*
X216830141Y-20492143D01*
X216875317Y-20437375D01*
X216901761Y-20423706D01*
X217008297Y-20383767D01*
X217016705Y-20380615D01*
X217133261Y-20293261D01*
X217220615Y-20176705D01*
X217271745Y-20040316D01*
X217278500Y-19978134D01*
X217278500Y-18181866D01*
X217271745Y-18119684D01*
X217220615Y-17983295D01*
X217133261Y-17866739D01*
X217016705Y-17779385D01*
X216880316Y-17728255D01*
X216818134Y-17721500D01*
X215021866Y-17721500D01*
X214959684Y-17728255D01*
X214823295Y-17779385D01*
X214706739Y-17866739D01*
X214619385Y-17983295D01*
X214616233Y-17991703D01*
X214574919Y-18101907D01*
X214532277Y-18158671D01*
X214465716Y-18183371D01*
X214396367Y-18168163D01*
X214363743Y-18142476D01*
X214313151Y-18086875D01*
X214313142Y-18086866D01*
X214309670Y-18083051D01*
X214305619Y-18079852D01*
X214305615Y-18079848D01*
X214138414Y-17947800D01*
X214138410Y-17947798D01*
X214134359Y-17944598D01*
X213938789Y-17836638D01*
X213933920Y-17834914D01*
X213933916Y-17834912D01*
X213733087Y-17763795D01*
X213733083Y-17763794D01*
X213728212Y-17762069D01*
X213723119Y-17761162D01*
X213723116Y-17761161D01*
X213513373Y-17723800D01*
X213513367Y-17723799D01*
X213508284Y-17722894D01*
X213434452Y-17721992D01*
X213290081Y-17720228D01*
X213290079Y-17720228D01*
X213284911Y-17720165D01*
X213064091Y-17753955D01*
X212851756Y-17823357D01*
X212653607Y-17926507D01*
X212649474Y-17929610D01*
X212649471Y-17929612D01*
X212479100Y-18057530D01*
X212474965Y-18060635D01*
X212371617Y-18168782D01*
X212310095Y-18204211D01*
X212239183Y-18200754D01*
X212191429Y-18170825D01*
X211805376Y-17784771D01*
X211349447Y-17328842D01*
X211341913Y-17320563D01*
X211337800Y-17314082D01*
X211288148Y-17267456D01*
X211285307Y-17264702D01*
X211265570Y-17244965D01*
X211262438Y-17242536D01*
X211259469Y-17239918D01*
X211260379Y-17238886D01*
X211222188Y-17185993D01*
X211218343Y-17115101D01*
X211253436Y-17053384D01*
X211316325Y-17020437D01*
X211340984Y-17018000D01*
X218441000Y-17018000D01*
X218509121Y-17038002D01*
G37*
G04 #@! TD.AperFunction*
G04 #@! TA.AperFunction,Conductor*
G36*
X206511240Y-60332927D02*
G01*
X206576193Y-60333112D01*
X206635810Y-60371666D01*
X206665119Y-60436331D01*
X206654359Y-60507555D01*
X206589877Y-60644587D01*
X206578044Y-60669734D01*
X206576818Y-60673506D01*
X206576818Y-60673507D01*
X206567575Y-60701955D01*
X206480505Y-60969928D01*
X206421359Y-61279980D01*
X206401540Y-61595000D01*
X206421359Y-61910020D01*
X206480505Y-62220072D01*
X206500964Y-62283039D01*
X206566000Y-62483197D01*
X206578044Y-62520266D01*
X206579731Y-62523852D01*
X206579733Y-62523856D01*
X206710750Y-62802283D01*
X206710754Y-62802290D01*
X206712438Y-62805869D01*
X206881568Y-63072375D01*
X207082767Y-63315582D01*
X207085657Y-63318296D01*
X207085658Y-63318297D01*
X207106708Y-63338064D01*
X207312860Y-63531654D01*
X207568221Y-63717184D01*
X207571690Y-63719091D01*
X207571693Y-63719093D01*
X207838249Y-63865634D01*
X207844821Y-63869247D01*
X207848490Y-63870700D01*
X207848495Y-63870702D01*
X208105903Y-63972617D01*
X208138298Y-63985443D01*
X208142113Y-63986423D01*
X208142133Y-63986429D01*
X208352626Y-64040474D01*
X208413632Y-64076788D01*
X208445321Y-64140320D01*
X208437631Y-64210899D01*
X208410386Y-64251610D01*
X206887606Y-65774389D01*
X205374447Y-67287548D01*
X205366161Y-67295088D01*
X205359682Y-67299200D01*
X205354257Y-67304977D01*
X205313057Y-67348851D01*
X205310302Y-67351693D01*
X205290565Y-67371430D01*
X205288085Y-67374627D01*
X205280382Y-67383647D01*
X205250114Y-67415879D01*
X205246295Y-67422825D01*
X205246293Y-67422828D01*
X205240352Y-67433634D01*
X205229501Y-67450153D01*
X205217086Y-67466159D01*
X205213941Y-67473428D01*
X205213938Y-67473432D01*
X205199526Y-67506737D01*
X205194309Y-67517387D01*
X205173005Y-67556140D01*
X205171034Y-67563815D01*
X205171034Y-67563816D01*
X205167967Y-67575762D01*
X205161563Y-67594466D01*
X205153519Y-67613055D01*
X205152280Y-67620878D01*
X205152277Y-67620888D01*
X205146601Y-67656724D01*
X205144195Y-67668344D01*
X205135172Y-67703489D01*
X205133200Y-67711170D01*
X205133200Y-67731424D01*
X205131649Y-67751134D01*
X205128480Y-67771143D01*
X205129226Y-67779035D01*
X205132641Y-67815161D01*
X205133200Y-67827019D01*
X205133200Y-69470800D01*
X205113198Y-69538921D01*
X205059542Y-69585414D01*
X205007200Y-69596800D01*
X187472730Y-69596800D01*
X187404609Y-69576798D01*
X187358116Y-69523142D01*
X187348012Y-69452868D01*
X187377506Y-69388288D01*
X187442034Y-69348596D01*
X187499932Y-69334053D01*
X187499933Y-69334053D01*
X187504944Y-69332794D01*
X187633771Y-69276779D01*
X187720526Y-69239057D01*
X187720529Y-69239055D01*
X187725263Y-69236997D01*
X187926977Y-69106502D01*
X188104670Y-68944814D01*
X188165347Y-68867983D01*
X188250367Y-68760330D01*
X188250370Y-68760325D01*
X188253568Y-68756276D01*
X188267885Y-68730342D01*
X188367177Y-68550474D01*
X188367179Y-68550470D01*
X188369674Y-68545950D01*
X188382088Y-68510896D01*
X188448144Y-68324360D01*
X188448145Y-68324356D01*
X188449870Y-68319485D01*
X188455183Y-68289659D01*
X188491095Y-68088052D01*
X188491096Y-68088046D01*
X188492001Y-68082963D01*
X188493785Y-67936961D01*
X188494873Y-67847907D01*
X188494873Y-67847905D01*
X188494936Y-67842737D01*
X188458596Y-67605256D01*
X188415510Y-67473432D01*
X188385566Y-67381817D01*
X188385563Y-67381811D01*
X188383958Y-67376899D01*
X188379915Y-67369131D01*
X188275416Y-67168393D01*
X188273025Y-67163800D01*
X188211628Y-67082027D01*
X188131882Y-66975815D01*
X188131880Y-66975812D01*
X188128777Y-66971680D01*
X187955088Y-66805699D01*
X187918097Y-66780465D01*
X187873096Y-66725556D01*
X187864925Y-66655032D01*
X187896179Y-66591284D01*
X187920660Y-66570589D01*
X187922635Y-66569311D01*
X187926977Y-66566502D01*
X188104670Y-66404814D01*
X188207315Y-66274843D01*
X188250367Y-66220330D01*
X188250370Y-66220325D01*
X188253568Y-66216276D01*
X188268054Y-66190036D01*
X188367177Y-66010474D01*
X188367179Y-66010470D01*
X188369674Y-66005950D01*
X188373655Y-65994710D01*
X188448144Y-65784360D01*
X188448145Y-65784356D01*
X188449870Y-65779485D01*
X188454723Y-65752240D01*
X188491095Y-65548052D01*
X188491096Y-65548046D01*
X188492001Y-65542963D01*
X188493686Y-65405000D01*
X201381654Y-65405000D01*
X201381924Y-65409119D01*
X201399907Y-65683489D01*
X201401017Y-65700426D01*
X201401819Y-65704459D01*
X201401820Y-65704465D01*
X201457970Y-65986747D01*
X201458776Y-65990797D01*
X201460103Y-65994706D01*
X201460104Y-65994710D01*
X201536692Y-66220330D01*
X201553941Y-66271145D01*
X201579138Y-66322240D01*
X201670882Y-66508277D01*
X201684885Y-66536673D01*
X201704816Y-66566502D01*
X201829251Y-66752732D01*
X201849367Y-66782838D01*
X201852081Y-66785932D01*
X201852085Y-66785938D01*
X202018604Y-66975815D01*
X202044573Y-67005427D01*
X202047662Y-67008136D01*
X202264062Y-67197915D01*
X202264068Y-67197919D01*
X202267162Y-67200633D01*
X202270588Y-67202922D01*
X202270593Y-67202926D01*
X202443361Y-67318365D01*
X202513327Y-67365115D01*
X202517026Y-67366939D01*
X202517031Y-67366942D01*
X202547195Y-67381817D01*
X202778855Y-67496059D01*
X202782760Y-67497384D01*
X202782761Y-67497385D01*
X203055290Y-67589896D01*
X203055294Y-67589897D01*
X203059203Y-67591224D01*
X203063247Y-67592028D01*
X203063253Y-67592030D01*
X203345535Y-67648180D01*
X203345541Y-67648181D01*
X203349574Y-67648983D01*
X203353679Y-67649252D01*
X203353686Y-67649253D01*
X203640881Y-67668076D01*
X203645000Y-67668346D01*
X203649119Y-67668076D01*
X203936314Y-67649253D01*
X203936321Y-67649252D01*
X203940426Y-67648983D01*
X203944459Y-67648181D01*
X203944465Y-67648180D01*
X204226747Y-67592030D01*
X204226753Y-67592028D01*
X204230797Y-67591224D01*
X204234706Y-67589897D01*
X204234710Y-67589896D01*
X204507239Y-67497385D01*
X204507240Y-67497384D01*
X204511145Y-67496059D01*
X204742805Y-67381817D01*
X204772969Y-67366942D01*
X204772974Y-67366939D01*
X204776673Y-67365115D01*
X204846639Y-67318365D01*
X205019407Y-67202926D01*
X205019412Y-67202922D01*
X205022838Y-67200633D01*
X205025932Y-67197919D01*
X205025938Y-67197915D01*
X205242338Y-67008136D01*
X205245427Y-67005427D01*
X205271396Y-66975815D01*
X205437915Y-66785938D01*
X205437919Y-66785932D01*
X205440633Y-66782838D01*
X205460750Y-66752732D01*
X205585184Y-66566502D01*
X205605115Y-66536673D01*
X205619119Y-66508277D01*
X205710862Y-66322240D01*
X205736059Y-66271145D01*
X205753308Y-66220330D01*
X205829896Y-65994710D01*
X205829897Y-65994706D01*
X205831224Y-65990797D01*
X205832030Y-65986747D01*
X205888180Y-65704465D01*
X205888181Y-65704459D01*
X205888983Y-65700426D01*
X205890094Y-65683489D01*
X205908076Y-65409119D01*
X205908346Y-65405000D01*
X205903412Y-65329721D01*
X205889253Y-65113686D01*
X205889252Y-65113679D01*
X205888983Y-65109574D01*
X205885761Y-65093373D01*
X205832030Y-64823253D01*
X205832028Y-64823247D01*
X205831224Y-64819203D01*
X205827735Y-64808923D01*
X205737385Y-64542761D01*
X205737384Y-64542760D01*
X205736059Y-64538855D01*
X205634463Y-64332839D01*
X205606942Y-64277031D01*
X205606939Y-64277026D01*
X205605115Y-64273327D01*
X205546860Y-64186142D01*
X205442926Y-64030593D01*
X205442922Y-64030588D01*
X205440633Y-64027162D01*
X205437919Y-64024068D01*
X205437915Y-64024062D01*
X205248136Y-63807662D01*
X205245427Y-63804573D01*
X205242338Y-63801864D01*
X205025938Y-63612085D01*
X205025932Y-63612081D01*
X205022838Y-63609367D01*
X205019412Y-63607078D01*
X205019407Y-63607074D01*
X204835595Y-63484256D01*
X204776673Y-63444885D01*
X204772974Y-63443061D01*
X204772969Y-63443058D01*
X204592867Y-63354242D01*
X204511145Y-63313941D01*
X204507239Y-63312615D01*
X204234710Y-63220104D01*
X204234706Y-63220103D01*
X204230797Y-63218776D01*
X204226753Y-63217972D01*
X204226747Y-63217970D01*
X203944465Y-63161820D01*
X203944459Y-63161819D01*
X203940426Y-63161017D01*
X203936321Y-63160748D01*
X203936314Y-63160747D01*
X203649119Y-63141924D01*
X203645000Y-63141654D01*
X203640881Y-63141924D01*
X203353686Y-63160747D01*
X203353679Y-63160748D01*
X203349574Y-63161017D01*
X203345541Y-63161819D01*
X203345535Y-63161820D01*
X203063253Y-63217970D01*
X203063247Y-63217972D01*
X203059203Y-63218776D01*
X203055294Y-63220103D01*
X203055290Y-63220104D01*
X202782761Y-63312615D01*
X202778855Y-63313941D01*
X202697133Y-63354242D01*
X202517031Y-63443058D01*
X202517026Y-63443061D01*
X202513327Y-63444885D01*
X202454405Y-63484256D01*
X202270593Y-63607074D01*
X202270588Y-63607078D01*
X202267162Y-63609367D01*
X202264068Y-63612081D01*
X202264062Y-63612085D01*
X202047662Y-63801864D01*
X202044573Y-63804573D01*
X202041864Y-63807662D01*
X201852085Y-64024062D01*
X201852081Y-64024068D01*
X201849367Y-64027162D01*
X201847078Y-64030588D01*
X201847074Y-64030593D01*
X201743140Y-64186142D01*
X201684885Y-64273327D01*
X201683061Y-64277026D01*
X201683058Y-64277031D01*
X201655537Y-64332839D01*
X201553941Y-64538855D01*
X201552616Y-64542760D01*
X201552615Y-64542761D01*
X201462266Y-64808923D01*
X201458776Y-64819203D01*
X201457972Y-64823247D01*
X201457970Y-64823253D01*
X201404240Y-65093373D01*
X201401017Y-65109574D01*
X201400748Y-65113679D01*
X201400747Y-65113686D01*
X201386588Y-65329721D01*
X201381654Y-65405000D01*
X188493686Y-65405000D01*
X188494606Y-65329721D01*
X188494873Y-65307907D01*
X188494873Y-65307905D01*
X188494936Y-65302737D01*
X188458596Y-65065256D01*
X188419687Y-64946214D01*
X188385566Y-64841817D01*
X188385563Y-64841811D01*
X188383958Y-64836899D01*
X188380003Y-64829300D01*
X188275416Y-64628393D01*
X188273025Y-64623800D01*
X188156585Y-64468717D01*
X188131680Y-64402235D01*
X188146672Y-64332839D01*
X188196802Y-64282565D01*
X188213115Y-64275085D01*
X188223293Y-64271269D01*
X188223296Y-64271267D01*
X188231705Y-64268115D01*
X188348261Y-64180761D01*
X188435615Y-64064205D01*
X188486745Y-63927816D01*
X188493500Y-63865634D01*
X188493500Y-61864366D01*
X188486745Y-61802184D01*
X188435615Y-61665795D01*
X188348261Y-61549239D01*
X188231705Y-61461885D01*
X188095316Y-61410755D01*
X188033134Y-61404000D01*
X185936866Y-61404000D01*
X185874684Y-61410755D01*
X185738295Y-61461885D01*
X185621739Y-61549239D01*
X185616358Y-61556419D01*
X185616357Y-61556420D01*
X185568997Y-61619612D01*
X185512137Y-61662127D01*
X185441319Y-61667153D01*
X185379076Y-61633142D01*
X184711555Y-60965621D01*
X184702453Y-60955478D01*
X184682597Y-60930782D01*
X184678732Y-60925975D01*
X184640278Y-60893708D01*
X184636631Y-60890528D01*
X184634819Y-60888885D01*
X184632625Y-60886691D01*
X184599351Y-60859358D01*
X184598553Y-60858696D01*
X184527226Y-60798846D01*
X184522556Y-60796278D01*
X184518439Y-60792897D01*
X184436614Y-60749023D01*
X184435455Y-60748394D01*
X184359319Y-60706538D01*
X184359311Y-60706535D01*
X184353913Y-60703567D01*
X184348831Y-60701955D01*
X184344137Y-60699438D01*
X184255169Y-60672238D01*
X184254141Y-60671918D01*
X184165394Y-60643765D01*
X184160098Y-60643171D01*
X184155002Y-60641613D01*
X184062443Y-60632210D01*
X184061307Y-60632089D01*
X184027692Y-60628319D01*
X184014970Y-60626892D01*
X184014966Y-60626892D01*
X184011473Y-60626500D01*
X184007946Y-60626500D01*
X184006961Y-60626445D01*
X184001281Y-60625998D01*
X183971875Y-60623011D01*
X183964363Y-60622248D01*
X183964361Y-60622248D01*
X183958238Y-60621626D01*
X183915959Y-60625623D01*
X183912591Y-60625941D01*
X183900733Y-60626500D01*
X183390740Y-60626500D01*
X183318469Y-60603713D01*
X183267056Y-60567713D01*
X183222728Y-60512256D01*
X183215419Y-60441636D01*
X183247450Y-60378276D01*
X183308651Y-60342291D01*
X183339327Y-60338500D01*
X206317033Y-60338500D01*
X206328216Y-60339027D01*
X206335709Y-60340702D01*
X206343635Y-60340453D01*
X206343636Y-60340453D01*
X206403786Y-60338562D01*
X206407745Y-60338500D01*
X206435656Y-60338500D01*
X206439591Y-60338003D01*
X206439656Y-60337995D01*
X206451493Y-60337062D01*
X206483751Y-60336048D01*
X206487770Y-60335922D01*
X206495689Y-60335673D01*
X206505199Y-60332910D01*
X206506757Y-60332914D01*
X206511128Y-60332222D01*
X206511240Y-60332927D01*
G37*
G04 #@! TD.AperFunction*
G04 #@! TA.AperFunction,Conductor*
G36*
X164567727Y-59173202D02*
G01*
X164588701Y-59190105D01*
X165495843Y-60097247D01*
X165503387Y-60105537D01*
X165507500Y-60112018D01*
X165513277Y-60117443D01*
X165557167Y-60158658D01*
X165560009Y-60161413D01*
X165579730Y-60181134D01*
X165582925Y-60183612D01*
X165591947Y-60191318D01*
X165624179Y-60221586D01*
X165631128Y-60225406D01*
X165641932Y-60231346D01*
X165658456Y-60242199D01*
X165674459Y-60254613D01*
X165715043Y-60272176D01*
X165725673Y-60277383D01*
X165764440Y-60298695D01*
X165772117Y-60300666D01*
X165772122Y-60300668D01*
X165784058Y-60303732D01*
X165802766Y-60310137D01*
X165821355Y-60318181D01*
X165829180Y-60319420D01*
X165829182Y-60319421D01*
X165865019Y-60325097D01*
X165876640Y-60327504D01*
X165908459Y-60335673D01*
X165919470Y-60338500D01*
X165939731Y-60338500D01*
X165959440Y-60340051D01*
X165979443Y-60343219D01*
X165987335Y-60342473D01*
X165992562Y-60341979D01*
X166023454Y-60339059D01*
X166035311Y-60338500D01*
X167575806Y-60338500D01*
X167643927Y-60358502D01*
X167690420Y-60412158D01*
X167700524Y-60482432D01*
X167690000Y-60517751D01*
X167688512Y-60520942D01*
X167684764Y-60531239D01*
X167638606Y-60703503D01*
X167638942Y-60717599D01*
X167646884Y-60721000D01*
X170187967Y-60721000D01*
X170201498Y-60717027D01*
X170202727Y-60708478D01*
X170155236Y-60531239D01*
X170151488Y-60520942D01*
X170150000Y-60517751D01*
X170149766Y-60516211D01*
X170149607Y-60515774D01*
X170149695Y-60515742D01*
X170139338Y-60447559D01*
X170168317Y-60382746D01*
X170227737Y-60343890D01*
X170264194Y-60338500D01*
X181680673Y-60338500D01*
X181748794Y-60358502D01*
X181795287Y-60412158D01*
X181805391Y-60482432D01*
X181775897Y-60547012D01*
X181752944Y-60567713D01*
X181670211Y-60625643D01*
X181670208Y-60625645D01*
X181665700Y-60628802D01*
X181503802Y-60790700D01*
X181500645Y-60795208D01*
X181500643Y-60795211D01*
X181474242Y-60832916D01*
X181372477Y-60978251D01*
X181370154Y-60983233D01*
X181370151Y-60983238D01*
X181278039Y-61180775D01*
X181275716Y-61185757D01*
X181274294Y-61191065D01*
X181274293Y-61191067D01*
X181224435Y-61377138D01*
X181216457Y-61406913D01*
X181196502Y-61635000D01*
X181216457Y-61863087D01*
X181217881Y-61868400D01*
X181217881Y-61868402D01*
X181254368Y-62004570D01*
X181275716Y-62084243D01*
X181278039Y-62089224D01*
X181278039Y-62089225D01*
X181370151Y-62286762D01*
X181370154Y-62286767D01*
X181372477Y-62291749D01*
X181419510Y-62358919D01*
X181486624Y-62454767D01*
X181503802Y-62479300D01*
X181665700Y-62641198D01*
X181681537Y-62652287D01*
X181725865Y-62707743D01*
X181733174Y-62778362D01*
X181701144Y-62841723D01*
X181639943Y-62877708D01*
X181609266Y-62881500D01*
X177759394Y-62881500D01*
X177691273Y-62861498D01*
X177656181Y-62827771D01*
X177549357Y-62675211D01*
X177549355Y-62675208D01*
X177546198Y-62670700D01*
X177384300Y-62508802D01*
X177379792Y-62505645D01*
X177379789Y-62505643D01*
X177292535Y-62444547D01*
X177196749Y-62377477D01*
X177191767Y-62375154D01*
X177191762Y-62375151D01*
X176994225Y-62283039D01*
X176994224Y-62283039D01*
X176989243Y-62280716D01*
X176983935Y-62279294D01*
X176983933Y-62279293D01*
X176773402Y-62222881D01*
X176773400Y-62222881D01*
X176768087Y-62221457D01*
X176540000Y-62201502D01*
X176311913Y-62221457D01*
X176306600Y-62222881D01*
X176306598Y-62222881D01*
X176096067Y-62279293D01*
X176096065Y-62279294D01*
X176090757Y-62280716D01*
X176085776Y-62283039D01*
X176085775Y-62283039D01*
X175888238Y-62375151D01*
X175888233Y-62375154D01*
X175883251Y-62377477D01*
X175787465Y-62444547D01*
X175700211Y-62505643D01*
X175700208Y-62505645D01*
X175695700Y-62508802D01*
X175533802Y-62670700D01*
X175530645Y-62675208D01*
X175530643Y-62675211D01*
X175487510Y-62736811D01*
X175402477Y-62858251D01*
X175400154Y-62863233D01*
X175400151Y-62863238D01*
X175315866Y-63043990D01*
X175305716Y-63065757D01*
X175304294Y-63071065D01*
X175304293Y-63071067D01*
X175259139Y-63239583D01*
X175246457Y-63286913D01*
X175226502Y-63515000D01*
X175246457Y-63743087D01*
X175247881Y-63748400D01*
X175247881Y-63748402D01*
X175303312Y-63955270D01*
X175305716Y-63964243D01*
X175308039Y-63969224D01*
X175308039Y-63969225D01*
X175400151Y-64166762D01*
X175400154Y-64166767D01*
X175402477Y-64171749D01*
X175466182Y-64262729D01*
X175516295Y-64334297D01*
X175533802Y-64359300D01*
X175695700Y-64521198D01*
X175700208Y-64524355D01*
X175700211Y-64524357D01*
X175733037Y-64547342D01*
X175883251Y-64652523D01*
X175888233Y-64654846D01*
X175888238Y-64654849D01*
X176063474Y-64736562D01*
X176090757Y-64749284D01*
X176096065Y-64750706D01*
X176096067Y-64750707D01*
X176306598Y-64807119D01*
X176306600Y-64807119D01*
X176311913Y-64808543D01*
X176540000Y-64828498D01*
X176768087Y-64808543D01*
X176773400Y-64807119D01*
X176773402Y-64807119D01*
X176983933Y-64750707D01*
X176983935Y-64750706D01*
X176989243Y-64749284D01*
X177016526Y-64736562D01*
X177191762Y-64654849D01*
X177191767Y-64654846D01*
X177196749Y-64652523D01*
X177346963Y-64547342D01*
X177379789Y-64524357D01*
X177379792Y-64524355D01*
X177384300Y-64521198D01*
X177546198Y-64359300D01*
X177562722Y-64335702D01*
X177656181Y-64202229D01*
X177711638Y-64157901D01*
X177759394Y-64148500D01*
X182240406Y-64148500D01*
X182308527Y-64168502D01*
X182329501Y-64185405D01*
X185514773Y-67370678D01*
X185548799Y-67432990D01*
X185544451Y-67501832D01*
X185521857Y-67565636D01*
X185521855Y-67565644D01*
X185520130Y-67570515D01*
X185519223Y-67575608D01*
X185519222Y-67575611D01*
X185482987Y-67779035D01*
X185477999Y-67807037D01*
X185477221Y-67870707D01*
X185475379Y-68021511D01*
X185475064Y-68047263D01*
X185511404Y-68284744D01*
X185535730Y-68359171D01*
X185584434Y-68508183D01*
X185584437Y-68508189D01*
X185586042Y-68513101D01*
X185588429Y-68517687D01*
X185588431Y-68517691D01*
X185668699Y-68671883D01*
X185696975Y-68726200D01*
X185700085Y-68730342D01*
X185826656Y-68898918D01*
X185841223Y-68918320D01*
X186014912Y-69084301D01*
X186213378Y-69219686D01*
X186218061Y-69221860D01*
X186218065Y-69221862D01*
X186426595Y-69318658D01*
X186426599Y-69318659D01*
X186431290Y-69320837D01*
X186517108Y-69344636D01*
X186534223Y-69349383D01*
X186594521Y-69386862D01*
X186624984Y-69450991D01*
X186615940Y-69521409D01*
X186570262Y-69575759D01*
X186500551Y-69596800D01*
X178673895Y-69596800D01*
X178605774Y-69576798D01*
X178584800Y-69559895D01*
X175659905Y-66635000D01*
X179396502Y-66635000D01*
X179416457Y-66863087D01*
X179417881Y-66868400D01*
X179417881Y-66868402D01*
X179466322Y-67049183D01*
X179475716Y-67084243D01*
X179478039Y-67089224D01*
X179478039Y-67089225D01*
X179570151Y-67286762D01*
X179570154Y-67286767D01*
X179572477Y-67291749D01*
X179636826Y-67383649D01*
X179694601Y-67466159D01*
X179703802Y-67479300D01*
X179865700Y-67641198D01*
X179870208Y-67644355D01*
X179870211Y-67644357D01*
X179904468Y-67668344D01*
X180053251Y-67772523D01*
X180058233Y-67774846D01*
X180058238Y-67774849D01*
X180255775Y-67866961D01*
X180260757Y-67869284D01*
X180266065Y-67870706D01*
X180266067Y-67870707D01*
X180476598Y-67927119D01*
X180476600Y-67927119D01*
X180481913Y-67928543D01*
X180710000Y-67948498D01*
X180938087Y-67928543D01*
X180943400Y-67927119D01*
X180943402Y-67927119D01*
X181153933Y-67870707D01*
X181153935Y-67870706D01*
X181159243Y-67869284D01*
X181164225Y-67866961D01*
X181361762Y-67774849D01*
X181361767Y-67774846D01*
X181366749Y-67772523D01*
X181515532Y-67668344D01*
X181549789Y-67644357D01*
X181549792Y-67644355D01*
X181554300Y-67641198D01*
X181716198Y-67479300D01*
X181725400Y-67466159D01*
X181783174Y-67383649D01*
X181847523Y-67291749D01*
X181849846Y-67286767D01*
X181849849Y-67286762D01*
X181941961Y-67089225D01*
X181941961Y-67089224D01*
X181944284Y-67084243D01*
X181953679Y-67049183D01*
X182002119Y-66868402D01*
X182002119Y-66868400D01*
X182003543Y-66863087D01*
X182023498Y-66635000D01*
X182003543Y-66406913D01*
X182001502Y-66399297D01*
X181945707Y-66191067D01*
X181945706Y-66191065D01*
X181944284Y-66185757D01*
X181932062Y-66159546D01*
X181849849Y-65983238D01*
X181849846Y-65983233D01*
X181847523Y-65978251D01*
X181739739Y-65824320D01*
X181719357Y-65795211D01*
X181719355Y-65795208D01*
X181716198Y-65790700D01*
X181554300Y-65628802D01*
X181549792Y-65625645D01*
X181549789Y-65625643D01*
X181434507Y-65544922D01*
X181366749Y-65497477D01*
X181361767Y-65495154D01*
X181361762Y-65495151D01*
X181164225Y-65403039D01*
X181164224Y-65403039D01*
X181159243Y-65400716D01*
X181153935Y-65399294D01*
X181153933Y-65399293D01*
X180943402Y-65342881D01*
X180943400Y-65342881D01*
X180938087Y-65341457D01*
X180710000Y-65321502D01*
X180481913Y-65341457D01*
X180476600Y-65342881D01*
X180476598Y-65342881D01*
X180266067Y-65399293D01*
X180266065Y-65399294D01*
X180260757Y-65400716D01*
X180255776Y-65403039D01*
X180255775Y-65403039D01*
X180058238Y-65495151D01*
X180058233Y-65495154D01*
X180053251Y-65497477D01*
X179985493Y-65544922D01*
X179870211Y-65625643D01*
X179870208Y-65625645D01*
X179865700Y-65628802D01*
X179703802Y-65790700D01*
X179700645Y-65795208D01*
X179700643Y-65795211D01*
X179680261Y-65824320D01*
X179572477Y-65978251D01*
X179570154Y-65983233D01*
X179570151Y-65983238D01*
X179487938Y-66159546D01*
X179475716Y-66185757D01*
X179474294Y-66191065D01*
X179474293Y-66191067D01*
X179418498Y-66399297D01*
X179416457Y-66406913D01*
X179396502Y-66635000D01*
X175659905Y-66635000D01*
X174095452Y-65070547D01*
X174087912Y-65062261D01*
X174083800Y-65055782D01*
X174034148Y-65009156D01*
X174031307Y-65006402D01*
X174011570Y-64986665D01*
X174008373Y-64984185D01*
X173999351Y-64976480D01*
X173967121Y-64946214D01*
X173960175Y-64942395D01*
X173960172Y-64942393D01*
X173949366Y-64936452D01*
X173932847Y-64925601D01*
X173932383Y-64925241D01*
X173916841Y-64913186D01*
X173909572Y-64910041D01*
X173909568Y-64910038D01*
X173876263Y-64895626D01*
X173865613Y-64890409D01*
X173826860Y-64869105D01*
X173807237Y-64864067D01*
X173788534Y-64857663D01*
X173777220Y-64852767D01*
X173777219Y-64852767D01*
X173769945Y-64849619D01*
X173762122Y-64848380D01*
X173762112Y-64848377D01*
X173726276Y-64842701D01*
X173714656Y-64840295D01*
X173679511Y-64831272D01*
X173679510Y-64831272D01*
X173671830Y-64829300D01*
X173651576Y-64829300D01*
X173631865Y-64827749D01*
X173619686Y-64825820D01*
X173611857Y-64824580D01*
X173570410Y-64828498D01*
X173567839Y-64828741D01*
X173555981Y-64829300D01*
X169723906Y-64829300D01*
X169655785Y-64809298D01*
X169609292Y-64755642D01*
X169599188Y-64685368D01*
X169628682Y-64620788D01*
X169651635Y-64600087D01*
X169759789Y-64524357D01*
X169759792Y-64524355D01*
X169764300Y-64521198D01*
X169926198Y-64359300D01*
X169943706Y-64334297D01*
X169993818Y-64262729D01*
X170057523Y-64171749D01*
X170059846Y-64166767D01*
X170059849Y-64166762D01*
X170151961Y-63969225D01*
X170151961Y-63969224D01*
X170154284Y-63964243D01*
X170156689Y-63955270D01*
X170212119Y-63748402D01*
X170212119Y-63748400D01*
X170213543Y-63743087D01*
X170233498Y-63515000D01*
X170213543Y-63286913D01*
X170200861Y-63239583D01*
X170155707Y-63071067D01*
X170155706Y-63071065D01*
X170154284Y-63065757D01*
X170144134Y-63043990D01*
X170059849Y-62863238D01*
X170059846Y-62863233D01*
X170057523Y-62858251D01*
X169972490Y-62736811D01*
X169929357Y-62675211D01*
X169929355Y-62675208D01*
X169926198Y-62670700D01*
X169764300Y-62508802D01*
X169759792Y-62505645D01*
X169759789Y-62505643D01*
X169672535Y-62444547D01*
X169576749Y-62377477D01*
X169571767Y-62375154D01*
X169571762Y-62375151D01*
X169536951Y-62358919D01*
X169483666Y-62312002D01*
X169464205Y-62243725D01*
X169484747Y-62175765D01*
X169536951Y-62130529D01*
X169571511Y-62114414D01*
X169581007Y-62108931D01*
X169759467Y-61983972D01*
X169767875Y-61976916D01*
X169921916Y-61822875D01*
X169928972Y-61814467D01*
X170053931Y-61636007D01*
X170059414Y-61626511D01*
X170151490Y-61429053D01*
X170155236Y-61418761D01*
X170201394Y-61246497D01*
X170201058Y-61232401D01*
X170193116Y-61229000D01*
X167652033Y-61229000D01*
X167638502Y-61232973D01*
X167637273Y-61241522D01*
X167684764Y-61418761D01*
X167688510Y-61429053D01*
X167780586Y-61626511D01*
X167786069Y-61636007D01*
X167911028Y-61814467D01*
X167918084Y-61822875D01*
X168072125Y-61976916D01*
X168080533Y-61983972D01*
X168258993Y-62108931D01*
X168268489Y-62114414D01*
X168303049Y-62130529D01*
X168356334Y-62177446D01*
X168375795Y-62245723D01*
X168355253Y-62313683D01*
X168303049Y-62358919D01*
X168268238Y-62375151D01*
X168268233Y-62375154D01*
X168263251Y-62377477D01*
X168167465Y-62444547D01*
X168080211Y-62505643D01*
X168080208Y-62505645D01*
X168075700Y-62508802D01*
X167913802Y-62670700D01*
X167910645Y-62675208D01*
X167910643Y-62675211D01*
X167867510Y-62736811D01*
X167782477Y-62858251D01*
X167780154Y-62863233D01*
X167780151Y-62863238D01*
X167695866Y-63043990D01*
X167685716Y-63065757D01*
X167684294Y-63071065D01*
X167684293Y-63071067D01*
X167639139Y-63239583D01*
X167626457Y-63286913D01*
X167606502Y-63515000D01*
X167626457Y-63743087D01*
X167627881Y-63748400D01*
X167627881Y-63748402D01*
X167683312Y-63955270D01*
X167685716Y-63964243D01*
X167688039Y-63969224D01*
X167688039Y-63969225D01*
X167780151Y-64166762D01*
X167780154Y-64166767D01*
X167782477Y-64171749D01*
X167846182Y-64262729D01*
X167896295Y-64334297D01*
X167913802Y-64359300D01*
X168075700Y-64521198D01*
X168080208Y-64524355D01*
X168080211Y-64524357D01*
X168188365Y-64600087D01*
X168232693Y-64655544D01*
X168240002Y-64726163D01*
X168207971Y-64789524D01*
X168146770Y-64825509D01*
X168116094Y-64829300D01*
X166891895Y-64829300D01*
X166823774Y-64809298D01*
X166802800Y-64792395D01*
X165028452Y-63018047D01*
X165020912Y-63009761D01*
X165016800Y-63003282D01*
X164967148Y-62956656D01*
X164964307Y-62953902D01*
X164944570Y-62934165D01*
X164941373Y-62931685D01*
X164932351Y-62923980D01*
X164900121Y-62893714D01*
X164893175Y-62889895D01*
X164893172Y-62889893D01*
X164882366Y-62883952D01*
X164865847Y-62873101D01*
X164860926Y-62869284D01*
X164849841Y-62860686D01*
X164842572Y-62857541D01*
X164842568Y-62857538D01*
X164809263Y-62843126D01*
X164798613Y-62837909D01*
X164759860Y-62816605D01*
X164740237Y-62811567D01*
X164721534Y-62805163D01*
X164710220Y-62800267D01*
X164710219Y-62800267D01*
X164702945Y-62797119D01*
X164695122Y-62795880D01*
X164695112Y-62795877D01*
X164659276Y-62790201D01*
X164647656Y-62787795D01*
X164612511Y-62778772D01*
X164612510Y-62778772D01*
X164604830Y-62776800D01*
X164584576Y-62776800D01*
X164564865Y-62775249D01*
X164562334Y-62774848D01*
X164544857Y-62772080D01*
X164536965Y-62772826D01*
X164500839Y-62776241D01*
X164488981Y-62776800D01*
X163980249Y-62776800D01*
X163912128Y-62756798D01*
X163865635Y-62703142D01*
X163855531Y-62632868D01*
X163859691Y-62614171D01*
X163885865Y-62528023D01*
X163885865Y-62528021D01*
X163887370Y-62523069D01*
X163916529Y-62301590D01*
X163916659Y-62296257D01*
X163918074Y-62238365D01*
X163918074Y-62238361D01*
X163918156Y-62235000D01*
X163899852Y-62012361D01*
X163845431Y-61795702D01*
X163756354Y-61590840D01*
X163653995Y-61432617D01*
X163637822Y-61407617D01*
X163637820Y-61407614D01*
X163635014Y-61403277D01*
X163484670Y-61238051D01*
X163480619Y-61234852D01*
X163480615Y-61234848D01*
X163313414Y-61102800D01*
X163313410Y-61102798D01*
X163309359Y-61099598D01*
X163267569Y-61076529D01*
X163217598Y-61026097D01*
X163202826Y-60956654D01*
X163227942Y-60890248D01*
X163255294Y-60863641D01*
X163430328Y-60738792D01*
X163438200Y-60732139D01*
X163589052Y-60581812D01*
X163595730Y-60573965D01*
X163720003Y-60401020D01*
X163725313Y-60392183D01*
X163819670Y-60201267D01*
X163823469Y-60191672D01*
X163885377Y-59987910D01*
X163887555Y-59977837D01*
X163888986Y-59966962D01*
X163886775Y-59952778D01*
X163873617Y-59949000D01*
X162427000Y-59949000D01*
X162358879Y-59928998D01*
X162312386Y-59875342D01*
X162301000Y-59823000D01*
X162301000Y-59567000D01*
X162321002Y-59498879D01*
X162374658Y-59452386D01*
X162427000Y-59441000D01*
X163873344Y-59441000D01*
X163886875Y-59437027D01*
X163888180Y-59427947D01*
X163858527Y-59309896D01*
X163861331Y-59238955D01*
X163902043Y-59180791D01*
X163967739Y-59153872D01*
X163980731Y-59153200D01*
X164499606Y-59153200D01*
X164567727Y-59173202D01*
G37*
G04 #@! TD.AperFunction*
G04 #@! TA.AperFunction,Conductor*
G36*
X212029090Y-59177502D02*
G01*
X212075583Y-59231158D01*
X212085687Y-59301432D01*
X212082386Y-59317173D01*
X212044389Y-59454184D01*
X212045912Y-59462607D01*
X212058292Y-59466000D01*
X213508000Y-59466000D01*
X213576121Y-59486002D01*
X213622614Y-59539658D01*
X213634000Y-59592000D01*
X213634000Y-59848000D01*
X213613998Y-59916121D01*
X213560342Y-59962614D01*
X213508000Y-59974000D01*
X212063225Y-59974000D01*
X212049694Y-59977973D01*
X212048257Y-59987966D01*
X212078565Y-60122446D01*
X212081645Y-60132275D01*
X212161770Y-60329603D01*
X212166413Y-60338794D01*
X212277694Y-60520388D01*
X212283777Y-60528699D01*
X212423213Y-60689667D01*
X212430580Y-60696883D01*
X212594434Y-60832916D01*
X212602881Y-60838831D01*
X212671969Y-60879203D01*
X212720693Y-60930842D01*
X212733764Y-61000625D01*
X212707033Y-61066396D01*
X212666584Y-61099752D01*
X212653607Y-61106507D01*
X212649474Y-61109610D01*
X212649471Y-61109612D01*
X212479100Y-61237530D01*
X212474965Y-61240635D01*
X212471393Y-61244373D01*
X212344520Y-61377138D01*
X212320629Y-61402138D01*
X212317720Y-61406403D01*
X212317714Y-61406411D01*
X212279872Y-61461885D01*
X212194743Y-61586680D01*
X212179642Y-61619213D01*
X212112293Y-61764305D01*
X212100688Y-61789305D01*
X212040989Y-62004570D01*
X212017251Y-62226695D01*
X212017548Y-62231848D01*
X212017548Y-62231851D01*
X212028960Y-62429767D01*
X212030110Y-62449715D01*
X212031247Y-62454761D01*
X212031248Y-62454767D01*
X212074818Y-62648099D01*
X212070282Y-62718951D01*
X212028160Y-62776102D01*
X211961827Y-62801408D01*
X211951901Y-62801800D01*
X211318020Y-62801800D01*
X211249899Y-62781798D01*
X211203406Y-62728142D01*
X211193302Y-62657868D01*
X211204012Y-62622152D01*
X211250267Y-62523856D01*
X211250269Y-62523852D01*
X211251956Y-62520266D01*
X211264001Y-62483197D01*
X211329036Y-62283039D01*
X211349495Y-62220072D01*
X211408641Y-61910020D01*
X211428460Y-61595000D01*
X211408641Y-61279980D01*
X211349495Y-60969928D01*
X211262425Y-60701955D01*
X211253182Y-60673507D01*
X211253182Y-60673506D01*
X211251956Y-60669734D01*
X211240123Y-60644587D01*
X211119250Y-60387717D01*
X211119246Y-60387710D01*
X211117562Y-60384131D01*
X211114536Y-60379362D01*
X211091125Y-60342473D01*
X210948432Y-60117625D01*
X210759931Y-59889767D01*
X210749758Y-59877470D01*
X210749757Y-59877469D01*
X210747233Y-59874418D01*
X210517140Y-59658346D01*
X210261779Y-59472816D01*
X210224618Y-59452386D01*
X210118258Y-59393914D01*
X210068199Y-59343569D01*
X210053306Y-59274152D01*
X210078307Y-59207703D01*
X210135264Y-59165319D01*
X210178959Y-59157500D01*
X211960969Y-59157500D01*
X212029090Y-59177502D01*
G37*
G04 #@! TD.AperFunction*
G04 #@! TA.AperFunction,Conductor*
G36*
X167553621Y-57808502D02*
G01*
X167600114Y-57862158D01*
X167611500Y-57914500D01*
X167611500Y-58945500D01*
X167591498Y-59013621D01*
X167537842Y-59060114D01*
X167485500Y-59071500D01*
X166314095Y-59071500D01*
X166245974Y-59051498D01*
X166225000Y-59034595D01*
X165317852Y-58127447D01*
X165310312Y-58119161D01*
X165306200Y-58112682D01*
X165256548Y-58066056D01*
X165253707Y-58063302D01*
X165233970Y-58043565D01*
X165230773Y-58041085D01*
X165221751Y-58033380D01*
X165202575Y-58015372D01*
X165192967Y-58006350D01*
X165157002Y-57945137D01*
X165159840Y-57874197D01*
X165200580Y-57816053D01*
X165266288Y-57789165D01*
X165279220Y-57788500D01*
X167485500Y-57788500D01*
X167553621Y-57808502D01*
G37*
G04 #@! TD.AperFunction*
G04 #@! TA.AperFunction,Conductor*
G36*
X185611750Y-57168502D02*
G01*
X185655392Y-57216320D01*
X185696975Y-57296200D01*
X185700078Y-57300333D01*
X185700080Y-57300336D01*
X185838118Y-57484185D01*
X185841223Y-57488320D01*
X186014912Y-57654301D01*
X186019184Y-57657215D01*
X186207975Y-57786000D01*
X186213378Y-57789686D01*
X186218061Y-57791860D01*
X186218065Y-57791862D01*
X186426595Y-57888658D01*
X186426599Y-57888659D01*
X186431290Y-57890837D01*
X186516616Y-57914500D01*
X186534223Y-57919383D01*
X186594521Y-57956862D01*
X186624984Y-58020991D01*
X186615940Y-58091409D01*
X186570262Y-58145759D01*
X186500551Y-58166800D01*
X182180894Y-58166800D01*
X182112773Y-58146798D01*
X182091799Y-58129895D01*
X181325499Y-57363595D01*
X181291473Y-57301283D01*
X181296538Y-57230468D01*
X181339085Y-57173632D01*
X181405605Y-57148821D01*
X181414594Y-57148500D01*
X185543629Y-57148500D01*
X185611750Y-57168502D01*
G37*
G04 #@! TD.AperFunction*
G04 #@! TA.AperFunction,Conductor*
G36*
X206926927Y-49722102D02*
G01*
X206947901Y-49739005D01*
X211065843Y-53856947D01*
X211073387Y-53865237D01*
X211077500Y-53871718D01*
X211083277Y-53877143D01*
X211127167Y-53918358D01*
X211130009Y-53921113D01*
X211149730Y-53940834D01*
X211152925Y-53943312D01*
X211161947Y-53951018D01*
X211194179Y-53981286D01*
X211201128Y-53985106D01*
X211211932Y-53991046D01*
X211228456Y-54001899D01*
X211244459Y-54014313D01*
X211285043Y-54031876D01*
X211295673Y-54037083D01*
X211334440Y-54058395D01*
X211342117Y-54060366D01*
X211342122Y-54060368D01*
X211354058Y-54063432D01*
X211372766Y-54069837D01*
X211391355Y-54077881D01*
X211399183Y-54079121D01*
X211399190Y-54079123D01*
X211435024Y-54084799D01*
X211446644Y-54087205D01*
X211470003Y-54093202D01*
X211489470Y-54098200D01*
X211509724Y-54098200D01*
X211529434Y-54099751D01*
X211549443Y-54102920D01*
X211557335Y-54102174D01*
X211593461Y-54098759D01*
X211605319Y-54098200D01*
X211955228Y-54098200D01*
X212023349Y-54118202D01*
X212069842Y-54171858D01*
X212079946Y-54242132D01*
X212076645Y-54257872D01*
X212044389Y-54374183D01*
X212045912Y-54382607D01*
X212058292Y-54386000D01*
X213508000Y-54386000D01*
X213576121Y-54406002D01*
X213622614Y-54459658D01*
X213634000Y-54512000D01*
X213634000Y-54768000D01*
X213613998Y-54836121D01*
X213560342Y-54882614D01*
X213508000Y-54894000D01*
X212063225Y-54894000D01*
X212049694Y-54897973D01*
X212048257Y-54907966D01*
X212078565Y-55042446D01*
X212081644Y-55052275D01*
X212128796Y-55168396D01*
X212135892Y-55239037D01*
X212103670Y-55302301D01*
X212042360Y-55338101D01*
X212012053Y-55341800D01*
X208612167Y-55341800D01*
X208600984Y-55341273D01*
X208593491Y-55339598D01*
X208585565Y-55339847D01*
X208585564Y-55339847D01*
X208525414Y-55341738D01*
X208521455Y-55341800D01*
X208493544Y-55341800D01*
X208489610Y-55342297D01*
X208489609Y-55342297D01*
X208489544Y-55342305D01*
X208477707Y-55343238D01*
X208445890Y-55344238D01*
X208441429Y-55344378D01*
X208433510Y-55344627D01*
X208418364Y-55349027D01*
X208414058Y-55350278D01*
X208394706Y-55354286D01*
X208387635Y-55355180D01*
X208374603Y-55356826D01*
X208367234Y-55359743D01*
X208367232Y-55359744D01*
X208333497Y-55373100D01*
X208322269Y-55376945D01*
X208279807Y-55389282D01*
X208272985Y-55393316D01*
X208272979Y-55393319D01*
X208262368Y-55399594D01*
X208244618Y-55408290D01*
X208233156Y-55412828D01*
X208233151Y-55412831D01*
X208225783Y-55415748D01*
X208209459Y-55427608D01*
X208190025Y-55441727D01*
X208180107Y-55448243D01*
X208162402Y-55458714D01*
X208142037Y-55470758D01*
X208127713Y-55485082D01*
X208112681Y-55497921D01*
X208096293Y-55509828D01*
X208088464Y-55519292D01*
X208068112Y-55543893D01*
X208060122Y-55552673D01*
X205482900Y-58129895D01*
X205420588Y-58163921D01*
X205393805Y-58166800D01*
X187472730Y-58166800D01*
X187404609Y-58146798D01*
X187358116Y-58093142D01*
X187348012Y-58022868D01*
X187377506Y-57958288D01*
X187442034Y-57918596D01*
X187442413Y-57918501D01*
X187504944Y-57902794D01*
X187666044Y-57832746D01*
X187720526Y-57809057D01*
X187720529Y-57809055D01*
X187725263Y-57806997D01*
X187856470Y-57722115D01*
X187922637Y-57679310D01*
X187922640Y-57679308D01*
X187926977Y-57676502D01*
X188104670Y-57514814D01*
X188165347Y-57437983D01*
X188250367Y-57330330D01*
X188250370Y-57330325D01*
X188253568Y-57326276D01*
X188295726Y-57249908D01*
X188367177Y-57120474D01*
X188367179Y-57120470D01*
X188369674Y-57115950D01*
X188449870Y-56889485D01*
X188450778Y-56884389D01*
X188491095Y-56658052D01*
X188491096Y-56658046D01*
X188492001Y-56652963D01*
X188494936Y-56412737D01*
X188458596Y-56175256D01*
X188407720Y-56019598D01*
X188385566Y-55951817D01*
X188385563Y-55951811D01*
X188383958Y-55946899D01*
X188378617Y-55936638D01*
X188275416Y-55738393D01*
X188273025Y-55733800D01*
X188233511Y-55681173D01*
X188131882Y-55545815D01*
X188131880Y-55545812D01*
X188128777Y-55541680D01*
X187989978Y-55409041D01*
X187958825Y-55379270D01*
X187958824Y-55379269D01*
X187955088Y-55375699D01*
X187918097Y-55350465D01*
X187873096Y-55295556D01*
X187864925Y-55225032D01*
X187896179Y-55161284D01*
X187920660Y-55140589D01*
X187922635Y-55139311D01*
X187926977Y-55136502D01*
X188104670Y-54974814D01*
X188188237Y-54869000D01*
X188250367Y-54790330D01*
X188250370Y-54790325D01*
X188253568Y-54786276D01*
X188268267Y-54759650D01*
X188367177Y-54580474D01*
X188367179Y-54580470D01*
X188369674Y-54575950D01*
X188373655Y-54564710D01*
X188448144Y-54354360D01*
X188448145Y-54354356D01*
X188449870Y-54349485D01*
X188466189Y-54257872D01*
X188491095Y-54118052D01*
X188491096Y-54118046D01*
X188492001Y-54112963D01*
X188493687Y-53975000D01*
X201381654Y-53975000D01*
X201381924Y-53979119D01*
X201399163Y-54242132D01*
X201401017Y-54270426D01*
X201401819Y-54274459D01*
X201401820Y-54274465D01*
X201456280Y-54548251D01*
X201458776Y-54560797D01*
X201460103Y-54564706D01*
X201460104Y-54564710D01*
X201552615Y-54837239D01*
X201553941Y-54841145D01*
X201588821Y-54911875D01*
X201670305Y-55077107D01*
X201684885Y-55106673D01*
X201704816Y-55136502D01*
X201846821Y-55349027D01*
X201849367Y-55352838D01*
X201852081Y-55355932D01*
X201852085Y-55355938D01*
X202016918Y-55543893D01*
X202044573Y-55575427D01*
X202047662Y-55578136D01*
X202264062Y-55767915D01*
X202264068Y-55767919D01*
X202267162Y-55770633D01*
X202270588Y-55772922D01*
X202270593Y-55772926D01*
X202426233Y-55876921D01*
X202513327Y-55935115D01*
X202517026Y-55936939D01*
X202517031Y-55936942D01*
X202617868Y-55986669D01*
X202778855Y-56066059D01*
X202782760Y-56067384D01*
X202782761Y-56067385D01*
X203055290Y-56159896D01*
X203055294Y-56159897D01*
X203059203Y-56161224D01*
X203063247Y-56162028D01*
X203063253Y-56162030D01*
X203345535Y-56218180D01*
X203345541Y-56218181D01*
X203349574Y-56218983D01*
X203353679Y-56219252D01*
X203353686Y-56219253D01*
X203640881Y-56238076D01*
X203645000Y-56238346D01*
X203649119Y-56238076D01*
X203936314Y-56219253D01*
X203936321Y-56219252D01*
X203940426Y-56218983D01*
X203944459Y-56218181D01*
X203944465Y-56218180D01*
X204226747Y-56162030D01*
X204226753Y-56162028D01*
X204230797Y-56161224D01*
X204234706Y-56159897D01*
X204234710Y-56159896D01*
X204507239Y-56067385D01*
X204507240Y-56067384D01*
X204511145Y-56066059D01*
X204672132Y-55986669D01*
X204772969Y-55936942D01*
X204772974Y-55936939D01*
X204776673Y-55935115D01*
X204863767Y-55876921D01*
X205019407Y-55772926D01*
X205019412Y-55772922D01*
X205022838Y-55770633D01*
X205025932Y-55767919D01*
X205025938Y-55767915D01*
X205242338Y-55578136D01*
X205245427Y-55575427D01*
X205273082Y-55543893D01*
X205437915Y-55355938D01*
X205437919Y-55355932D01*
X205440633Y-55352838D01*
X205443180Y-55349027D01*
X205585184Y-55136502D01*
X205605115Y-55106673D01*
X205619696Y-55077107D01*
X205701179Y-54911875D01*
X205736059Y-54841145D01*
X205737385Y-54837239D01*
X205829896Y-54564710D01*
X205829897Y-54564706D01*
X205831224Y-54560797D01*
X205833720Y-54548251D01*
X205888180Y-54274465D01*
X205888181Y-54274459D01*
X205888983Y-54270426D01*
X205890838Y-54242132D01*
X205908076Y-53979119D01*
X205908346Y-53975000D01*
X205903844Y-53906308D01*
X205889253Y-53683686D01*
X205889252Y-53683679D01*
X205888983Y-53679574D01*
X205877260Y-53620635D01*
X205832030Y-53393253D01*
X205832028Y-53393247D01*
X205831224Y-53389203D01*
X205825316Y-53371797D01*
X205737385Y-53112761D01*
X205737384Y-53112760D01*
X205736059Y-53108855D01*
X205650478Y-52935314D01*
X205606942Y-52847031D01*
X205606939Y-52847026D01*
X205605115Y-52843327D01*
X205543695Y-52751405D01*
X205442926Y-52600593D01*
X205442922Y-52600588D01*
X205440633Y-52597162D01*
X205437919Y-52594068D01*
X205437915Y-52594062D01*
X205248136Y-52377662D01*
X205245427Y-52374573D01*
X205242338Y-52371864D01*
X205025938Y-52182085D01*
X205025932Y-52182081D01*
X205022838Y-52179367D01*
X205019412Y-52177078D01*
X205019407Y-52177074D01*
X204780106Y-52017179D01*
X204776673Y-52014885D01*
X204772974Y-52013061D01*
X204772969Y-52013058D01*
X204636687Y-51945852D01*
X204511145Y-51883941D01*
X204491761Y-51877361D01*
X204234710Y-51790104D01*
X204234706Y-51790103D01*
X204230797Y-51788776D01*
X204226753Y-51787972D01*
X204226747Y-51787970D01*
X203944465Y-51731820D01*
X203944459Y-51731819D01*
X203940426Y-51731017D01*
X203936321Y-51730748D01*
X203936314Y-51730747D01*
X203649119Y-51711924D01*
X203645000Y-51711654D01*
X203640881Y-51711924D01*
X203353686Y-51730747D01*
X203353679Y-51730748D01*
X203349574Y-51731017D01*
X203345541Y-51731819D01*
X203345535Y-51731820D01*
X203063253Y-51787970D01*
X203063247Y-51787972D01*
X203059203Y-51788776D01*
X203055294Y-51790103D01*
X203055290Y-51790104D01*
X202798239Y-51877361D01*
X202778855Y-51883941D01*
X202653313Y-51945852D01*
X202517031Y-52013058D01*
X202517026Y-52013061D01*
X202513327Y-52014885D01*
X202509894Y-52017179D01*
X202270593Y-52177074D01*
X202270588Y-52177078D01*
X202267162Y-52179367D01*
X202264068Y-52182081D01*
X202264062Y-52182085D01*
X202047662Y-52371864D01*
X202044573Y-52374573D01*
X202041864Y-52377662D01*
X201852085Y-52594062D01*
X201852081Y-52594068D01*
X201849367Y-52597162D01*
X201847078Y-52600588D01*
X201847074Y-52600593D01*
X201746305Y-52751405D01*
X201684885Y-52843327D01*
X201683061Y-52847026D01*
X201683058Y-52847031D01*
X201639522Y-52935314D01*
X201553941Y-53108855D01*
X201552616Y-53112760D01*
X201552615Y-53112761D01*
X201464685Y-53371797D01*
X201458776Y-53389203D01*
X201457972Y-53393247D01*
X201457970Y-53393253D01*
X201412741Y-53620635D01*
X201401017Y-53679574D01*
X201400748Y-53683679D01*
X201400747Y-53683686D01*
X201386156Y-53906308D01*
X201381654Y-53975000D01*
X188493687Y-53975000D01*
X188494074Y-53943307D01*
X188494873Y-53877907D01*
X188494873Y-53877905D01*
X188494936Y-53872737D01*
X188458596Y-53635256D01*
X188409978Y-53486507D01*
X188385566Y-53411817D01*
X188385563Y-53411811D01*
X188383958Y-53406899D01*
X188378617Y-53396638D01*
X188275416Y-53198393D01*
X188273025Y-53193800D01*
X188156585Y-53038717D01*
X188131680Y-52972235D01*
X188146672Y-52902839D01*
X188196802Y-52852565D01*
X188213115Y-52845085D01*
X188223293Y-52841269D01*
X188223296Y-52841267D01*
X188231705Y-52838115D01*
X188348261Y-52750761D01*
X188435615Y-52634205D01*
X188486745Y-52497816D01*
X188493500Y-52435634D01*
X188493500Y-50434366D01*
X188486745Y-50372184D01*
X188435615Y-50235795D01*
X188348261Y-50119239D01*
X188231705Y-50031885D01*
X188095316Y-49980755D01*
X188033134Y-49974000D01*
X185936866Y-49974000D01*
X185874684Y-49980755D01*
X185738295Y-50031885D01*
X185621739Y-50119239D01*
X185534385Y-50235795D01*
X185531233Y-50244203D01*
X185493547Y-50344730D01*
X185450905Y-50401494D01*
X185384344Y-50426194D01*
X185375565Y-50426500D01*
X184209924Y-50426500D01*
X184141803Y-50406498D01*
X184120829Y-50389595D01*
X183845118Y-50113884D01*
X183811092Y-50051572D01*
X183808692Y-50035770D01*
X183808352Y-50031885D01*
X183803543Y-49976913D01*
X183772407Y-49860711D01*
X183774097Y-49789734D01*
X183813891Y-49730939D01*
X183879156Y-49702991D01*
X183894114Y-49702100D01*
X206858806Y-49702100D01*
X206926927Y-49722102D01*
G37*
G04 #@! TD.AperFunction*
G04 #@! TA.AperFunction,Conductor*
G36*
X185895634Y-55003502D02*
G01*
X185914564Y-55018406D01*
X186014912Y-55114301D01*
X186051903Y-55139535D01*
X186096904Y-55194444D01*
X186105075Y-55264968D01*
X186073821Y-55328716D01*
X186049340Y-55349411D01*
X186048000Y-55350278D01*
X186043023Y-55353498D01*
X185865330Y-55515186D01*
X185820194Y-55572338D01*
X185734242Y-55681173D01*
X185716432Y-55703724D01*
X185713936Y-55708245D01*
X185713935Y-55708247D01*
X185702116Y-55729658D01*
X185663575Y-55799476D01*
X185654236Y-55816393D01*
X185603803Y-55866364D01*
X185543927Y-55881500D01*
X182036093Y-55881500D01*
X181967972Y-55861498D01*
X181921479Y-55807842D01*
X181911375Y-55737568D01*
X181921898Y-55702250D01*
X181941961Y-55659225D01*
X181941961Y-55659224D01*
X181944284Y-55654243D01*
X181948735Y-55637634D01*
X181974445Y-55541680D01*
X182003543Y-55433087D01*
X182008692Y-55374229D01*
X182034555Y-55308112D01*
X182045118Y-55296116D01*
X182320829Y-55020405D01*
X182383141Y-54986379D01*
X182409924Y-54983500D01*
X185827513Y-54983500D01*
X185895634Y-55003502D01*
G37*
G04 #@! TD.AperFunction*
G04 #@! TA.AperFunction,Conductor*
G36*
X167617110Y-54093202D02*
G01*
X167663603Y-54146858D01*
X167673707Y-54217132D01*
X167670696Y-54231811D01*
X167630290Y-54382607D01*
X167626457Y-54396913D01*
X167606502Y-54625000D01*
X167626457Y-54853087D01*
X167627881Y-54858400D01*
X167627881Y-54858402D01*
X167679830Y-55052275D01*
X167685716Y-55074243D01*
X167688039Y-55079224D01*
X167688039Y-55079225D01*
X167694142Y-55092312D01*
X167716654Y-55140589D01*
X167728946Y-55166950D01*
X167739607Y-55237142D01*
X167710627Y-55301954D01*
X167651207Y-55340811D01*
X167614751Y-55346200D01*
X163911323Y-55346200D01*
X163843202Y-55326198D01*
X163796709Y-55272542D01*
X163786605Y-55202268D01*
X163798366Y-55164373D01*
X163819670Y-55121267D01*
X163823469Y-55111672D01*
X163885377Y-54907910D01*
X163887555Y-54897837D01*
X163888986Y-54886962D01*
X163886775Y-54872778D01*
X163873617Y-54869000D01*
X162427000Y-54869000D01*
X162358879Y-54848998D01*
X162312386Y-54795342D01*
X162301000Y-54743000D01*
X162301000Y-54487000D01*
X162321002Y-54418879D01*
X162374658Y-54372386D01*
X162427000Y-54361000D01*
X163873344Y-54361000D01*
X163886875Y-54357027D01*
X163888180Y-54347947D01*
X163858527Y-54229896D01*
X163861331Y-54158955D01*
X163902043Y-54100791D01*
X163967739Y-54073872D01*
X163980731Y-54073200D01*
X167548989Y-54073200D01*
X167617110Y-54093202D01*
G37*
G04 #@! TD.AperFunction*
G04 #@! TA.AperFunction,Conductor*
G36*
X181194007Y-49722102D02*
G01*
X181240500Y-49775758D01*
X181250604Y-49846032D01*
X181247593Y-49860711D01*
X181221391Y-49958498D01*
X181216457Y-49976913D01*
X181196502Y-50205000D01*
X181216457Y-50433087D01*
X181217881Y-50438400D01*
X181217881Y-50438402D01*
X181274021Y-50647916D01*
X181275716Y-50654243D01*
X181278039Y-50659224D01*
X181278039Y-50659225D01*
X181370151Y-50856762D01*
X181370154Y-50856767D01*
X181372477Y-50861749D01*
X181412652Y-50919124D01*
X181494622Y-51036189D01*
X181503802Y-51049300D01*
X181665700Y-51211198D01*
X181670208Y-51214355D01*
X181670211Y-51214357D01*
X181747217Y-51268277D01*
X181853251Y-51342523D01*
X181858233Y-51344846D01*
X181858238Y-51344849D01*
X182055775Y-51436961D01*
X182060757Y-51439284D01*
X182066065Y-51440706D01*
X182066067Y-51440707D01*
X182122544Y-51455840D01*
X182281913Y-51498543D01*
X182340771Y-51503692D01*
X182406888Y-51529555D01*
X182418884Y-51540118D01*
X182983145Y-52104379D01*
X182992247Y-52114522D01*
X183015968Y-52144025D01*
X183042860Y-52166590D01*
X183054421Y-52176291D01*
X183058069Y-52179472D01*
X183059881Y-52181115D01*
X183062075Y-52183309D01*
X183095349Y-52210642D01*
X183096147Y-52211304D01*
X183167474Y-52271154D01*
X183172144Y-52273722D01*
X183176261Y-52277103D01*
X183258120Y-52320995D01*
X183259280Y-52321624D01*
X183335389Y-52363466D01*
X183335394Y-52363468D01*
X183340787Y-52366433D01*
X183345865Y-52368044D01*
X183350563Y-52370563D01*
X183439498Y-52397753D01*
X183440702Y-52398128D01*
X183529306Y-52426235D01*
X183534597Y-52426828D01*
X183539698Y-52428388D01*
X183632311Y-52437795D01*
X183633431Y-52437915D01*
X183683227Y-52443500D01*
X183686756Y-52443500D01*
X183687739Y-52443555D01*
X183693426Y-52444003D01*
X183713683Y-52446060D01*
X183730336Y-52447752D01*
X183730339Y-52447752D01*
X183736463Y-52448374D01*
X183782112Y-52444059D01*
X183793969Y-52443500D01*
X185375565Y-52443500D01*
X185443686Y-52463502D01*
X185490179Y-52517158D01*
X185493547Y-52525270D01*
X185513893Y-52579542D01*
X185534385Y-52634205D01*
X185621739Y-52750761D01*
X185625279Y-52753414D01*
X185658208Y-52813717D01*
X185653143Y-52884532D01*
X185610596Y-52941368D01*
X185544076Y-52966179D01*
X185535087Y-52966500D01*
X182001850Y-52966500D01*
X181988242Y-52965763D01*
X181987662Y-52965700D01*
X181950612Y-52961675D01*
X181900570Y-52966053D01*
X181895788Y-52966379D01*
X181893310Y-52966500D01*
X181890231Y-52966500D01*
X181887177Y-52966799D01*
X181887166Y-52966800D01*
X181847529Y-52970687D01*
X181846215Y-52970809D01*
X181810688Y-52973917D01*
X181753587Y-52978913D01*
X181748468Y-52980400D01*
X181743167Y-52980920D01*
X181654166Y-53007791D01*
X181653033Y-53008126D01*
X181569586Y-53032370D01*
X181569582Y-53032372D01*
X181563664Y-53034091D01*
X181558932Y-53036544D01*
X181553831Y-53038084D01*
X181548388Y-53040978D01*
X181471740Y-53081731D01*
X181470574Y-53082343D01*
X181412341Y-53112529D01*
X181388074Y-53125108D01*
X181383911Y-53128431D01*
X181379204Y-53130934D01*
X181374429Y-53134828D01*
X181374428Y-53134829D01*
X181307102Y-53189739D01*
X181306075Y-53190567D01*
X181269792Y-53219531D01*
X181269787Y-53219536D01*
X181267028Y-53221738D01*
X181264527Y-53224239D01*
X181263809Y-53224881D01*
X181259461Y-53228594D01*
X181225938Y-53255935D01*
X181222015Y-53260677D01*
X181222013Y-53260679D01*
X181196703Y-53291273D01*
X181188713Y-53300053D01*
X180618884Y-53869882D01*
X180556572Y-53903908D01*
X180540773Y-53906308D01*
X180481913Y-53911457D01*
X180363048Y-53943307D01*
X180266067Y-53969293D01*
X180266065Y-53969294D01*
X180260757Y-53970716D01*
X180255776Y-53973039D01*
X180255775Y-53973039D01*
X180058238Y-54065151D01*
X180058233Y-54065154D01*
X180053251Y-54067477D01*
X179951563Y-54138680D01*
X179870211Y-54195643D01*
X179870208Y-54195645D01*
X179865700Y-54198802D01*
X179703802Y-54360700D01*
X179700645Y-54365208D01*
X179700643Y-54365211D01*
X179660514Y-54422522D01*
X179572477Y-54548251D01*
X179570153Y-54553236D01*
X179570149Y-54553242D01*
X179513236Y-54675295D01*
X179466319Y-54728581D01*
X179398042Y-54748042D01*
X179330082Y-54727501D01*
X179309946Y-54711141D01*
X178831552Y-54232747D01*
X178824012Y-54224461D01*
X178819900Y-54217982D01*
X178770248Y-54171356D01*
X178767407Y-54168602D01*
X178747670Y-54148865D01*
X178744473Y-54146385D01*
X178735451Y-54138680D01*
X178709000Y-54113841D01*
X178703221Y-54108414D01*
X178696275Y-54104595D01*
X178696272Y-54104593D01*
X178685466Y-54098652D01*
X178668947Y-54087801D01*
X178666273Y-54085727D01*
X178652941Y-54075386D01*
X178645672Y-54072241D01*
X178645668Y-54072238D01*
X178612363Y-54057826D01*
X178601713Y-54052609D01*
X178562960Y-54031305D01*
X178543337Y-54026267D01*
X178524634Y-54019863D01*
X178513320Y-54014967D01*
X178513319Y-54014967D01*
X178506045Y-54011819D01*
X178498222Y-54010580D01*
X178498212Y-54010577D01*
X178462376Y-54004901D01*
X178450756Y-54002495D01*
X178415611Y-53993472D01*
X178415610Y-53993472D01*
X178407930Y-53991500D01*
X178387676Y-53991500D01*
X178367965Y-53989949D01*
X178355786Y-53988020D01*
X178347957Y-53986780D01*
X178340065Y-53987526D01*
X178303939Y-53990941D01*
X178292081Y-53991500D01*
X177759394Y-53991500D01*
X177691273Y-53971498D01*
X177656181Y-53937771D01*
X177549357Y-53785211D01*
X177549355Y-53785208D01*
X177546198Y-53780700D01*
X177384300Y-53618802D01*
X177379792Y-53615645D01*
X177379789Y-53615643D01*
X177270974Y-53539450D01*
X177196749Y-53487477D01*
X177191767Y-53485154D01*
X177191762Y-53485151D01*
X176994225Y-53393039D01*
X176994224Y-53393039D01*
X176989243Y-53390716D01*
X176983935Y-53389294D01*
X176983933Y-53389293D01*
X176768087Y-53331457D01*
X176768477Y-53330003D01*
X176711155Y-53301586D01*
X176674692Y-53240668D01*
X176676952Y-53169707D01*
X176707562Y-53119942D01*
X178319816Y-51507689D01*
X180088500Y-49739005D01*
X180150812Y-49704979D01*
X180177595Y-49702100D01*
X181125886Y-49702100D01*
X181194007Y-49722102D01*
G37*
G04 #@! TD.AperFunction*
G04 #@! TA.AperFunction,Conductor*
G36*
X167617627Y-51553202D02*
G01*
X167664120Y-51606858D01*
X167674224Y-51677132D01*
X167671213Y-51691811D01*
X167638606Y-51813503D01*
X167638942Y-51827599D01*
X167646884Y-51831000D01*
X170187967Y-51831000D01*
X170201498Y-51827027D01*
X170202727Y-51818478D01*
X170168787Y-51691811D01*
X170170477Y-51620834D01*
X170210271Y-51562039D01*
X170275536Y-51534091D01*
X170290494Y-51533200D01*
X176198305Y-51533200D01*
X176266426Y-51553202D01*
X176312919Y-51606858D01*
X176323023Y-51677132D01*
X176293529Y-51741712D01*
X176287400Y-51748295D01*
X175266400Y-52769295D01*
X175204088Y-52803321D01*
X175177305Y-52806200D01*
X170224698Y-52806200D01*
X170156577Y-52786198D01*
X170110084Y-52732542D01*
X170099980Y-52662268D01*
X170110503Y-52626950D01*
X170151490Y-52539053D01*
X170155236Y-52528761D01*
X170201394Y-52356497D01*
X170201058Y-52342401D01*
X170193116Y-52339000D01*
X167652033Y-52339000D01*
X167638502Y-52342973D01*
X167637273Y-52351522D01*
X167684764Y-52528761D01*
X167688510Y-52539053D01*
X167729497Y-52626950D01*
X167740158Y-52697142D01*
X167711178Y-52761955D01*
X167651758Y-52800811D01*
X167615302Y-52806200D01*
X164195851Y-52806200D01*
X164127730Y-52786198D01*
X164081237Y-52732542D01*
X164071133Y-52662268D01*
X164100627Y-52597688D01*
X164116663Y-52582498D01*
X164121662Y-52579542D01*
X164135983Y-52565221D01*
X164151017Y-52552380D01*
X164160994Y-52545131D01*
X164167407Y-52540472D01*
X164195598Y-52506395D01*
X164203588Y-52497616D01*
X165131099Y-51570105D01*
X165193411Y-51536079D01*
X165220194Y-51533200D01*
X167549506Y-51533200D01*
X167617627Y-51553202D01*
G37*
G04 #@! TD.AperFunction*
G04 #@! TA.AperFunction,Conductor*
G36*
X205950607Y-39677902D02*
G01*
X205997100Y-39731558D01*
X206007701Y-39797945D01*
X206001500Y-39853227D01*
X206001500Y-43959769D01*
X206001801Y-43962838D01*
X206001801Y-43962840D01*
X206003719Y-43982407D01*
X205990459Y-44052154D01*
X205941595Y-44103660D01*
X205878320Y-44120700D01*
X203261794Y-44120700D01*
X203193673Y-44100698D01*
X203172699Y-44083795D01*
X202317468Y-43228563D01*
X201461222Y-42372317D01*
X201427196Y-42310005D01*
X201425007Y-42296392D01*
X201408332Y-42137735D01*
X201408332Y-42137733D01*
X201407642Y-42131172D01*
X201348627Y-41949544D01*
X201253140Y-41784156D01*
X201205999Y-41731800D01*
X201129775Y-41647145D01*
X201129774Y-41647144D01*
X201125353Y-41642234D01*
X200970852Y-41529982D01*
X200964824Y-41527298D01*
X200964822Y-41527297D01*
X200802419Y-41454991D01*
X200802418Y-41454991D01*
X200796388Y-41452306D01*
X200702987Y-41432453D01*
X200616044Y-41413972D01*
X200616039Y-41413972D01*
X200609587Y-41412600D01*
X200418613Y-41412600D01*
X200412161Y-41413972D01*
X200412156Y-41413972D01*
X200325213Y-41432453D01*
X200231812Y-41452306D01*
X200225782Y-41454991D01*
X200225781Y-41454991D01*
X200063378Y-41527297D01*
X200063376Y-41527298D01*
X200057348Y-41529982D01*
X199902847Y-41642234D01*
X199898426Y-41647144D01*
X199898425Y-41647145D01*
X199822202Y-41731800D01*
X199775060Y-41784156D01*
X199679573Y-41949544D01*
X199620558Y-42131172D01*
X199619868Y-42137733D01*
X199619868Y-42137735D01*
X199603193Y-42296393D01*
X199576180Y-42362050D01*
X199566978Y-42372318D01*
X197855500Y-44083795D01*
X197793188Y-44117821D01*
X197766405Y-44120700D01*
X195442158Y-44120700D01*
X195374037Y-44100698D01*
X195327544Y-44047042D01*
X195316943Y-43980656D01*
X195318107Y-43970276D01*
X195318500Y-43966773D01*
X195318500Y-39860231D01*
X195317814Y-39853227D01*
X195312695Y-39801026D01*
X195312221Y-39796195D01*
X195325480Y-39726449D01*
X195374343Y-39674941D01*
X195437620Y-39657900D01*
X205882486Y-39657900D01*
X205950607Y-39677902D01*
G37*
G04 #@! TD.AperFunction*
G04 #@! TA.AperFunction,Conductor*
G36*
X193250607Y-39677902D02*
G01*
X193297100Y-39731558D01*
X193307701Y-39797945D01*
X193301500Y-39853227D01*
X193301500Y-43959769D01*
X193301801Y-43962838D01*
X193301801Y-43962840D01*
X193303719Y-43982407D01*
X193290459Y-44052154D01*
X193241595Y-44103660D01*
X193178320Y-44120700D01*
X185790806Y-44120700D01*
X185722685Y-44100698D01*
X185676192Y-44047042D01*
X185666088Y-43976768D01*
X185683373Y-43928865D01*
X185686429Y-43923879D01*
X185759960Y-43803887D01*
X185762385Y-43798034D01*
X185856461Y-43570913D01*
X185856462Y-43570911D01*
X185858355Y-43566340D01*
X185890793Y-43431225D01*
X185917223Y-43321139D01*
X185917224Y-43321133D01*
X185918378Y-43316326D01*
X185938551Y-43060000D01*
X185918378Y-42803674D01*
X185917134Y-42798489D01*
X185879009Y-42639689D01*
X185858355Y-42553660D01*
X185827470Y-42479096D01*
X185761855Y-42320687D01*
X185761853Y-42320683D01*
X185759960Y-42316113D01*
X185625616Y-42096884D01*
X185458631Y-41901369D01*
X185263116Y-41734384D01*
X185043887Y-41600040D01*
X185039317Y-41598147D01*
X185039313Y-41598145D01*
X184810913Y-41503539D01*
X184810911Y-41503538D01*
X184806340Y-41501645D01*
X184679211Y-41471124D01*
X184561139Y-41442777D01*
X184561133Y-41442776D01*
X184556326Y-41441622D01*
X184300000Y-41421449D01*
X184043674Y-41441622D01*
X184038867Y-41442776D01*
X184038861Y-41442777D01*
X183920789Y-41471124D01*
X183793660Y-41501645D01*
X183789089Y-41503538D01*
X183789087Y-41503539D01*
X183560687Y-41598145D01*
X183560683Y-41598147D01*
X183556113Y-41600040D01*
X183336884Y-41734384D01*
X183141369Y-41901369D01*
X182974384Y-42096884D01*
X182840040Y-42316113D01*
X182838147Y-42320683D01*
X182838145Y-42320687D01*
X182772530Y-42479096D01*
X182741645Y-42553660D01*
X182720991Y-42639689D01*
X182682867Y-42798489D01*
X182681622Y-42803674D01*
X182661449Y-43060000D01*
X182681622Y-43316326D01*
X182682776Y-43321133D01*
X182682777Y-43321139D01*
X182709207Y-43431225D01*
X182741645Y-43566340D01*
X182743538Y-43570911D01*
X182743539Y-43570913D01*
X182837616Y-43798034D01*
X182840040Y-43803887D01*
X182913572Y-43923879D01*
X182916627Y-43928865D01*
X182935165Y-43997398D01*
X182913709Y-44065075D01*
X182859070Y-44110408D01*
X182809194Y-44120700D01*
X172790806Y-44120700D01*
X172722685Y-44100698D01*
X172676192Y-44047042D01*
X172666088Y-43976768D01*
X172683373Y-43928865D01*
X172686429Y-43923879D01*
X172759960Y-43803887D01*
X172762385Y-43798034D01*
X172856461Y-43570913D01*
X172856462Y-43570911D01*
X172858355Y-43566340D01*
X172890793Y-43431225D01*
X172917223Y-43321139D01*
X172917224Y-43321133D01*
X172918378Y-43316326D01*
X172938551Y-43060000D01*
X172918378Y-42803674D01*
X172917134Y-42798489D01*
X172879009Y-42639689D01*
X172858355Y-42553660D01*
X172827470Y-42479096D01*
X172761855Y-42320687D01*
X172761853Y-42320683D01*
X172759960Y-42316113D01*
X172625616Y-42096884D01*
X172458631Y-41901369D01*
X172263116Y-41734384D01*
X172043887Y-41600040D01*
X172039317Y-41598147D01*
X172039313Y-41598145D01*
X171810913Y-41503539D01*
X171810911Y-41503538D01*
X171806340Y-41501645D01*
X171679211Y-41471124D01*
X171561139Y-41442777D01*
X171561133Y-41442776D01*
X171556326Y-41441622D01*
X171300000Y-41421449D01*
X171043674Y-41441622D01*
X171038867Y-41442776D01*
X171038861Y-41442777D01*
X170920789Y-41471124D01*
X170793660Y-41501645D01*
X170789089Y-41503538D01*
X170789087Y-41503539D01*
X170560687Y-41598145D01*
X170560683Y-41598147D01*
X170556113Y-41600040D01*
X170336884Y-41734384D01*
X170141369Y-41901369D01*
X169974384Y-42096884D01*
X169840040Y-42316113D01*
X169838147Y-42320683D01*
X169838145Y-42320687D01*
X169772530Y-42479096D01*
X169741645Y-42553660D01*
X169720991Y-42639689D01*
X169682867Y-42798489D01*
X169681622Y-42803674D01*
X169661449Y-43060000D01*
X169681622Y-43316326D01*
X169682776Y-43321133D01*
X169682777Y-43321139D01*
X169709207Y-43431225D01*
X169741645Y-43566340D01*
X169743538Y-43570911D01*
X169743539Y-43570913D01*
X169837616Y-43798034D01*
X169840040Y-43803887D01*
X169913572Y-43923879D01*
X169916627Y-43928865D01*
X169935165Y-43997398D01*
X169913709Y-44065075D01*
X169859070Y-44110408D01*
X169809194Y-44120700D01*
X169225395Y-44120700D01*
X169157274Y-44100698D01*
X169136300Y-44083795D01*
X167899952Y-42847447D01*
X167892412Y-42839161D01*
X167888300Y-42832682D01*
X167838648Y-42786056D01*
X167835807Y-42783302D01*
X167816070Y-42763565D01*
X167812873Y-42761085D01*
X167803851Y-42753380D01*
X167795021Y-42745088D01*
X167771621Y-42723114D01*
X167764675Y-42719295D01*
X167764672Y-42719293D01*
X167753866Y-42713352D01*
X167737347Y-42702501D01*
X167731250Y-42697772D01*
X167721341Y-42690086D01*
X167714072Y-42686941D01*
X167714068Y-42686938D01*
X167680763Y-42672526D01*
X167670113Y-42667309D01*
X167631360Y-42646005D01*
X167611737Y-42640967D01*
X167593034Y-42634563D01*
X167581720Y-42629667D01*
X167581719Y-42629667D01*
X167574445Y-42626519D01*
X167566622Y-42625280D01*
X167566612Y-42625277D01*
X167530776Y-42619601D01*
X167519156Y-42617195D01*
X167484011Y-42608172D01*
X167484010Y-42608172D01*
X167476330Y-42606200D01*
X167456076Y-42606200D01*
X167436365Y-42604649D01*
X167424186Y-42602720D01*
X167416357Y-42601480D01*
X167408465Y-42602226D01*
X167372339Y-42605641D01*
X167360481Y-42606200D01*
X163931092Y-42606200D01*
X163862971Y-42586198D01*
X163816478Y-42532542D01*
X163806374Y-42462268D01*
X163818136Y-42424371D01*
X163819671Y-42421266D01*
X163823469Y-42411672D01*
X163885377Y-42207910D01*
X163887555Y-42197837D01*
X163888986Y-42186962D01*
X163886775Y-42172778D01*
X163873617Y-42169000D01*
X162427000Y-42169000D01*
X162358879Y-42148998D01*
X162312386Y-42095342D01*
X162301000Y-42043000D01*
X162301000Y-41787000D01*
X162321002Y-41718879D01*
X162374658Y-41672386D01*
X162427000Y-41661000D01*
X163873344Y-41661000D01*
X163886875Y-41657027D01*
X163888180Y-41647947D01*
X163846214Y-41480875D01*
X163842894Y-41471124D01*
X163757972Y-41275814D01*
X163753105Y-41266739D01*
X163637426Y-41087926D01*
X163631136Y-41079757D01*
X163487806Y-40922240D01*
X163480273Y-40915215D01*
X163313139Y-40783222D01*
X163304556Y-40777520D01*
X163267602Y-40757120D01*
X163217631Y-40706687D01*
X163202859Y-40637245D01*
X163227975Y-40570839D01*
X163255327Y-40544232D01*
X163298654Y-40513327D01*
X163434860Y-40416173D01*
X163593096Y-40258489D01*
X163625348Y-40213605D01*
X163681342Y-40169957D01*
X163747384Y-40162683D01*
X163766424Y-40165699D01*
X163778044Y-40168105D01*
X163809859Y-40176273D01*
X163820870Y-40179100D01*
X163841124Y-40179100D01*
X163860834Y-40180651D01*
X163880843Y-40183820D01*
X163888735Y-40183074D01*
X163907480Y-40181302D01*
X163924862Y-40179659D01*
X163936719Y-40179100D01*
X185684533Y-40179100D01*
X185695716Y-40179627D01*
X185703209Y-40181302D01*
X185711135Y-40181053D01*
X185711136Y-40181053D01*
X185771286Y-40179162D01*
X185775245Y-40179100D01*
X185803156Y-40179100D01*
X185807091Y-40178603D01*
X185807156Y-40178595D01*
X185818993Y-40177662D01*
X185851251Y-40176648D01*
X185855270Y-40176522D01*
X185863189Y-40176273D01*
X185882643Y-40170621D01*
X185902000Y-40166613D01*
X185914230Y-40165068D01*
X185914231Y-40165068D01*
X185922097Y-40164074D01*
X185929468Y-40161155D01*
X185929470Y-40161155D01*
X185963212Y-40147796D01*
X185974442Y-40143951D01*
X186009283Y-40133829D01*
X186009284Y-40133829D01*
X186016893Y-40131618D01*
X186023712Y-40127585D01*
X186023717Y-40127583D01*
X186034328Y-40121307D01*
X186052076Y-40112612D01*
X186070917Y-40105152D01*
X186106687Y-40079164D01*
X186116607Y-40072648D01*
X186147835Y-40054180D01*
X186147838Y-40054178D01*
X186154662Y-40050142D01*
X186168983Y-40035821D01*
X186184017Y-40022980D01*
X186193993Y-40015732D01*
X186200407Y-40011072D01*
X186228588Y-39977007D01*
X186236578Y-39968226D01*
X186510001Y-39694804D01*
X186572313Y-39660779D01*
X186599096Y-39657900D01*
X193182486Y-39657900D01*
X193250607Y-39677902D01*
G37*
G04 #@! TD.AperFunction*
G04 #@! TA.AperFunction,Conductor*
G36*
X211582627Y-39677902D02*
G01*
X211603601Y-39694805D01*
X211701043Y-39792247D01*
X211708587Y-39800537D01*
X211712700Y-39807018D01*
X211718477Y-39812443D01*
X211762367Y-39853658D01*
X211765209Y-39856413D01*
X211784931Y-39876135D01*
X211788055Y-39878558D01*
X211788059Y-39878562D01*
X211788124Y-39878612D01*
X211797145Y-39886317D01*
X211829379Y-39916586D01*
X211836327Y-39920405D01*
X211836329Y-39920407D01*
X211847132Y-39926346D01*
X211863659Y-39937202D01*
X211873398Y-39944757D01*
X211873400Y-39944758D01*
X211879660Y-39949614D01*
X211920240Y-39967174D01*
X211930888Y-39972391D01*
X211953513Y-39984829D01*
X211969640Y-39993695D01*
X211977316Y-39995666D01*
X211977319Y-39995667D01*
X211989262Y-39998733D01*
X212007967Y-40005137D01*
X212026555Y-40013181D01*
X212034378Y-40014420D01*
X212034388Y-40014423D01*
X212070224Y-40020099D01*
X212081844Y-40022505D01*
X212106391Y-40028807D01*
X212119336Y-40032130D01*
X212119337Y-40032131D01*
X212124669Y-40033500D01*
X212124448Y-40034360D01*
X212183425Y-40060077D01*
X212209996Y-40090873D01*
X212277287Y-40200683D01*
X212277291Y-40200688D01*
X212279987Y-40205088D01*
X212426250Y-40373938D01*
X212598126Y-40516632D01*
X212644805Y-40543909D01*
X212671955Y-40559774D01*
X212720679Y-40611412D01*
X212733750Y-40681195D01*
X212707019Y-40746967D01*
X212666562Y-40780327D01*
X212658457Y-40784546D01*
X212649738Y-40790036D01*
X212479433Y-40917905D01*
X212471726Y-40924748D01*
X212324590Y-41078717D01*
X212318104Y-41086727D01*
X212198098Y-41262649D01*
X212193000Y-41271623D01*
X212103338Y-41464783D01*
X212099775Y-41474470D01*
X212044389Y-41674183D01*
X212045912Y-41682607D01*
X212058292Y-41686000D01*
X213508000Y-41686000D01*
X213576121Y-41706002D01*
X213622614Y-41759658D01*
X213634000Y-41812000D01*
X213634000Y-42068000D01*
X213613998Y-42136121D01*
X213560342Y-42182614D01*
X213508000Y-42194000D01*
X212063225Y-42194000D01*
X212049694Y-42197973D01*
X212048257Y-42207966D01*
X212078565Y-42342446D01*
X212081644Y-42352275D01*
X212133141Y-42479096D01*
X212140237Y-42549737D01*
X212108015Y-42613000D01*
X212046705Y-42648801D01*
X212016398Y-42652500D01*
X210394463Y-42652500D01*
X210383279Y-42651973D01*
X210375791Y-42650299D01*
X210367868Y-42650548D01*
X210307733Y-42652438D01*
X210303775Y-42652500D01*
X210275844Y-42652500D01*
X210271929Y-42652995D01*
X210271925Y-42652995D01*
X210271867Y-42653003D01*
X210271838Y-42653006D01*
X210259996Y-42653939D01*
X210215810Y-42655327D01*
X210198444Y-42660372D01*
X210196358Y-42660978D01*
X210177006Y-42664986D01*
X210169935Y-42665880D01*
X210156903Y-42667526D01*
X210149534Y-42670443D01*
X210149532Y-42670444D01*
X210115797Y-42683800D01*
X210104569Y-42687645D01*
X210062107Y-42699982D01*
X210055285Y-42704016D01*
X210055279Y-42704019D01*
X210044668Y-42710294D01*
X210026918Y-42718990D01*
X210015456Y-42723528D01*
X210015451Y-42723531D01*
X210008083Y-42726448D01*
X209990670Y-42739099D01*
X209972325Y-42752427D01*
X209962407Y-42758943D01*
X209958691Y-42761141D01*
X209924337Y-42781458D01*
X209910013Y-42795782D01*
X209894981Y-42808621D01*
X209878593Y-42820528D01*
X209861490Y-42841202D01*
X209850412Y-42854593D01*
X209842422Y-42863373D01*
X208622000Y-44083795D01*
X208559688Y-44117821D01*
X208532905Y-44120700D01*
X208142158Y-44120700D01*
X208074037Y-44100698D01*
X208027544Y-44047042D01*
X208016943Y-43980656D01*
X208018107Y-43970276D01*
X208018500Y-43966773D01*
X208018500Y-39860231D01*
X208017814Y-39853227D01*
X208012695Y-39801026D01*
X208012221Y-39796195D01*
X208025480Y-39726449D01*
X208074343Y-39674941D01*
X208137620Y-39657900D01*
X211514506Y-39657900D01*
X211582627Y-39677902D01*
G37*
G04 #@! TD.AperFunction*
G04 #@! TA.AperFunction,Conductor*
G36*
X164634493Y-17038002D02*
G01*
X164680986Y-17091658D01*
X164691090Y-17161932D01*
X164661596Y-17226512D01*
X164640433Y-17245936D01*
X164627093Y-17255628D01*
X164598912Y-17289693D01*
X164590922Y-17298473D01*
X163743229Y-18146166D01*
X163680917Y-18180192D01*
X163610102Y-18175127D01*
X163560940Y-18141870D01*
X163488151Y-18061876D01*
X163488148Y-18061873D01*
X163484670Y-18058051D01*
X163480619Y-18054852D01*
X163480615Y-18054848D01*
X163313414Y-17922800D01*
X163313410Y-17922798D01*
X163309359Y-17919598D01*
X163113789Y-17811638D01*
X163108920Y-17809914D01*
X163108916Y-17809912D01*
X162908087Y-17738795D01*
X162908083Y-17738794D01*
X162903212Y-17737069D01*
X162898119Y-17736162D01*
X162898116Y-17736161D01*
X162688373Y-17698800D01*
X162688367Y-17698799D01*
X162683284Y-17697894D01*
X162609452Y-17696992D01*
X162465081Y-17695228D01*
X162465079Y-17695228D01*
X162459911Y-17695165D01*
X162239091Y-17728955D01*
X162026756Y-17798357D01*
X161828607Y-17901507D01*
X161824474Y-17904610D01*
X161824471Y-17904612D01*
X161729246Y-17976109D01*
X161649965Y-18035635D01*
X161576717Y-18112285D01*
X161569283Y-18120064D01*
X161507759Y-18155494D01*
X161436846Y-18152037D01*
X161379060Y-18110791D01*
X161360207Y-18077243D01*
X161318767Y-17966703D01*
X161315615Y-17958295D01*
X161228261Y-17841739D01*
X161111705Y-17754385D01*
X160975316Y-17703255D01*
X160913134Y-17696500D01*
X159116866Y-17696500D01*
X159054684Y-17703255D01*
X158918295Y-17754385D01*
X158801739Y-17841739D01*
X158714385Y-17958295D01*
X158663255Y-18094684D01*
X158656500Y-18156866D01*
X158656500Y-19953134D01*
X158663255Y-20015316D01*
X158714385Y-20151705D01*
X158801739Y-20268261D01*
X158918295Y-20355615D01*
X158926704Y-20358767D01*
X158926705Y-20358768D01*
X159035451Y-20399535D01*
X159092216Y-20442176D01*
X159116916Y-20508738D01*
X159101709Y-20578087D01*
X159082316Y-20604568D01*
X158955629Y-20737138D01*
X158952715Y-20741410D01*
X158952714Y-20741411D01*
X158867556Y-20866249D01*
X158829743Y-20921680D01*
X158806621Y-20971492D01*
X158759456Y-21073102D01*
X158735688Y-21124305D01*
X158675989Y-21339570D01*
X158652251Y-21561695D01*
X158652548Y-21566848D01*
X158652548Y-21566851D01*
X158661078Y-21714790D01*
X158665110Y-21784715D01*
X158666247Y-21789761D01*
X158666248Y-21789767D01*
X158676294Y-21834341D01*
X158714222Y-22002639D01*
X158798266Y-22209616D01*
X158914987Y-22400088D01*
X159061250Y-22568938D01*
X159233126Y-22711632D01*
X159270253Y-22733327D01*
X159306445Y-22754476D01*
X159355169Y-22806114D01*
X159368240Y-22875897D01*
X159341509Y-22941669D01*
X159301055Y-22975027D01*
X159288607Y-22981507D01*
X159284474Y-22984610D01*
X159284471Y-22984612D01*
X159231215Y-23024598D01*
X159109965Y-23115635D01*
X158955629Y-23277138D01*
X158829743Y-23461680D01*
X158782716Y-23562992D01*
X158737885Y-23659573D01*
X158735688Y-23664305D01*
X158675989Y-23879570D01*
X158652251Y-24101695D01*
X158652548Y-24106848D01*
X158652548Y-24106851D01*
X158660225Y-24239995D01*
X158665110Y-24324715D01*
X158666247Y-24329761D01*
X158666248Y-24329767D01*
X158686127Y-24417973D01*
X158714222Y-24542639D01*
X158755586Y-24644507D01*
X158785103Y-24717198D01*
X158798266Y-24749616D01*
X158914987Y-24940088D01*
X159061250Y-25108938D01*
X159233126Y-25251632D01*
X159275909Y-25276632D01*
X159306445Y-25294476D01*
X159355169Y-25346114D01*
X159368240Y-25415897D01*
X159341509Y-25481669D01*
X159301055Y-25515027D01*
X159288607Y-25521507D01*
X159284474Y-25524610D01*
X159284471Y-25524612D01*
X159231215Y-25564598D01*
X159109965Y-25655635D01*
X158955629Y-25817138D01*
X158829743Y-26001680D01*
X158735688Y-26204305D01*
X158675989Y-26419570D01*
X158652251Y-26641695D01*
X158652548Y-26646848D01*
X158652548Y-26646851D01*
X158664812Y-26859547D01*
X158665110Y-26864715D01*
X158666247Y-26869761D01*
X158666248Y-26869767D01*
X158690304Y-26976508D01*
X158714222Y-27082639D01*
X158798266Y-27289616D01*
X158914987Y-27480088D01*
X159061250Y-27648938D01*
X159233126Y-27791632D01*
X159275909Y-27816632D01*
X159306955Y-27834774D01*
X159355679Y-27886412D01*
X159368750Y-27956195D01*
X159342019Y-28021967D01*
X159301562Y-28055327D01*
X159293457Y-28059546D01*
X159284738Y-28065036D01*
X159114433Y-28192905D01*
X159106726Y-28199748D01*
X158959590Y-28353717D01*
X158953104Y-28361727D01*
X158833098Y-28537649D01*
X158828000Y-28546623D01*
X158738338Y-28739783D01*
X158734775Y-28749470D01*
X158679389Y-28949183D01*
X158680912Y-28957607D01*
X158693292Y-28961000D01*
X160143000Y-28961000D01*
X160211121Y-28981002D01*
X160257614Y-29034658D01*
X160269000Y-29087000D01*
X160269000Y-29343000D01*
X160248998Y-29411121D01*
X160195342Y-29457614D01*
X160143000Y-29469000D01*
X158698225Y-29469000D01*
X158684694Y-29472973D01*
X158683257Y-29482966D01*
X158713565Y-29617446D01*
X158716645Y-29627275D01*
X158796770Y-29824603D01*
X158801413Y-29833794D01*
X158912694Y-30015388D01*
X158918777Y-30023699D01*
X159058213Y-30184667D01*
X159065580Y-30191883D01*
X159229434Y-30327916D01*
X159237881Y-30333831D01*
X159306969Y-30374203D01*
X159355693Y-30425842D01*
X159368764Y-30495625D01*
X159342033Y-30561396D01*
X159301584Y-30594752D01*
X159288607Y-30601507D01*
X159284474Y-30604610D01*
X159284471Y-30604612D01*
X159121729Y-30726802D01*
X159109965Y-30735635D01*
X158955629Y-30897138D01*
X158829743Y-31081680D01*
X158793859Y-31158986D01*
X158739795Y-31275458D01*
X158735688Y-31284305D01*
X158675989Y-31499570D01*
X158652251Y-31721695D01*
X158652548Y-31726848D01*
X158652548Y-31726851D01*
X158662689Y-31902732D01*
X158665110Y-31944715D01*
X158666247Y-31949761D01*
X158666248Y-31949767D01*
X158671686Y-31973895D01*
X158714222Y-32162639D01*
X158798266Y-32369616D01*
X158800965Y-32374020D01*
X158908246Y-32549087D01*
X158914987Y-32560088D01*
X159061250Y-32728938D01*
X159233126Y-32871632D01*
X159275909Y-32896632D01*
X159306445Y-32914476D01*
X159355169Y-32966114D01*
X159368240Y-33035897D01*
X159341509Y-33101669D01*
X159301055Y-33135027D01*
X159288607Y-33141507D01*
X159284474Y-33144610D01*
X159284471Y-33144612D01*
X159231215Y-33184598D01*
X159109965Y-33275635D01*
X159084894Y-33301870D01*
X158962573Y-33429872D01*
X158955629Y-33437138D01*
X158952715Y-33441410D01*
X158952714Y-33441411D01*
X158870985Y-33561222D01*
X158829743Y-33621680D01*
X158809603Y-33665069D01*
X158745166Y-33803887D01*
X158735688Y-33824305D01*
X158675989Y-34039570D01*
X158652251Y-34261695D01*
X158652548Y-34266848D01*
X158652548Y-34266851D01*
X158661552Y-34423000D01*
X158665110Y-34484715D01*
X158666247Y-34489761D01*
X158666248Y-34489767D01*
X158686096Y-34577837D01*
X158714222Y-34702639D01*
X158798266Y-34909616D01*
X158914987Y-35100088D01*
X159061250Y-35268938D01*
X159233126Y-35411632D01*
X159270253Y-35433327D01*
X159306445Y-35454476D01*
X159355169Y-35506114D01*
X159368240Y-35575897D01*
X159341509Y-35641669D01*
X159301055Y-35675027D01*
X159288607Y-35681507D01*
X159284474Y-35684610D01*
X159284471Y-35684612D01*
X159231215Y-35724598D01*
X159109965Y-35815635D01*
X159084894Y-35841870D01*
X158973836Y-35958086D01*
X158955629Y-35977138D01*
X158952720Y-35981403D01*
X158952714Y-35981411D01*
X158902756Y-36054647D01*
X158829743Y-36161680D01*
X158735688Y-36364305D01*
X158675989Y-36579570D01*
X158652251Y-36801695D01*
X158652548Y-36806848D01*
X158652548Y-36806851D01*
X158664812Y-37019547D01*
X158665110Y-37024715D01*
X158666247Y-37029761D01*
X158666248Y-37029767D01*
X158690304Y-37136508D01*
X158714222Y-37242639D01*
X158766408Y-37371159D01*
X158791662Y-37433351D01*
X158798266Y-37449616D01*
X158841310Y-37519857D01*
X158912291Y-37635688D01*
X158914987Y-37640088D01*
X159061250Y-37808938D01*
X159233126Y-37951632D01*
X159270253Y-37973327D01*
X159306445Y-37994476D01*
X159355169Y-38046114D01*
X159368240Y-38115897D01*
X159341509Y-38181669D01*
X159301055Y-38215027D01*
X159288607Y-38221507D01*
X159284474Y-38224610D01*
X159284471Y-38224612D01*
X159114100Y-38352530D01*
X159109965Y-38355635D01*
X159064333Y-38403386D01*
X158996102Y-38474786D01*
X158955629Y-38517138D01*
X158952720Y-38521403D01*
X158952714Y-38521411D01*
X158925348Y-38561528D01*
X158829743Y-38701680D01*
X158791011Y-38785121D01*
X158754471Y-38863841D01*
X158735688Y-38904305D01*
X158675989Y-39119570D01*
X158652251Y-39341695D01*
X158652548Y-39346848D01*
X158652548Y-39346851D01*
X158664812Y-39559547D01*
X158665110Y-39564715D01*
X158666247Y-39569761D01*
X158666248Y-39569767D01*
X158686110Y-39657900D01*
X158714222Y-39782639D01*
X158798266Y-39989616D01*
X158837831Y-40054180D01*
X158912291Y-40175688D01*
X158914987Y-40180088D01*
X159061250Y-40348938D01*
X159233126Y-40491632D01*
X159270253Y-40513327D01*
X159306445Y-40534476D01*
X159355169Y-40586114D01*
X159368240Y-40655897D01*
X159341509Y-40721669D01*
X159301055Y-40755027D01*
X159288607Y-40761507D01*
X159284474Y-40764610D01*
X159284471Y-40764612D01*
X159231215Y-40804598D01*
X159109965Y-40895635D01*
X158955629Y-41057138D01*
X158952715Y-41061410D01*
X158952714Y-41061411D01*
X158920744Y-41108277D01*
X158829743Y-41241680D01*
X158735688Y-41444305D01*
X158675989Y-41659570D01*
X158652251Y-41881695D01*
X158652548Y-41886848D01*
X158652548Y-41886851D01*
X158661552Y-42043000D01*
X158665110Y-42104715D01*
X158666247Y-42109761D01*
X158666248Y-42109767D01*
X158686096Y-42197837D01*
X158714222Y-42322639D01*
X158798266Y-42529616D01*
X158914987Y-42720088D01*
X158934236Y-42742310D01*
X158963719Y-42806892D01*
X158953605Y-42877165D01*
X158928094Y-42913901D01*
X158447447Y-43394548D01*
X158439161Y-43402088D01*
X158432682Y-43406200D01*
X158427257Y-43411977D01*
X158386057Y-43455851D01*
X158383302Y-43458693D01*
X158363565Y-43478430D01*
X158361085Y-43481627D01*
X158353382Y-43490647D01*
X158323114Y-43522879D01*
X158319295Y-43529825D01*
X158319293Y-43529828D01*
X158313352Y-43540634D01*
X158302501Y-43557153D01*
X158290086Y-43573159D01*
X158286941Y-43580428D01*
X158286938Y-43580432D01*
X158272526Y-43613737D01*
X158267309Y-43624387D01*
X158246005Y-43663140D01*
X158244034Y-43670815D01*
X158244034Y-43670816D01*
X158240967Y-43682762D01*
X158234564Y-43701464D01*
X158229638Y-43712848D01*
X158184228Y-43767423D01*
X158116522Y-43788785D01*
X158048014Y-43770150D01*
X158000457Y-43717436D01*
X157988000Y-43662810D01*
X157988000Y-17144000D01*
X158008002Y-17075879D01*
X158061658Y-17029386D01*
X158114000Y-17018000D01*
X164566372Y-17018000D01*
X164634493Y-17038002D01*
G37*
G04 #@! TD.AperFunction*
G04 #@! TA.AperFunction,Conductor*
G36*
X214732026Y-40075144D02*
G01*
X214759875Y-40106994D01*
X214819987Y-40205088D01*
X214966250Y-40373938D01*
X215138126Y-40516632D01*
X215184805Y-40543909D01*
X215211445Y-40559476D01*
X215260169Y-40611114D01*
X215273240Y-40680897D01*
X215246509Y-40746669D01*
X215206055Y-40780027D01*
X215193607Y-40786507D01*
X215189474Y-40789610D01*
X215189471Y-40789612D01*
X215019100Y-40917530D01*
X215014965Y-40920635D01*
X215011393Y-40924373D01*
X214884520Y-41057138D01*
X214860629Y-41082138D01*
X214857715Y-41086410D01*
X214857714Y-41086411D01*
X214752898Y-41240066D01*
X214697987Y-41285069D01*
X214627462Y-41293240D01*
X214563715Y-41261986D01*
X214543018Y-41237502D01*
X214462426Y-41112926D01*
X214456136Y-41104757D01*
X214312806Y-40947240D01*
X214305273Y-40940215D01*
X214138139Y-40808222D01*
X214129556Y-40802520D01*
X214092602Y-40782120D01*
X214042631Y-40731687D01*
X214027859Y-40662245D01*
X214052975Y-40595839D01*
X214080327Y-40569232D01*
X214129053Y-40534476D01*
X214259860Y-40441173D01*
X214418096Y-40283489D01*
X214468313Y-40213605D01*
X214548453Y-40102077D01*
X214549776Y-40103028D01*
X214596645Y-40059857D01*
X214666580Y-40047625D01*
X214732026Y-40075144D01*
G37*
G04 #@! TD.AperFunction*
G04 #@! TA.AperFunction,Conductor*
G36*
X182762465Y-37232602D02*
G01*
X182808958Y-37286258D01*
X182819062Y-37356532D01*
X182810753Y-37386818D01*
X182749315Y-37535144D01*
X182741645Y-37553660D01*
X182739396Y-37563028D01*
X182697079Y-37739292D01*
X182681622Y-37803674D01*
X182661449Y-38060000D01*
X182681622Y-38316326D01*
X182682776Y-38321133D01*
X182682777Y-38321139D01*
X182707866Y-38425639D01*
X182741645Y-38566340D01*
X182808521Y-38727792D01*
X182812700Y-38737882D01*
X182820289Y-38808472D01*
X182788510Y-38871959D01*
X182727452Y-38908186D01*
X182696291Y-38912100D01*
X172903709Y-38912100D01*
X172835588Y-38892098D01*
X172789095Y-38838442D01*
X172778991Y-38768168D01*
X172787300Y-38737882D01*
X172791480Y-38727792D01*
X172858355Y-38566340D01*
X172892134Y-38425639D01*
X172917223Y-38321139D01*
X172917224Y-38321133D01*
X172918378Y-38316326D01*
X172938551Y-38060000D01*
X172918378Y-37803674D01*
X172902922Y-37739292D01*
X172860604Y-37563028D01*
X172858355Y-37553660D01*
X172850686Y-37535144D01*
X172789247Y-37386818D01*
X172781658Y-37316228D01*
X172813437Y-37252741D01*
X172874496Y-37216514D01*
X172905656Y-37212600D01*
X182694344Y-37212600D01*
X182762465Y-37232602D01*
G37*
G04 #@! TD.AperFunction*
G04 #@! TA.AperFunction,Conductor*
G36*
X211677327Y-37232602D02*
G01*
X211698301Y-37249505D01*
X211701043Y-37252247D01*
X211708587Y-37260537D01*
X211712700Y-37267018D01*
X211718477Y-37272443D01*
X211762367Y-37313658D01*
X211765209Y-37316413D01*
X211784931Y-37336135D01*
X211788055Y-37338558D01*
X211788059Y-37338562D01*
X211788124Y-37338612D01*
X211797145Y-37346317D01*
X211829379Y-37376586D01*
X211836327Y-37380405D01*
X211836329Y-37380407D01*
X211847132Y-37386346D01*
X211863659Y-37397202D01*
X211873398Y-37404757D01*
X211873400Y-37404758D01*
X211879660Y-37409614D01*
X211920240Y-37427174D01*
X211930888Y-37432391D01*
X211953513Y-37444829D01*
X211969640Y-37453695D01*
X211977316Y-37455666D01*
X211977319Y-37455667D01*
X211989262Y-37458733D01*
X212007966Y-37465137D01*
X212015738Y-37468500D01*
X212026555Y-37473181D01*
X212034378Y-37474420D01*
X212034388Y-37474423D01*
X212070224Y-37480099D01*
X212081844Y-37482505D01*
X212116985Y-37491527D01*
X212119336Y-37492130D01*
X212119337Y-37492131D01*
X212124669Y-37493500D01*
X212124448Y-37494360D01*
X212183425Y-37520077D01*
X212209996Y-37550873D01*
X212277287Y-37660683D01*
X212277291Y-37660688D01*
X212279987Y-37665088D01*
X212426250Y-37833938D01*
X212598126Y-37976632D01*
X212644805Y-38003909D01*
X212671445Y-38019476D01*
X212720169Y-38071114D01*
X212733240Y-38140897D01*
X212706509Y-38206669D01*
X212666055Y-38240027D01*
X212653607Y-38246507D01*
X212649474Y-38249610D01*
X212649471Y-38249612D01*
X212479100Y-38377530D01*
X212474965Y-38380635D01*
X212471393Y-38384373D01*
X212367748Y-38492830D01*
X212306224Y-38528259D01*
X212235312Y-38524802D01*
X212206470Y-38509738D01*
X212204421Y-38507814D01*
X212197481Y-38503998D01*
X212197476Y-38503995D01*
X212186666Y-38498052D01*
X212170147Y-38487201D01*
X212169683Y-38486841D01*
X212154141Y-38474786D01*
X212146872Y-38471641D01*
X212146868Y-38471638D01*
X212113563Y-38457226D01*
X212102913Y-38452009D01*
X212064160Y-38430705D01*
X212044537Y-38425667D01*
X212025834Y-38419263D01*
X212014520Y-38414367D01*
X212014519Y-38414367D01*
X212007245Y-38411219D01*
X211999422Y-38409980D01*
X211999412Y-38409977D01*
X211963576Y-38404301D01*
X211951956Y-38401895D01*
X211916811Y-38392872D01*
X211916810Y-38392872D01*
X211909130Y-38390900D01*
X211888876Y-38390900D01*
X211869165Y-38389349D01*
X211856986Y-38387420D01*
X211849157Y-38386180D01*
X211819886Y-38388947D01*
X211805139Y-38390341D01*
X211793281Y-38390900D01*
X186363267Y-38390900D01*
X186352084Y-38390373D01*
X186344591Y-38388698D01*
X186336665Y-38388947D01*
X186336664Y-38388947D01*
X186276514Y-38390838D01*
X186272555Y-38390900D01*
X186244644Y-38390900D01*
X186240710Y-38391397D01*
X186240709Y-38391397D01*
X186240644Y-38391405D01*
X186228807Y-38392338D01*
X186196990Y-38393338D01*
X186192529Y-38393478D01*
X186184610Y-38393727D01*
X186166954Y-38398856D01*
X186165158Y-38399378D01*
X186145806Y-38403386D01*
X186138735Y-38404280D01*
X186125703Y-38405926D01*
X186092277Y-38419160D01*
X186021579Y-38425639D01*
X185958599Y-38392867D01*
X185923335Y-38331247D01*
X185920283Y-38292122D01*
X185938163Y-38064930D01*
X185938551Y-38060000D01*
X185918378Y-37803674D01*
X185902922Y-37739292D01*
X185860604Y-37563028D01*
X185858355Y-37553660D01*
X185850686Y-37535144D01*
X185789247Y-37386818D01*
X185781658Y-37316228D01*
X185813437Y-37252741D01*
X185874496Y-37216514D01*
X185905656Y-37212600D01*
X211609206Y-37212600D01*
X211677327Y-37232602D01*
G37*
G04 #@! TD.AperFunction*
G04 #@! TA.AperFunction,Conductor*
G36*
X214731751Y-34994678D02*
G01*
X214759579Y-35026511D01*
X214819987Y-35125088D01*
X214966250Y-35293938D01*
X215138126Y-35436632D01*
X215184347Y-35463641D01*
X215211445Y-35479476D01*
X215260169Y-35531114D01*
X215273240Y-35600897D01*
X215246509Y-35666669D01*
X215206055Y-35700027D01*
X215193607Y-35706507D01*
X215189474Y-35709610D01*
X215189471Y-35709612D01*
X215019100Y-35837530D01*
X215014965Y-35840635D01*
X215011393Y-35844373D01*
X214884520Y-35977138D01*
X214860629Y-36002138D01*
X214753201Y-36159621D01*
X214698293Y-36204621D01*
X214627768Y-36212792D01*
X214564021Y-36181538D01*
X214543324Y-36157054D01*
X214462822Y-36032617D01*
X214462820Y-36032614D01*
X214460014Y-36028277D01*
X214309670Y-35863051D01*
X214305619Y-35859852D01*
X214305615Y-35859848D01*
X214138414Y-35727800D01*
X214138410Y-35727798D01*
X214134359Y-35724598D01*
X214092569Y-35701529D01*
X214042598Y-35651097D01*
X214027826Y-35581654D01*
X214052942Y-35515248D01*
X214080294Y-35488641D01*
X214255328Y-35363792D01*
X214263200Y-35357139D01*
X214414052Y-35206812D01*
X214420730Y-35198965D01*
X214548022Y-35021819D01*
X214549279Y-35022722D01*
X214596373Y-34979362D01*
X214666311Y-34967145D01*
X214731751Y-34994678D01*
G37*
G04 #@! TD.AperFunction*
G04 #@! TA.AperFunction,Conductor*
G36*
X169763915Y-32229102D02*
G01*
X169810408Y-32282758D01*
X169820512Y-32353032D01*
X169812203Y-32383317D01*
X169741645Y-32553660D01*
X169740490Y-32558472D01*
X169683423Y-32796173D01*
X169681622Y-32803674D01*
X169661449Y-33060000D01*
X169681622Y-33316326D01*
X169682776Y-33321133D01*
X169682777Y-33321139D01*
X169711442Y-33440535D01*
X169741645Y-33566340D01*
X169743538Y-33570911D01*
X169743539Y-33570913D01*
X169813595Y-33740042D01*
X169840040Y-33803887D01*
X169974384Y-34023116D01*
X170141369Y-34218631D01*
X170336884Y-34385616D01*
X170556113Y-34519960D01*
X170560683Y-34521853D01*
X170560687Y-34521855D01*
X170720159Y-34587910D01*
X170793660Y-34618355D01*
X170880502Y-34639204D01*
X171038861Y-34677223D01*
X171038867Y-34677224D01*
X171043674Y-34678378D01*
X171300000Y-34698551D01*
X171556326Y-34678378D01*
X171561133Y-34677224D01*
X171561139Y-34677223D01*
X171719498Y-34639204D01*
X171806340Y-34618355D01*
X171879841Y-34587910D01*
X172039313Y-34521855D01*
X172039317Y-34521853D01*
X172043887Y-34519960D01*
X172263116Y-34385616D01*
X172458631Y-34218631D01*
X172625616Y-34023116D01*
X172759960Y-33803887D01*
X172786406Y-33740042D01*
X172856461Y-33570913D01*
X172856462Y-33570911D01*
X172858355Y-33566340D01*
X172888558Y-33440535D01*
X172917223Y-33321139D01*
X172917224Y-33321133D01*
X172918378Y-33316326D01*
X172938551Y-33060000D01*
X172918378Y-32803674D01*
X172916578Y-32796173D01*
X172859510Y-32558472D01*
X172858355Y-32553660D01*
X172787797Y-32383317D01*
X172780208Y-32312728D01*
X172811987Y-32249241D01*
X172873045Y-32213014D01*
X172904206Y-32209100D01*
X182695794Y-32209100D01*
X182763915Y-32229102D01*
X182810408Y-32282758D01*
X182820512Y-32353032D01*
X182812203Y-32383317D01*
X182741645Y-32553660D01*
X182740490Y-32558472D01*
X182683423Y-32796173D01*
X182681622Y-32803674D01*
X182661449Y-33060000D01*
X182681622Y-33316326D01*
X182682776Y-33321133D01*
X182682777Y-33321139D01*
X182711442Y-33440535D01*
X182741645Y-33566340D01*
X182743538Y-33570911D01*
X182743539Y-33570913D01*
X182813595Y-33740042D01*
X182840040Y-33803887D01*
X182974384Y-34023116D01*
X183141369Y-34218631D01*
X183336884Y-34385616D01*
X183556113Y-34519960D01*
X183560683Y-34521853D01*
X183560687Y-34521855D01*
X183720159Y-34587910D01*
X183793660Y-34618355D01*
X183880502Y-34639204D01*
X184038861Y-34677223D01*
X184038867Y-34677224D01*
X184043674Y-34678378D01*
X184300000Y-34698551D01*
X184556326Y-34678378D01*
X184561133Y-34677224D01*
X184561139Y-34677223D01*
X184719498Y-34639204D01*
X184806340Y-34618355D01*
X184879841Y-34587910D01*
X185039313Y-34521855D01*
X185039317Y-34521853D01*
X185043887Y-34519960D01*
X185263116Y-34385616D01*
X185458631Y-34218631D01*
X185625616Y-34023116D01*
X185759960Y-33803887D01*
X185786406Y-33740042D01*
X185856461Y-33570913D01*
X185856462Y-33570911D01*
X185858355Y-33566340D01*
X185888558Y-33440535D01*
X185917223Y-33321139D01*
X185917224Y-33321133D01*
X185918378Y-33316326D01*
X185938551Y-33060000D01*
X185918378Y-32803674D01*
X185916578Y-32796173D01*
X185859510Y-32558472D01*
X185858355Y-32553660D01*
X185787797Y-32383317D01*
X185780208Y-32312728D01*
X185811987Y-32249241D01*
X185873045Y-32213014D01*
X185904206Y-32209100D01*
X186032706Y-32209100D01*
X186100827Y-32229102D01*
X186121801Y-32246005D01*
X186679469Y-32803674D01*
X187232448Y-33356653D01*
X187239988Y-33364939D01*
X187244100Y-33371418D01*
X187249877Y-33376843D01*
X187293751Y-33418043D01*
X187296593Y-33420798D01*
X187316330Y-33440535D01*
X187319527Y-33443015D01*
X187328547Y-33450718D01*
X187360779Y-33480986D01*
X187367725Y-33484805D01*
X187367728Y-33484807D01*
X187378534Y-33490748D01*
X187395053Y-33501599D01*
X187411059Y-33514014D01*
X187418328Y-33517159D01*
X187418332Y-33517162D01*
X187451637Y-33531574D01*
X187462287Y-33536791D01*
X187501040Y-33558095D01*
X187508715Y-33560066D01*
X187508716Y-33560066D01*
X187520662Y-33563133D01*
X187539367Y-33569537D01*
X187557955Y-33577581D01*
X187565778Y-33578820D01*
X187565788Y-33578823D01*
X187601624Y-33584499D01*
X187613244Y-33586905D01*
X187645059Y-33595073D01*
X187656070Y-33597900D01*
X187676324Y-33597900D01*
X187696034Y-33599451D01*
X187716043Y-33602620D01*
X187723935Y-33601874D01*
X187760061Y-33598459D01*
X187771919Y-33597900D01*
X212020537Y-33597900D01*
X212088658Y-33617902D01*
X212135151Y-33671558D01*
X212145255Y-33741832D01*
X212134825Y-33776950D01*
X212103338Y-33844783D01*
X212099775Y-33854470D01*
X212044389Y-34054183D01*
X212045912Y-34062607D01*
X212058292Y-34066000D01*
X213508000Y-34066000D01*
X213576121Y-34086002D01*
X213622614Y-34139658D01*
X213634000Y-34192000D01*
X213634000Y-34448000D01*
X213613998Y-34516121D01*
X213560342Y-34562614D01*
X213508000Y-34574000D01*
X212063225Y-34574000D01*
X212049694Y-34577973D01*
X212048257Y-34587966D01*
X212078565Y-34722446D01*
X212081645Y-34732275D01*
X212161770Y-34929603D01*
X212166413Y-34938794D01*
X212277694Y-35120388D01*
X212283777Y-35128699D01*
X212423213Y-35289667D01*
X212430580Y-35296883D01*
X212594434Y-35432916D01*
X212602881Y-35438831D01*
X212671969Y-35479203D01*
X212720693Y-35530842D01*
X212733764Y-35600625D01*
X212707033Y-35666396D01*
X212666584Y-35699752D01*
X212653607Y-35706507D01*
X212649474Y-35709610D01*
X212649471Y-35709612D01*
X212479100Y-35837530D01*
X212474965Y-35840635D01*
X212369844Y-35950638D01*
X212342314Y-35979446D01*
X212280789Y-36014876D01*
X212209877Y-36011419D01*
X212190520Y-36002810D01*
X212165805Y-35989223D01*
X212158860Y-35985405D01*
X212139237Y-35980367D01*
X212120534Y-35973963D01*
X212109220Y-35969067D01*
X212109219Y-35969067D01*
X212101945Y-35965919D01*
X212094122Y-35964680D01*
X212094112Y-35964677D01*
X212058276Y-35959001D01*
X212046656Y-35956595D01*
X212011511Y-35947572D01*
X212011510Y-35947572D01*
X212003830Y-35945600D01*
X211983576Y-35945600D01*
X211963865Y-35944049D01*
X211951686Y-35942120D01*
X211943857Y-35940880D01*
X211914586Y-35943647D01*
X211899839Y-35945041D01*
X211887981Y-35945600D01*
X164064967Y-35945600D01*
X164053784Y-35945073D01*
X164046291Y-35943398D01*
X164038365Y-35943647D01*
X164038364Y-35943647D01*
X163978214Y-35945538D01*
X163974255Y-35945600D01*
X163946344Y-35945600D01*
X163942410Y-35946097D01*
X163942409Y-35946097D01*
X163942344Y-35946105D01*
X163930507Y-35947038D01*
X163898690Y-35948038D01*
X163894229Y-35948178D01*
X163886310Y-35948427D01*
X163868654Y-35953556D01*
X163866858Y-35954078D01*
X163847506Y-35958086D01*
X163840435Y-35958980D01*
X163827403Y-35960626D01*
X163820034Y-35963543D01*
X163820032Y-35963544D01*
X163786297Y-35976900D01*
X163775069Y-35980745D01*
X163732608Y-35993082D01*
X163732333Y-35992136D01*
X163668817Y-35999978D01*
X163604837Y-35969203D01*
X163596038Y-35960443D01*
X163593882Y-35958073D01*
X163484670Y-35838051D01*
X163480619Y-35834852D01*
X163480615Y-35834848D01*
X163313414Y-35702800D01*
X163313410Y-35702798D01*
X163309359Y-35699598D01*
X163267569Y-35676529D01*
X163217598Y-35626097D01*
X163202826Y-35556654D01*
X163227942Y-35490248D01*
X163255294Y-35463641D01*
X163430328Y-35338792D01*
X163438200Y-35332139D01*
X163589052Y-35181812D01*
X163595730Y-35173965D01*
X163720003Y-35001020D01*
X163725313Y-34992183D01*
X163819670Y-34801267D01*
X163823469Y-34791672D01*
X163885377Y-34587910D01*
X163887555Y-34577837D01*
X163888986Y-34566962D01*
X163886775Y-34552778D01*
X163873617Y-34549000D01*
X162427000Y-34549000D01*
X162358879Y-34528998D01*
X162312386Y-34475342D01*
X162301000Y-34423000D01*
X162301000Y-34167000D01*
X162321002Y-34098879D01*
X162374658Y-34052386D01*
X162427000Y-34041000D01*
X163873344Y-34041000D01*
X163886875Y-34037027D01*
X163888180Y-34027947D01*
X163846214Y-33860875D01*
X163842894Y-33851124D01*
X163794595Y-33740042D01*
X163785775Y-33669595D01*
X163816442Y-33605564D01*
X163876859Y-33568276D01*
X163910145Y-33563800D01*
X164764133Y-33563800D01*
X164775316Y-33564327D01*
X164782809Y-33566002D01*
X164790735Y-33565753D01*
X164790736Y-33565753D01*
X164850886Y-33563862D01*
X164854845Y-33563800D01*
X164882756Y-33563800D01*
X164886691Y-33563303D01*
X164886756Y-33563295D01*
X164898593Y-33562362D01*
X164930851Y-33561348D01*
X164934870Y-33561222D01*
X164942789Y-33560973D01*
X164962243Y-33555321D01*
X164981600Y-33551313D01*
X164993830Y-33549768D01*
X164993831Y-33549768D01*
X165001697Y-33548774D01*
X165009068Y-33545855D01*
X165009070Y-33545855D01*
X165042812Y-33532496D01*
X165054042Y-33528651D01*
X165088883Y-33518529D01*
X165088884Y-33518529D01*
X165096493Y-33516318D01*
X165103312Y-33512285D01*
X165103317Y-33512283D01*
X165113928Y-33506007D01*
X165131676Y-33497312D01*
X165150517Y-33489852D01*
X165186287Y-33463864D01*
X165196207Y-33457348D01*
X165227435Y-33438880D01*
X165227438Y-33438878D01*
X165234262Y-33434842D01*
X165248583Y-33420521D01*
X165263617Y-33407680D01*
X165273594Y-33400431D01*
X165280007Y-33395772D01*
X165308198Y-33361695D01*
X165316188Y-33352916D01*
X166423100Y-32246005D01*
X166485412Y-32211979D01*
X166512195Y-32209100D01*
X169695794Y-32209100D01*
X169763915Y-32229102D01*
G37*
G04 #@! TD.AperFunction*
G04 #@! TA.AperFunction,Conductor*
G36*
X205945526Y-27023202D02*
G01*
X205992019Y-27076858D01*
X206002619Y-27143249D01*
X206002184Y-27147132D01*
X206001500Y-27153227D01*
X206001500Y-31259769D01*
X206001799Y-31262822D01*
X206001800Y-31262835D01*
X206008553Y-31331705D01*
X205995293Y-31401452D01*
X205946430Y-31452959D01*
X205883154Y-31470000D01*
X195436628Y-31470000D01*
X195368507Y-31449998D01*
X195322014Y-31396342D01*
X195311413Y-31329955D01*
X195314960Y-31298329D01*
X195318500Y-31266773D01*
X195318500Y-27160231D01*
X195317814Y-27153227D01*
X195316663Y-27141496D01*
X195329922Y-27071748D01*
X195378785Y-27020241D01*
X195442062Y-27003200D01*
X205877405Y-27003200D01*
X205945526Y-27023202D01*
G37*
G04 #@! TD.AperFunction*
G04 #@! TA.AperFunction,Conductor*
G36*
X208227012Y-27891170D02*
G01*
X208233595Y-27897299D01*
X209968543Y-29632247D01*
X209976087Y-29640537D01*
X209980200Y-29647018D01*
X209985977Y-29652443D01*
X210029867Y-29693658D01*
X210032709Y-29696413D01*
X210052430Y-29716134D01*
X210055625Y-29718612D01*
X210064647Y-29726318D01*
X210096879Y-29756586D01*
X210103828Y-29760406D01*
X210114632Y-29766346D01*
X210131156Y-29777199D01*
X210147159Y-29789613D01*
X210187743Y-29807176D01*
X210198373Y-29812383D01*
X210237140Y-29833695D01*
X210244817Y-29835666D01*
X210244822Y-29835668D01*
X210256758Y-29838732D01*
X210275466Y-29845137D01*
X210294055Y-29853181D01*
X210301883Y-29854421D01*
X210301890Y-29854423D01*
X210337724Y-29860099D01*
X210349344Y-29862505D01*
X210384489Y-29871528D01*
X210392170Y-29873500D01*
X210412424Y-29873500D01*
X210432134Y-29875051D01*
X210452143Y-29878220D01*
X210460035Y-29877474D01*
X210496161Y-29874059D01*
X210508019Y-29873500D01*
X212104274Y-29873500D01*
X212172395Y-29893502D01*
X212211707Y-29933665D01*
X212279987Y-30045088D01*
X212426250Y-30213938D01*
X212598126Y-30356632D01*
X212644347Y-30383641D01*
X212671445Y-30399476D01*
X212720169Y-30451114D01*
X212733240Y-30520897D01*
X212706509Y-30586669D01*
X212666055Y-30620027D01*
X212653607Y-30626507D01*
X212649474Y-30629610D01*
X212649471Y-30629612D01*
X212479100Y-30757530D01*
X212474965Y-30760635D01*
X212471393Y-30764373D01*
X212344520Y-30897138D01*
X212320629Y-30922138D01*
X212317720Y-30926403D01*
X212317714Y-30926411D01*
X212202905Y-31094715D01*
X212147994Y-31139718D01*
X212118531Y-31148159D01*
X212112729Y-31149078D01*
X212104810Y-31149327D01*
X212097200Y-31151538D01*
X212097199Y-31151538D01*
X212085358Y-31154978D01*
X212066006Y-31158986D01*
X212058935Y-31159880D01*
X212045903Y-31161526D01*
X212038534Y-31164443D01*
X212038532Y-31164444D01*
X212004797Y-31177800D01*
X211993569Y-31181645D01*
X211951107Y-31193982D01*
X211944284Y-31198017D01*
X211944282Y-31198018D01*
X211933672Y-31204293D01*
X211915924Y-31212988D01*
X211897083Y-31220448D01*
X211890667Y-31225110D01*
X211890666Y-31225110D01*
X211861313Y-31246436D01*
X211851392Y-31252952D01*
X211813338Y-31275458D01*
X211807731Y-31281064D01*
X211799015Y-31289780D01*
X211783982Y-31302620D01*
X211767593Y-31314528D01*
X211754831Y-31329955D01*
X211739408Y-31348598D01*
X211731418Y-31357378D01*
X211655701Y-31433095D01*
X211593389Y-31467121D01*
X211566606Y-31470000D01*
X208136628Y-31470000D01*
X208068507Y-31449998D01*
X208022014Y-31396342D01*
X208011413Y-31329955D01*
X208014960Y-31298329D01*
X208018500Y-31266773D01*
X208018500Y-27986394D01*
X208038502Y-27918273D01*
X208092158Y-27871780D01*
X208162432Y-27861676D01*
X208227012Y-27891170D01*
G37*
G04 #@! TD.AperFunction*
G04 #@! TA.AperFunction,Conductor*
G36*
X182874925Y-27023202D02*
G01*
X182921418Y-27076858D01*
X182931522Y-27147132D01*
X182914237Y-27195034D01*
X182840040Y-27316113D01*
X182838147Y-27320683D01*
X182838145Y-27320687D01*
X182772119Y-27480088D01*
X182741645Y-27553660D01*
X182740490Y-27558472D01*
X182685897Y-27785868D01*
X182681622Y-27803674D01*
X182661449Y-28060000D01*
X182681622Y-28316326D01*
X182682776Y-28321133D01*
X182682777Y-28321139D01*
X182711365Y-28440214D01*
X182741645Y-28566340D01*
X182743538Y-28570911D01*
X182743539Y-28570913D01*
X182817500Y-28749470D01*
X182840040Y-28803887D01*
X182974384Y-29023116D01*
X183141369Y-29218631D01*
X183336884Y-29385616D01*
X183556113Y-29519960D01*
X183560683Y-29521853D01*
X183560687Y-29521855D01*
X183789087Y-29616461D01*
X183793660Y-29618355D01*
X183873888Y-29637616D01*
X184038861Y-29677223D01*
X184038867Y-29677224D01*
X184043674Y-29678378D01*
X184300000Y-29698551D01*
X184556326Y-29678378D01*
X184561133Y-29677224D01*
X184561139Y-29677223D01*
X184726112Y-29637616D01*
X184806340Y-29618355D01*
X184810913Y-29616461D01*
X185039313Y-29521855D01*
X185039317Y-29521853D01*
X185043887Y-29519960D01*
X185263116Y-29385616D01*
X185458631Y-29218631D01*
X185625616Y-29023116D01*
X185759960Y-28803887D01*
X185782501Y-28749470D01*
X185856461Y-28570913D01*
X185856462Y-28570911D01*
X185858355Y-28566340D01*
X185888635Y-28440214D01*
X185917223Y-28321139D01*
X185917224Y-28321133D01*
X185918378Y-28316326D01*
X185938551Y-28060000D01*
X185918378Y-27803674D01*
X185914104Y-27785868D01*
X185859510Y-27558472D01*
X185858355Y-27553660D01*
X185827881Y-27480088D01*
X185761855Y-27320687D01*
X185761853Y-27320683D01*
X185759960Y-27316113D01*
X185685763Y-27195035D01*
X185667225Y-27126502D01*
X185688681Y-27058825D01*
X185743320Y-27013492D01*
X185793196Y-27003200D01*
X193177405Y-27003200D01*
X193245526Y-27023202D01*
X193292019Y-27076858D01*
X193302619Y-27143249D01*
X193302184Y-27147132D01*
X193301500Y-27153227D01*
X193301500Y-31203105D01*
X193281498Y-31271226D01*
X193227842Y-31317719D01*
X193157568Y-31327823D01*
X193092988Y-31298329D01*
X193086404Y-31292200D01*
X192888920Y-31094715D01*
X192527247Y-30733042D01*
X192519713Y-30724763D01*
X192515600Y-30718282D01*
X192465948Y-30671656D01*
X192463107Y-30668902D01*
X192443370Y-30649165D01*
X192440173Y-30646685D01*
X192431151Y-30638980D01*
X192415331Y-30624124D01*
X192398921Y-30608714D01*
X192391975Y-30604895D01*
X192391972Y-30604893D01*
X192381166Y-30598952D01*
X192364647Y-30588101D01*
X192362449Y-30586396D01*
X192348641Y-30575686D01*
X192341372Y-30572541D01*
X192341368Y-30572538D01*
X192308063Y-30558126D01*
X192297413Y-30552909D01*
X192258660Y-30531605D01*
X192239037Y-30526567D01*
X192220334Y-30520163D01*
X192209020Y-30515267D01*
X192209019Y-30515267D01*
X192201745Y-30512119D01*
X192193922Y-30510880D01*
X192193912Y-30510877D01*
X192158076Y-30505201D01*
X192146456Y-30502795D01*
X192111311Y-30493772D01*
X192111310Y-30493772D01*
X192103630Y-30491800D01*
X192083376Y-30491800D01*
X192063665Y-30490249D01*
X192051486Y-30488320D01*
X192043657Y-30487080D01*
X192014386Y-30489847D01*
X191999639Y-30491241D01*
X191987781Y-30491800D01*
X173059500Y-30491800D01*
X172991379Y-30471798D01*
X172944886Y-30418142D01*
X172933500Y-30365800D01*
X172933500Y-28086866D01*
X172926745Y-28024684D01*
X172875615Y-27888295D01*
X172788261Y-27771739D01*
X172671705Y-27684385D01*
X172535316Y-27633255D01*
X172473134Y-27626500D01*
X171145595Y-27626500D01*
X171077474Y-27606498D01*
X171030981Y-27552842D01*
X171020877Y-27482568D01*
X171050371Y-27417988D01*
X171056500Y-27411405D01*
X171427800Y-27040105D01*
X171490112Y-27006079D01*
X171516895Y-27003200D01*
X182806804Y-27003200D01*
X182874925Y-27023202D01*
G37*
G04 #@! TD.AperFunction*
G04 #@! TA.AperFunction,Conductor*
G36*
X212087869Y-23459602D02*
G01*
X212134362Y-23513258D01*
X212144466Y-23583532D01*
X212134036Y-23618650D01*
X212103338Y-23684783D01*
X212099775Y-23694470D01*
X212044389Y-23894183D01*
X212045912Y-23902607D01*
X212058292Y-23906000D01*
X213508000Y-23906000D01*
X213576121Y-23926002D01*
X213622614Y-23979658D01*
X213634000Y-24032000D01*
X213634000Y-24288000D01*
X213613998Y-24356121D01*
X213560342Y-24402614D01*
X213508000Y-24414000D01*
X212063225Y-24414000D01*
X212049694Y-24417973D01*
X212048257Y-24427966D01*
X212078563Y-24562438D01*
X212082036Y-24573522D01*
X212083319Y-24644507D01*
X212046021Y-24704918D01*
X211981984Y-24735573D01*
X211961801Y-24737200D01*
X211508295Y-24737200D01*
X211440174Y-24717198D01*
X211419200Y-24700295D01*
X211338052Y-24619147D01*
X211330512Y-24610861D01*
X211326400Y-24604382D01*
X211276747Y-24557755D01*
X211273906Y-24555001D01*
X211254170Y-24535265D01*
X211250973Y-24532785D01*
X211241951Y-24525080D01*
X211209721Y-24494814D01*
X211202775Y-24490995D01*
X211202772Y-24490993D01*
X211191966Y-24485052D01*
X211175447Y-24474201D01*
X211174983Y-24473841D01*
X211159441Y-24461786D01*
X211152172Y-24458641D01*
X211152168Y-24458638D01*
X211118863Y-24444226D01*
X211108213Y-24439009D01*
X211069460Y-24417705D01*
X211049837Y-24412667D01*
X211031134Y-24406263D01*
X211019820Y-24401367D01*
X211019819Y-24401367D01*
X211012545Y-24398219D01*
X211004722Y-24396980D01*
X211004712Y-24396977D01*
X210968876Y-24391301D01*
X210957256Y-24388895D01*
X210922111Y-24379872D01*
X210922110Y-24379872D01*
X210914430Y-24377900D01*
X210894176Y-24377900D01*
X210874465Y-24376349D01*
X210871934Y-24375948D01*
X210854457Y-24373180D01*
X210846565Y-24373926D01*
X210810439Y-24377341D01*
X210798581Y-24377900D01*
X164353063Y-24377900D01*
X164341879Y-24377373D01*
X164334391Y-24375699D01*
X164326468Y-24375948D01*
X164266333Y-24377838D01*
X164262375Y-24377900D01*
X164234444Y-24377900D01*
X164230529Y-24378395D01*
X164230525Y-24378395D01*
X164230467Y-24378403D01*
X164230438Y-24378406D01*
X164218596Y-24379339D01*
X164174410Y-24380727D01*
X164157044Y-24385772D01*
X164154958Y-24386378D01*
X164135606Y-24390386D01*
X164123368Y-24391932D01*
X164123366Y-24391933D01*
X164115503Y-24392926D01*
X164074386Y-24409206D01*
X164063185Y-24413041D01*
X164020706Y-24425382D01*
X164020705Y-24425383D01*
X164020197Y-24423633D01*
X163959602Y-24431113D01*
X163895624Y-24400336D01*
X163888665Y-24393321D01*
X163873617Y-24389000D01*
X162427000Y-24389000D01*
X162358879Y-24368998D01*
X162312386Y-24315342D01*
X162301000Y-24263000D01*
X162301000Y-24007000D01*
X162321002Y-23938879D01*
X162374658Y-23892386D01*
X162427000Y-23881000D01*
X163873344Y-23881000D01*
X163886875Y-23877027D01*
X163888180Y-23867947D01*
X163846214Y-23700875D01*
X163842894Y-23691124D01*
X163810161Y-23615842D01*
X163801341Y-23545396D01*
X163832008Y-23481364D01*
X163892425Y-23444076D01*
X163925711Y-23439600D01*
X212019748Y-23439600D01*
X212087869Y-23459602D01*
G37*
G04 #@! TD.AperFunction*
G04 #@! TA.AperFunction,Conductor*
G36*
X215019976Y-22647694D02*
G01*
X215056429Y-22668806D01*
X215138126Y-22736632D01*
X215184805Y-22763909D01*
X215211445Y-22779476D01*
X215260169Y-22831114D01*
X215273240Y-22900897D01*
X215246509Y-22966669D01*
X215206055Y-23000027D01*
X215193607Y-23006507D01*
X215189474Y-23009610D01*
X215189471Y-23009612D01*
X215020970Y-23136126D01*
X215014965Y-23140635D01*
X215011393Y-23144373D01*
X214866279Y-23296226D01*
X214860629Y-23302138D01*
X214857715Y-23306410D01*
X214857714Y-23306411D01*
X214842798Y-23328277D01*
X214753215Y-23459602D01*
X214752898Y-23460066D01*
X214697987Y-23505069D01*
X214627462Y-23513240D01*
X214563715Y-23481986D01*
X214543018Y-23457502D01*
X214462426Y-23332926D01*
X214456141Y-23324764D01*
X214433461Y-23299839D01*
X214402410Y-23235993D01*
X214410805Y-23165494D01*
X214437560Y-23125944D01*
X214886849Y-22676655D01*
X214949161Y-22642629D01*
X215019976Y-22647694D01*
G37*
G04 #@! TD.AperFunction*
G04 #@! TA.AperFunction,Conductor*
G36*
X187155429Y-18374602D02*
G01*
X187201922Y-18428258D01*
X187212026Y-18498532D01*
X187182532Y-18563112D01*
X187145392Y-18592413D01*
X186960264Y-18688580D01*
X186956649Y-18691163D01*
X186956643Y-18691167D01*
X186743990Y-18843131D01*
X186743986Y-18843134D01*
X186740369Y-18845719D01*
X186544808Y-19032275D01*
X186377485Y-19244524D01*
X186375253Y-19248366D01*
X186375250Y-19248371D01*
X186243974Y-19474377D01*
X186243971Y-19474384D01*
X186241736Y-19478231D01*
X186240062Y-19482364D01*
X186142891Y-19722270D01*
X186140272Y-19728735D01*
X186139201Y-19733048D01*
X186139199Y-19733053D01*
X186076716Y-19984592D01*
X186075116Y-19991035D01*
X186074662Y-19995463D01*
X186074662Y-19995465D01*
X186054526Y-20192000D01*
X186047569Y-20259899D01*
X186049775Y-20316042D01*
X186056398Y-20484598D01*
X186058180Y-20529963D01*
X186058980Y-20534343D01*
X186100791Y-20763277D01*
X186106737Y-20795837D01*
X186139693Y-20894618D01*
X186168896Y-20982149D01*
X186192272Y-21052217D01*
X186229518Y-21126758D01*
X186262592Y-21192948D01*
X186313078Y-21293987D01*
X186315607Y-21297646D01*
X186419563Y-21448058D01*
X186466744Y-21516324D01*
X186650205Y-21714790D01*
X186653659Y-21717602D01*
X186653660Y-21717603D01*
X186715728Y-21768134D01*
X186859799Y-21885427D01*
X186863617Y-21887726D01*
X186863619Y-21887727D01*
X186948209Y-21938654D01*
X186996252Y-21990925D01*
X187008409Y-22060873D01*
X186980819Y-22126290D01*
X186922242Y-22166405D01*
X186883220Y-22172600D01*
X177208196Y-22172600D01*
X177140075Y-22152598D01*
X177093582Y-22098942D01*
X177083478Y-22028668D01*
X177102553Y-21982653D01*
X177100921Y-21981760D01*
X177105229Y-21973892D01*
X177110615Y-21966705D01*
X177161745Y-21830316D01*
X177168500Y-21768134D01*
X177168500Y-18871866D01*
X177161745Y-18809684D01*
X177110615Y-18673295D01*
X177023261Y-18556739D01*
X177026158Y-18554568D01*
X177000392Y-18507383D01*
X177005457Y-18436568D01*
X177048004Y-18379732D01*
X177114524Y-18354921D01*
X177123513Y-18354600D01*
X187087308Y-18354600D01*
X187155429Y-18374602D01*
G37*
G04 #@! TD.AperFunction*
G04 #@! TA.AperFunction,Conductor*
G36*
X203666513Y-18374602D02*
G01*
X203713006Y-18428258D01*
X203723110Y-18498532D01*
X203693616Y-18563112D01*
X203656475Y-18592414D01*
X203474477Y-18686955D01*
X203466905Y-18691594D01*
X203254309Y-18843517D01*
X203247468Y-18849177D01*
X203058400Y-19029540D01*
X203052422Y-19036109D01*
X202890655Y-19241309D01*
X202885662Y-19248657D01*
X202754420Y-19474605D01*
X202750516Y-19482575D01*
X202652420Y-19724763D01*
X202649676Y-19733207D01*
X202586684Y-19986798D01*
X202585156Y-19995552D01*
X202579785Y-20047977D01*
X202582513Y-20062676D01*
X202594748Y-20066000D01*
X204598000Y-20066000D01*
X204666121Y-20086002D01*
X204712614Y-20139658D01*
X204724000Y-20192000D01*
X204724000Y-20448000D01*
X204703998Y-20516121D01*
X204650342Y-20562614D01*
X204598000Y-20574000D01*
X202594846Y-20574000D01*
X202582106Y-20577741D01*
X202580204Y-20593018D01*
X202616422Y-20791332D01*
X202618631Y-20799934D01*
X202701324Y-21047796D01*
X202704728Y-21056014D01*
X202821520Y-21289752D01*
X202826038Y-21297391D01*
X202974604Y-21512348D01*
X202980157Y-21519279D01*
X203157532Y-21711163D01*
X203163995Y-21717231D01*
X203366631Y-21882203D01*
X203373907Y-21887317D01*
X203459178Y-21938654D01*
X203507221Y-21990925D01*
X203519378Y-22060873D01*
X203491788Y-22126290D01*
X203433211Y-22166405D01*
X203394189Y-22172600D01*
X193718196Y-22172600D01*
X193650075Y-22152598D01*
X193603582Y-22098942D01*
X193593478Y-22028668D01*
X193612553Y-21982653D01*
X193610921Y-21981760D01*
X193615229Y-21973892D01*
X193620615Y-21966705D01*
X193671745Y-21830316D01*
X193678500Y-21768134D01*
X193678500Y-18871866D01*
X193671745Y-18809684D01*
X193620615Y-18673295D01*
X193533261Y-18556739D01*
X193536158Y-18554568D01*
X193510392Y-18507383D01*
X193515457Y-18436568D01*
X193558004Y-18379732D01*
X193624524Y-18354921D01*
X193633513Y-18354600D01*
X203598392Y-18354600D01*
X203666513Y-18374602D01*
G37*
G04 #@! TD.AperFunction*
M02*
