G04 #@! TF.GenerationSoftware,KiCad,Pcbnew,(6.0.2)*
G04 #@! TF.CreationDate,2022-02-22T23:29:17+09:00*
G04 #@! TF.ProjectId,ACBoard,4143426f-6172-4642-9e6b-696361645f70,rev?*
G04 #@! TF.SameCoordinates,Original*
G04 #@! TF.FileFunction,Soldermask,Top*
G04 #@! TF.FilePolarity,Negative*
%FSLAX46Y46*%
G04 Gerber Fmt 4.6, Leading zero omitted, Abs format (unit mm)*
G04 Created by KiCad (PCBNEW (6.0.2)) date 2022-02-22 23:29:17*
%MOMM*%
%LPD*%
G01*
G04 APERTURE LIST*
%ADD10C,4.000000*%
%ADD11R,13.000000X9.000000*%
%ADD12R,1.600000X1.600000*%
%ADD13O,1.600000X1.600000*%
%ADD14R,2.250000X2.250000*%
%ADD15C,2.250000*%
%ADD16C,1.600000*%
%ADD17O,1.000000X5.000000*%
%ADD18C,2.000000*%
%ADD19R,1.700000X1.700000*%
%ADD20O,1.700000X1.700000*%
%ADD21R,2.800000X2.800000*%
%ADD22O,2.800000X2.800000*%
%ADD23O,3.500000X3.500000*%
%ADD24R,2.000000X1.905000*%
%ADD25O,2.000000X1.905000*%
G04 APERTURE END LIST*
D10*
X208915000Y-61595000D03*
X208915000Y-68580000D03*
X208915000Y-20320000D03*
X172085000Y-68580000D03*
X167005000Y-68580000D03*
D11*
X198755000Y-53975000D03*
X198755000Y-65405000D03*
D12*
X168920000Y-58435000D03*
D13*
X168920000Y-60975000D03*
X168920000Y-63515000D03*
X176540000Y-63515000D03*
X176540000Y-58435000D03*
D12*
X168920000Y-49545000D03*
D13*
X168920000Y-52085000D03*
X168920000Y-54625000D03*
X176540000Y-54625000D03*
X176540000Y-49545000D03*
D14*
X171300000Y-29260000D03*
D15*
X171300000Y-33060000D03*
X171300000Y-38060000D03*
X171300000Y-43060000D03*
X184300000Y-43060000D03*
X184300000Y-38060000D03*
X184300000Y-33060000D03*
X184300000Y-28060000D03*
D16*
X180710000Y-66635000D03*
X182510000Y-61635000D03*
X182510000Y-50205000D03*
X180710000Y-55205000D03*
D17*
X194310000Y-41910000D03*
X207010000Y-41910000D03*
X194310000Y-29210000D03*
X207010000Y-29210000D03*
D18*
X166910000Y-19050000D03*
X170910000Y-19050000D03*
D19*
X160015000Y-19055000D03*
D20*
X162555000Y-19055000D03*
X160015000Y-21595000D03*
X162555000Y-21595000D03*
X160015000Y-24135000D03*
X162555000Y-24135000D03*
X160015000Y-26675000D03*
X162555000Y-26675000D03*
X160015000Y-29215000D03*
X162555000Y-29215000D03*
X160015000Y-31755000D03*
X162555000Y-31755000D03*
X160015000Y-34295000D03*
X162555000Y-34295000D03*
X160015000Y-36835000D03*
X162555000Y-36835000D03*
X160015000Y-39375000D03*
X162555000Y-39375000D03*
X160015000Y-41915000D03*
X162555000Y-41915000D03*
X160015000Y-44455000D03*
X162555000Y-44455000D03*
X160015000Y-46995000D03*
X162555000Y-46995000D03*
X160015000Y-49535000D03*
X162555000Y-49535000D03*
X160015000Y-52075000D03*
X162555000Y-52075000D03*
X160015000Y-54615000D03*
X162555000Y-54615000D03*
X160015000Y-57155000D03*
X162555000Y-57155000D03*
X160015000Y-59695000D03*
X162555000Y-59695000D03*
X160015000Y-62235000D03*
X162555000Y-62235000D03*
X160015000Y-64775000D03*
X162555000Y-64775000D03*
X160015000Y-67315000D03*
X162555000Y-67315000D03*
D19*
X215920000Y-19080000D03*
D20*
X213380000Y-19080000D03*
X215920000Y-21620000D03*
X213380000Y-21620000D03*
X215920000Y-24160000D03*
X213380000Y-24160000D03*
X215920000Y-26700000D03*
X213380000Y-26700000D03*
X215920000Y-29240000D03*
X213380000Y-29240000D03*
X215920000Y-31780000D03*
X213380000Y-31780000D03*
X215920000Y-34320000D03*
X213380000Y-34320000D03*
X215920000Y-36860000D03*
X213380000Y-36860000D03*
X215920000Y-39400000D03*
X213380000Y-39400000D03*
X215920000Y-41940000D03*
X213380000Y-41940000D03*
X215920000Y-44480000D03*
X213380000Y-44480000D03*
X215920000Y-47020000D03*
X213380000Y-47020000D03*
X215920000Y-49560000D03*
X213380000Y-49560000D03*
X215920000Y-52100000D03*
X213380000Y-52100000D03*
X215920000Y-54640000D03*
X213380000Y-54640000D03*
X215920000Y-57180000D03*
X213380000Y-57180000D03*
X215920000Y-59720000D03*
X213380000Y-59720000D03*
X215920000Y-62260000D03*
X213380000Y-62260000D03*
X215920000Y-64800000D03*
X213380000Y-64800000D03*
X215920000Y-67340000D03*
X213380000Y-67340000D03*
D21*
X191770000Y-20320000D03*
D22*
X204470000Y-20320000D03*
D21*
X175260000Y-20320000D03*
D22*
X187960000Y-20320000D03*
D23*
X203645000Y-65405000D03*
D24*
X186985000Y-62865000D03*
D25*
X186985000Y-65405000D03*
X186985000Y-67945000D03*
D23*
X203645000Y-53975000D03*
D24*
X186985000Y-51435000D03*
D25*
X186985000Y-53975000D03*
X186985000Y-56515000D03*
M02*
