M48
; DRILL file {KiCad (6.0.2)} date Tue Feb 22 23:30:31 2022
; FORMAT={-:-/ absolute / metric / decimal}
; #@! TF.CreationDate,2022-02-22T23:30:31+09:00
; #@! TF.GenerationSoftware,Kicad,Pcbnew,(6.0.2)
; #@! TF.FileFunction,Plated,1,2,PTH
FMAT,2
METRIC
; #@! TA.AperFunction,Plated,PTH,ViaDrill
T1C0.400
; #@! TA.AperFunction,Plated,PTH,ComponentDrill
T2C0.600
; #@! TA.AperFunction,Plated,PTH,ComponentDrill
T3C0.800
; #@! TA.AperFunction,Plated,PTH,ComponentDrill
T4C1.000
; #@! TA.AperFunction,Plated,PTH,ComponentDrill
T5C1.100
; #@! TA.AperFunction,Plated,PTH,ComponentDrill
T6C1.400
; #@! TA.AperFunction,Plated,PTH,ComponentDrill
T7C1.500
%
G90
G05
T1
X160.02Y-70.485
X161.29Y-70.485
X166.37Y-58.42
X166.37Y-61.595
X166.37Y-62.865
X168.275Y-33.655
X168.91Y-41.275
X175.26Y-28.575
X175.26Y-29.845
X175.26Y-33.02
X175.26Y-34.29
X175.26Y-37.465
X175.26Y-38.735
X176.53Y-28.575
X176.53Y-29.845
X176.53Y-33.02
X176.53Y-34.29
X176.53Y-37.465
X176.53Y-38.735
X177.8Y-28.575
X177.8Y-29.845
X177.8Y-37.465
X177.8Y-38.735
X177.8Y-65.405
X177.8Y-66.675
X178.435Y-41.275
X178.435Y-42.545
X178.435Y-61.595
X179.705Y-41.275
X179.705Y-42.545
X179.705Y-50.8
X179.705Y-52.07
X179.705Y-53.34
X180.975Y-24.13
X180.975Y-52.07
X182.88Y-55.245
X182.88Y-57.785
X183.515Y-67.31
X184.15Y-20.32
X184.15Y-21.59
X184.15Y-55.245
X184.15Y-57.785
X184.785Y-67.31
X185.42Y-20.32
X185.42Y-21.59
X187.325Y-42.545
X187.325Y-43.815
X188.595Y-28.575
X188.595Y-29.845
X188.595Y-42.545
X188.595Y-43.815
X189.865Y-28.575
X189.865Y-29.845
X189.865Y-53.34
X189.865Y-54.61
X189.865Y-55.88
X190.5Y-34.29
X190.5Y-35.56
X191.135Y-53.34
X191.135Y-54.61
X191.135Y-55.88
X191.77Y-34.29
X191.77Y-35.56
X193.04Y-53.975
X193.04Y-55.245
X193.04Y-56.515
X193.04Y-63.5
X193.04Y-66.04
X193.04Y-67.31
X194.31Y-21.59
X194.31Y-53.975
X194.31Y-55.245
X194.31Y-62.23
X194.31Y-63.5
X194.31Y-66.04
X194.31Y-67.31
X195.58Y-53.975
X195.58Y-62.23
X195.58Y-63.5
X195.58Y-66.04
X195.58Y-67.31
X196.198Y-45.931
X196.215Y-41.275
X196.215Y-42.545
X196.85Y-19.05
X196.85Y-62.23
X196.85Y-63.5
X198.755Y-19.05
X199.39Y-57.785
X200.025Y-56.515
X200.514Y-42.321
X200.66Y-29.21
X200.66Y-30.48
X200.66Y-57.785
X201.93Y-29.21
X201.93Y-30.48
X201.93Y-57.785
X202.565Y-40.005
X202.565Y-41.275
X202.565Y-42.545
X203.2Y-57.785
X204.47Y-57.785
X207.645Y-37.465
X207.645Y-52.705
X207.645Y-53.975
X208.915Y-29.845
X208.915Y-31.115
X208.915Y-37.465
X208.915Y-52.705
X208.915Y-53.975
X209.55Y-40.64
X209.55Y-41.91
X210.185Y-31.115
X213.36Y-69.85
X214.63Y-69.85
X215.9Y-69.85
T2
X180.71Y-55.205
X180.71Y-66.635
X182.51Y-50.205
X182.51Y-61.635
T3
X168.92Y-49.545
X168.92Y-52.085
X168.92Y-54.625
X168.92Y-58.435
X168.92Y-60.975
X168.92Y-63.515
X176.54Y-49.545
X176.54Y-54.625
X176.54Y-58.435
X176.54Y-63.515
T4
X160.015Y-19.055
X160.015Y-21.595
X160.015Y-24.135
X160.015Y-26.675
X160.015Y-29.215
X160.015Y-31.755
X160.015Y-34.295
X160.015Y-36.835
X160.015Y-39.375
X160.015Y-41.915
X160.015Y-44.455
X160.015Y-46.995
X160.015Y-49.535
X160.015Y-52.075
X160.015Y-54.615
X160.015Y-57.155
X160.015Y-59.695
X160.015Y-62.235
X160.015Y-64.775
X160.015Y-67.315
X162.555Y-19.055
X162.555Y-21.595
X162.555Y-24.135
X162.555Y-26.675
X162.555Y-29.215
X162.555Y-31.755
X162.555Y-34.295
X162.555Y-36.835
X162.555Y-39.375
X162.555Y-41.915
X162.555Y-44.455
X162.555Y-46.995
X162.555Y-49.535
X162.555Y-52.075
X162.555Y-54.615
X162.555Y-57.155
X162.555Y-59.695
X162.555Y-62.235
X162.555Y-64.775
X162.555Y-67.315
X213.38Y-19.08
X213.38Y-21.62
X213.38Y-24.16
X213.38Y-26.7
X213.38Y-29.24
X213.38Y-31.78
X213.38Y-34.32
X213.38Y-36.86
X213.38Y-39.4
X213.38Y-41.94
X213.38Y-44.48
X213.38Y-47.02
X213.38Y-49.56
X213.38Y-52.1
X213.38Y-54.64
X213.38Y-57.18
X213.38Y-59.72
X213.38Y-62.26
X213.38Y-64.8
X213.38Y-67.34
X215.92Y-19.08
X215.92Y-21.62
X215.92Y-24.16
X215.92Y-26.7
X215.92Y-29.24
X215.92Y-31.78
X215.92Y-34.32
X215.92Y-36.86
X215.92Y-39.4
X215.92Y-41.94
X215.92Y-44.48
X215.92Y-47.02
X215.92Y-49.56
X215.92Y-52.1
X215.92Y-54.64
X215.92Y-57.18
X215.92Y-59.72
X215.92Y-62.26
X215.92Y-64.8
X215.92Y-67.34
T5
X186.985Y-51.435
X186.985Y-53.975
X186.985Y-56.515
X186.985Y-62.865
X186.985Y-65.405
X186.985Y-67.945
T6
X175.26Y-20.32
X187.96Y-20.32
X191.77Y-20.32
X204.47Y-20.32
T7
X166.91Y-19.05
X170.91Y-19.05
X171.3Y-29.26
X171.3Y-33.06
X171.3Y-38.06
X171.3Y-43.06
X184.3Y-28.06
X184.3Y-33.06
X184.3Y-38.06
X184.3Y-43.06
T2
X194.31Y-31.01G85X194.31Y-27.41
G05
X194.31Y-43.71G85X194.31Y-40.11
G05
X207.01Y-31.01G85X207.01Y-27.41
G05
X207.01Y-43.71G85X207.01Y-40.11
G05
T0
M30
