G04 #@! TF.GenerationSoftware,KiCad,Pcbnew,(6.0.2)*
G04 #@! TF.CreationDate,2022-02-22T23:29:17+09:00*
G04 #@! TF.ProjectId,ACBoard,4143426f-6172-4642-9e6b-696361645f70,rev?*
G04 #@! TF.SameCoordinates,Original*
G04 #@! TF.FileFunction,Legend,Top*
G04 #@! TF.FilePolarity,Positive*
%FSLAX46Y46*%
G04 Gerber Fmt 4.6, Leading zero omitted, Abs format (unit mm)*
G04 Created by KiCad (PCBNEW (6.0.2)) date 2022-02-22 23:29:17*
%MOMM*%
%LPD*%
G01*
G04 APERTURE LIST*
%ADD10C,0.150000*%
%ADD11C,0.120000*%
%ADD12C,0.127000*%
%ADD13C,0.300000*%
%ADD14C,4.000000*%
%ADD15R,13.000000X9.000000*%
%ADD16R,1.600000X1.600000*%
%ADD17O,1.600000X1.600000*%
%ADD18R,2.250000X2.250000*%
%ADD19C,2.250000*%
%ADD20C,1.600000*%
%ADD21O,1.000000X5.000000*%
%ADD22C,2.000000*%
%ADD23R,1.700000X1.700000*%
%ADD24O,1.700000X1.700000*%
%ADD25R,2.800000X2.800000*%
%ADD26O,2.800000X2.800000*%
%ADD27O,3.500000X3.500000*%
%ADD28R,2.000000X1.905000*%
%ADD29O,2.000000X1.905000*%
G04 APERTURE END LIST*
D10*
X207653095Y-61547380D02*
X207653095Y-60547380D01*
X207891190Y-60547380D01*
X208034047Y-60595000D01*
X208129285Y-60690238D01*
X208176904Y-60785476D01*
X208224523Y-60975952D01*
X208224523Y-61118809D01*
X208176904Y-61309285D01*
X208129285Y-61404523D01*
X208034047Y-61499761D01*
X207891190Y-61547380D01*
X207653095Y-61547380D01*
X208653095Y-61547380D02*
X208653095Y-60547380D01*
X208653095Y-61023571D02*
X209224523Y-61023571D01*
X209224523Y-61547380D02*
X209224523Y-60547380D01*
X210129285Y-60880714D02*
X210129285Y-61547380D01*
X209891190Y-60499761D02*
X209653095Y-61214047D01*
X210272142Y-61214047D01*
X207653095Y-69032380D02*
X207653095Y-68032380D01*
X207891190Y-68032380D01*
X208034047Y-68080000D01*
X208129285Y-68175238D01*
X208176904Y-68270476D01*
X208224523Y-68460952D01*
X208224523Y-68603809D01*
X208176904Y-68794285D01*
X208129285Y-68889523D01*
X208034047Y-68984761D01*
X207891190Y-69032380D01*
X207653095Y-69032380D01*
X208653095Y-69032380D02*
X208653095Y-68032380D01*
X208653095Y-68508571D02*
X209224523Y-68508571D01*
X209224523Y-69032380D02*
X209224523Y-68032380D01*
X209605476Y-68032380D02*
X210224523Y-68032380D01*
X209891190Y-68413333D01*
X210034047Y-68413333D01*
X210129285Y-68460952D01*
X210176904Y-68508571D01*
X210224523Y-68603809D01*
X210224523Y-68841904D01*
X210176904Y-68937142D01*
X210129285Y-68984761D01*
X210034047Y-69032380D01*
X209748333Y-69032380D01*
X209653095Y-68984761D01*
X209605476Y-68937142D01*
X207653095Y-20272380D02*
X207653095Y-19272380D01*
X207891190Y-19272380D01*
X208034047Y-19320000D01*
X208129285Y-19415238D01*
X208176904Y-19510476D01*
X208224523Y-19700952D01*
X208224523Y-19843809D01*
X208176904Y-20034285D01*
X208129285Y-20129523D01*
X208034047Y-20224761D01*
X207891190Y-20272380D01*
X207653095Y-20272380D01*
X208653095Y-20272380D02*
X208653095Y-19272380D01*
X208653095Y-19748571D02*
X209224523Y-19748571D01*
X209224523Y-20272380D02*
X209224523Y-19272380D01*
X210176904Y-19272380D02*
X209700714Y-19272380D01*
X209653095Y-19748571D01*
X209700714Y-19700952D01*
X209795952Y-19653333D01*
X210034047Y-19653333D01*
X210129285Y-19700952D01*
X210176904Y-19748571D01*
X210224523Y-19843809D01*
X210224523Y-20081904D01*
X210176904Y-20177142D01*
X210129285Y-20224761D01*
X210034047Y-20272380D01*
X209795952Y-20272380D01*
X209700714Y-20224761D01*
X209653095Y-20177142D01*
X170823095Y-68532380D02*
X170823095Y-67532380D01*
X171061190Y-67532380D01*
X171204047Y-67580000D01*
X171299285Y-67675238D01*
X171346904Y-67770476D01*
X171394523Y-67960952D01*
X171394523Y-68103809D01*
X171346904Y-68294285D01*
X171299285Y-68389523D01*
X171204047Y-68484761D01*
X171061190Y-68532380D01*
X170823095Y-68532380D01*
X171823095Y-68532380D02*
X171823095Y-67532380D01*
X171823095Y-68008571D02*
X172394523Y-68008571D01*
X172394523Y-68532380D02*
X172394523Y-67532380D01*
X172823095Y-67627619D02*
X172870714Y-67580000D01*
X172965952Y-67532380D01*
X173204047Y-67532380D01*
X173299285Y-67580000D01*
X173346904Y-67627619D01*
X173394523Y-67722857D01*
X173394523Y-67818095D01*
X173346904Y-67960952D01*
X172775476Y-68532380D01*
X173394523Y-68532380D01*
X165743095Y-68532380D02*
X165743095Y-67532380D01*
X165981190Y-67532380D01*
X166124047Y-67580000D01*
X166219285Y-67675238D01*
X166266904Y-67770476D01*
X166314523Y-67960952D01*
X166314523Y-68103809D01*
X166266904Y-68294285D01*
X166219285Y-68389523D01*
X166124047Y-68484761D01*
X165981190Y-68532380D01*
X165743095Y-68532380D01*
X166743095Y-68532380D02*
X166743095Y-67532380D01*
X166743095Y-68008571D02*
X167314523Y-68008571D01*
X167314523Y-68532380D02*
X167314523Y-67532380D01*
X168314523Y-68532380D02*
X167743095Y-68532380D01*
X168028809Y-68532380D02*
X168028809Y-67532380D01*
X167933571Y-67675238D01*
X167838333Y-67770476D01*
X167743095Y-67818095D01*
X207518095Y-49347380D02*
X207518095Y-48347380D01*
X207518095Y-48823571D02*
X208089523Y-48823571D01*
X208089523Y-49347380D02*
X208089523Y-48347380D01*
X209089523Y-49347380D02*
X208518095Y-49347380D01*
X208803809Y-49347380D02*
X208803809Y-48347380D01*
X208708571Y-48490238D01*
X208613333Y-48585476D01*
X208518095Y-48633095D01*
X207518095Y-58237380D02*
X207518095Y-57237380D01*
X207518095Y-57713571D02*
X208089523Y-57713571D01*
X208089523Y-58237380D02*
X208089523Y-57237380D01*
X208518095Y-57332619D02*
X208565714Y-57285000D01*
X208660952Y-57237380D01*
X208899047Y-57237380D01*
X208994285Y-57285000D01*
X209041904Y-57332619D01*
X209089523Y-57427857D01*
X209089523Y-57523095D01*
X209041904Y-57665952D01*
X208470476Y-58237380D01*
X209089523Y-58237380D01*
X171968095Y-55557380D02*
X171968095Y-56366904D01*
X172015714Y-56462142D01*
X172063333Y-56509761D01*
X172158571Y-56557380D01*
X172349047Y-56557380D01*
X172444285Y-56509761D01*
X172491904Y-56462142D01*
X172539523Y-56366904D01*
X172539523Y-55557380D01*
X172968095Y-55652619D02*
X173015714Y-55605000D01*
X173110952Y-55557380D01*
X173349047Y-55557380D01*
X173444285Y-55605000D01*
X173491904Y-55652619D01*
X173539523Y-55747857D01*
X173539523Y-55843095D01*
X173491904Y-55985952D01*
X172920476Y-56557380D01*
X173539523Y-56557380D01*
X171968095Y-46667380D02*
X171968095Y-47476904D01*
X172015714Y-47572142D01*
X172063333Y-47619761D01*
X172158571Y-47667380D01*
X172349047Y-47667380D01*
X172444285Y-47619761D01*
X172491904Y-47572142D01*
X172539523Y-47476904D01*
X172539523Y-46667380D01*
X173539523Y-47667380D02*
X172968095Y-47667380D01*
X173253809Y-47667380D02*
X173253809Y-46667380D01*
X173158571Y-46810238D01*
X173063333Y-46905476D01*
X172968095Y-46953095D01*
X168783095Y-22947380D02*
X169354523Y-22947380D01*
X169068809Y-23947380D02*
X169068809Y-22947380D01*
X170211666Y-23947380D02*
X169640238Y-23947380D01*
X169925952Y-23947380D02*
X169925952Y-22947380D01*
X169830714Y-23090238D01*
X169735476Y-23185476D01*
X169640238Y-23233095D01*
X184962380Y-64730238D02*
X184486190Y-65063571D01*
X184962380Y-65301666D02*
X183962380Y-65301666D01*
X183962380Y-64920714D01*
X184010000Y-64825476D01*
X184057619Y-64777857D01*
X184152857Y-64730238D01*
X184295714Y-64730238D01*
X184390952Y-64777857D01*
X184438571Y-64825476D01*
X184486190Y-64920714D01*
X184486190Y-65301666D01*
X183962380Y-64444523D02*
X184962380Y-64111190D01*
X183962380Y-63777857D01*
X184057619Y-63492142D02*
X184010000Y-63444523D01*
X183962380Y-63349285D01*
X183962380Y-63111190D01*
X184010000Y-63015952D01*
X184057619Y-62968333D01*
X184152857Y-62920714D01*
X184248095Y-62920714D01*
X184390952Y-62968333D01*
X184962380Y-63539761D01*
X184962380Y-62920714D01*
X184962380Y-53300238D02*
X184486190Y-53633571D01*
X184962380Y-53871666D02*
X183962380Y-53871666D01*
X183962380Y-53490714D01*
X184010000Y-53395476D01*
X184057619Y-53347857D01*
X184152857Y-53300238D01*
X184295714Y-53300238D01*
X184390952Y-53347857D01*
X184438571Y-53395476D01*
X184486190Y-53490714D01*
X184486190Y-53871666D01*
X183962380Y-53014523D02*
X184962380Y-52681190D01*
X183962380Y-52347857D01*
X184962380Y-51490714D02*
X184962380Y-52062142D01*
X184962380Y-51776428D02*
X183962380Y-51776428D01*
X184105238Y-51871666D01*
X184200476Y-51966904D01*
X184248095Y-52062142D01*
X207978333Y-51982619D02*
X207978333Y-51268333D01*
X208025952Y-51125476D01*
X208121190Y-51030238D01*
X208264047Y-50982619D01*
X208359285Y-50982619D01*
X207025952Y-51982619D02*
X207502142Y-51982619D01*
X207549761Y-51506428D01*
X207502142Y-51554047D01*
X207406904Y-51601666D01*
X207168809Y-51601666D01*
X207073571Y-51554047D01*
X207025952Y-51506428D01*
X206978333Y-51411190D01*
X206978333Y-51173095D01*
X207025952Y-51077857D01*
X207073571Y-51030238D01*
X207168809Y-50982619D01*
X207406904Y-50982619D01*
X207502142Y-51030238D01*
X207549761Y-51077857D01*
X200993333Y-40257619D02*
X200993333Y-39543333D01*
X201040952Y-39400476D01*
X201136190Y-39305238D01*
X201279047Y-39257619D01*
X201374285Y-39257619D01*
X200088571Y-39924285D02*
X200088571Y-39257619D01*
X200326666Y-40305238D02*
X200564761Y-39590952D01*
X199945714Y-39590952D01*
X168576666Y-18502380D02*
X168576666Y-19216666D01*
X168529047Y-19359523D01*
X168433809Y-19454761D01*
X168290952Y-19502380D01*
X168195714Y-19502380D01*
X168957619Y-18502380D02*
X169576666Y-18502380D01*
X169243333Y-18883333D01*
X169386190Y-18883333D01*
X169481428Y-18930952D01*
X169529047Y-18978571D01*
X169576666Y-19073809D01*
X169576666Y-19311904D01*
X169529047Y-19407142D01*
X169481428Y-19454761D01*
X169386190Y-19502380D01*
X169100476Y-19502380D01*
X169005238Y-19454761D01*
X168957619Y-19407142D01*
X166036666Y-22312380D02*
X166036666Y-23026666D01*
X165989047Y-23169523D01*
X165893809Y-23264761D01*
X165750952Y-23312380D01*
X165655714Y-23312380D01*
X166465238Y-22407619D02*
X166512857Y-22360000D01*
X166608095Y-22312380D01*
X166846190Y-22312380D01*
X166941428Y-22360000D01*
X166989047Y-22407619D01*
X167036666Y-22502857D01*
X167036666Y-22598095D01*
X166989047Y-22740952D01*
X166417619Y-23312380D01*
X167036666Y-23312380D01*
X210486666Y-17232380D02*
X210486666Y-17946666D01*
X210439047Y-18089523D01*
X210343809Y-18184761D01*
X210200952Y-18232380D01*
X210105714Y-18232380D01*
X211486666Y-18232380D02*
X210915238Y-18232380D01*
X211200952Y-18232380D02*
X211200952Y-17232380D01*
X211105714Y-17375238D01*
X211010476Y-17470476D01*
X210915238Y-17518095D01*
X197381904Y-20772380D02*
X197381904Y-19772380D01*
X197620000Y-19772380D01*
X197762857Y-19820000D01*
X197858095Y-19915238D01*
X197905714Y-20010476D01*
X197953333Y-20200952D01*
X197953333Y-20343809D01*
X197905714Y-20534285D01*
X197858095Y-20629523D01*
X197762857Y-20724761D01*
X197620000Y-20772380D01*
X197381904Y-20772380D01*
X198858095Y-19772380D02*
X198381904Y-19772380D01*
X198334285Y-20248571D01*
X198381904Y-20200952D01*
X198477142Y-20153333D01*
X198715238Y-20153333D01*
X198810476Y-20200952D01*
X198858095Y-20248571D01*
X198905714Y-20343809D01*
X198905714Y-20581904D01*
X198858095Y-20677142D01*
X198810476Y-20724761D01*
X198715238Y-20772380D01*
X198477142Y-20772380D01*
X198381904Y-20724761D01*
X198334285Y-20677142D01*
X191508095Y-18372380D02*
X191508095Y-17372380D01*
X192079523Y-18372380D02*
X191650952Y-17800952D01*
X192079523Y-17372380D02*
X191508095Y-17943809D01*
X180871904Y-20772380D02*
X180871904Y-19772380D01*
X181110000Y-19772380D01*
X181252857Y-19820000D01*
X181348095Y-19915238D01*
X181395714Y-20010476D01*
X181443333Y-20200952D01*
X181443333Y-20343809D01*
X181395714Y-20534285D01*
X181348095Y-20629523D01*
X181252857Y-20724761D01*
X181110000Y-20772380D01*
X180871904Y-20772380D01*
X182300476Y-20105714D02*
X182300476Y-20772380D01*
X182062380Y-19724761D02*
X181824285Y-20439047D01*
X182443333Y-20439047D01*
X174998095Y-18372380D02*
X174998095Y-17372380D01*
X175569523Y-18372380D02*
X175140952Y-17800952D01*
X175569523Y-17372380D02*
X174998095Y-17943809D01*
X208017380Y-66143095D02*
X207017380Y-66143095D01*
X207017380Y-65905000D01*
X207065000Y-65762142D01*
X207160238Y-65666904D01*
X207255476Y-65619285D01*
X207445952Y-65571666D01*
X207588809Y-65571666D01*
X207779285Y-65619285D01*
X207874523Y-65666904D01*
X207969761Y-65762142D01*
X208017380Y-65905000D01*
X208017380Y-66143095D01*
X207112619Y-65190714D02*
X207065000Y-65143095D01*
X207017380Y-65047857D01*
X207017380Y-64809761D01*
X207065000Y-64714523D01*
X207112619Y-64666904D01*
X207207857Y-64619285D01*
X207303095Y-64619285D01*
X207445952Y-64666904D01*
X208017380Y-65238333D01*
X208017380Y-64619285D01*
X208017380Y-54713095D02*
X207017380Y-54713095D01*
X207017380Y-54475000D01*
X207065000Y-54332142D01*
X207160238Y-54236904D01*
X207255476Y-54189285D01*
X207445952Y-54141666D01*
X207588809Y-54141666D01*
X207779285Y-54189285D01*
X207874523Y-54236904D01*
X207969761Y-54332142D01*
X208017380Y-54475000D01*
X208017380Y-54713095D01*
X208017380Y-53189285D02*
X208017380Y-53760714D01*
X208017380Y-53475000D02*
X207017380Y-53475000D01*
X207160238Y-53570238D01*
X207255476Y-53665476D01*
X207303095Y-53760714D01*
D11*
X175380000Y-57105000D02*
X173730000Y-57105000D01*
X171730000Y-57105000D02*
X170080000Y-57105000D01*
X170080000Y-64845000D02*
X175380000Y-64845000D01*
X170080000Y-57105000D02*
X170080000Y-64845000D01*
X175380000Y-64845000D02*
X175380000Y-57105000D01*
X171730000Y-57105000D02*
G75*
G03*
X173730000Y-57105000I1000000J0D01*
G01*
X175380000Y-48215000D02*
X173730000Y-48215000D01*
X171730000Y-48215000D02*
X170080000Y-48215000D01*
X170080000Y-55955000D02*
X175380000Y-55955000D01*
X170080000Y-48215000D02*
X170080000Y-55955000D01*
X175380000Y-55955000D02*
X175380000Y-48215000D01*
X171730000Y-48215000D02*
G75*
G03*
X173730000Y-48215000I1000000J0D01*
G01*
D12*
X189800000Y-24810000D02*
X189800000Y-46310000D01*
X165800000Y-24810000D02*
X189800000Y-24810000D01*
X165800000Y-46310000D02*
X165800000Y-24810000D01*
X189800000Y-46310000D02*
X165800000Y-46310000D01*
D13*
X164782841Y-28760000D02*
G75*
G03*
X164782841Y-28760000I-282841J0D01*
G01*
D10*
X179710000Y-68635000D02*
X179710000Y-59635000D01*
X183510000Y-68635000D02*
X183510000Y-59635000D01*
X179710000Y-59635000D02*
X183510000Y-59635000D01*
X179710000Y-68635000D02*
X183510000Y-68635000D01*
X179710000Y-57205000D02*
X183510000Y-57205000D01*
X179710000Y-48205000D02*
X183510000Y-48205000D01*
X183510000Y-57205000D02*
X183510000Y-48205000D01*
X179710000Y-57205000D02*
X179710000Y-48205000D01*
D11*
X210660000Y-47910000D02*
X190660000Y-47910000D01*
X190660000Y-47910000D02*
X190660000Y-35910000D01*
X190660000Y-35910000D02*
X210660000Y-35910000D01*
X210660000Y-35910000D02*
X210660000Y-47910000D01*
X210660000Y-35210000D02*
X190660000Y-35210000D01*
X190660000Y-35210000D02*
X190660000Y-23210000D01*
X190660000Y-23210000D02*
X210660000Y-23210000D01*
X210660000Y-23210000D02*
X210660000Y-35210000D01*
X161285000Y-17725000D02*
X163885000Y-17725000D01*
X158685000Y-17725000D02*
X160015000Y-17725000D01*
X158685000Y-20325000D02*
X158685000Y-68645000D01*
X158685000Y-19055000D02*
X158685000Y-17725000D01*
X158685000Y-20325000D02*
X161285000Y-20325000D01*
X158685000Y-68645000D02*
X163885000Y-68645000D01*
X163885000Y-17725000D02*
X163885000Y-68645000D01*
X161285000Y-20325000D02*
X161285000Y-17725000D01*
X212050000Y-17750000D02*
X212050000Y-68670000D01*
X217250000Y-20350000D02*
X217250000Y-68670000D01*
X212050000Y-17750000D02*
X214650000Y-17750000D01*
X212050000Y-68670000D02*
X217250000Y-68670000D01*
X214650000Y-17750000D02*
X214650000Y-20350000D01*
X214650000Y-20350000D02*
X217250000Y-20350000D01*
X215920000Y-17750000D02*
X217250000Y-17750000D01*
X217250000Y-17750000D02*
X217250000Y-19080000D01*
X202830000Y-20320000D02*
X202690000Y-20320000D01*
X193410000Y-20320000D02*
X193550000Y-20320000D01*
X195005000Y-18350000D02*
X195005000Y-22290000D01*
X194885000Y-18350000D02*
X194885000Y-22290000D01*
X202690000Y-18350000D02*
X193550000Y-18350000D01*
X202690000Y-22290000D02*
X202690000Y-18350000D01*
X193550000Y-18350000D02*
X193550000Y-22290000D01*
X193550000Y-22290000D02*
X202690000Y-22290000D01*
X195125000Y-18350000D02*
X195125000Y-22290000D01*
X186320000Y-20320000D02*
X186180000Y-20320000D01*
X176900000Y-20320000D02*
X177040000Y-20320000D01*
X178495000Y-18350000D02*
X178495000Y-22290000D01*
X178375000Y-18350000D02*
X178375000Y-22290000D01*
X186180000Y-18350000D02*
X177040000Y-18350000D01*
X186180000Y-22290000D02*
X186180000Y-18350000D01*
X177040000Y-18350000D02*
X177040000Y-22290000D01*
X177040000Y-22290000D02*
X186180000Y-22290000D01*
X178615000Y-18350000D02*
X178615000Y-22290000D01*
X206565000Y-60285000D02*
X190675000Y-60285000D01*
X206565000Y-60285000D02*
X206565000Y-70525000D01*
X206565000Y-70525000D02*
X190675000Y-70525000D01*
X190675000Y-60285000D02*
X190675000Y-70525000D01*
X190675000Y-65405000D02*
X188135000Y-65405000D01*
X190675000Y-67945000D02*
X188135000Y-67945000D01*
X190675000Y-62865000D02*
X188135000Y-62865000D01*
X206565000Y-48855000D02*
X190675000Y-48855000D01*
X206565000Y-48855000D02*
X206565000Y-59095000D01*
X206565000Y-59095000D02*
X190675000Y-59095000D01*
X190675000Y-48855000D02*
X190675000Y-59095000D01*
X190675000Y-53975000D02*
X188135000Y-53975000D01*
X190675000Y-56515000D02*
X188135000Y-56515000D01*
X190675000Y-51435000D02*
X188135000Y-51435000D01*
%LPC*%
D14*
X208915000Y-61595000D03*
X208915000Y-68580000D03*
X208915000Y-20320000D03*
X172085000Y-68580000D03*
X167005000Y-68580000D03*
D15*
X198755000Y-53975000D03*
X198755000Y-65405000D03*
D16*
X168920000Y-58435000D03*
D17*
X168920000Y-60975000D03*
X168920000Y-63515000D03*
X176540000Y-63515000D03*
X176540000Y-58435000D03*
D16*
X168920000Y-49545000D03*
D17*
X168920000Y-52085000D03*
X168920000Y-54625000D03*
X176540000Y-54625000D03*
X176540000Y-49545000D03*
D18*
X171300000Y-29260000D03*
D19*
X171300000Y-33060000D03*
X171300000Y-38060000D03*
X171300000Y-43060000D03*
X184300000Y-43060000D03*
X184300000Y-38060000D03*
X184300000Y-33060000D03*
X184300000Y-28060000D03*
D20*
X180710000Y-66635000D03*
X182510000Y-61635000D03*
X182510000Y-50205000D03*
X180710000Y-55205000D03*
D21*
X194310000Y-41910000D03*
X207010000Y-41910000D03*
X194310000Y-29210000D03*
X207010000Y-29210000D03*
D22*
X166910000Y-19050000D03*
X170910000Y-19050000D03*
D23*
X160015000Y-19055000D03*
D24*
X162555000Y-19055000D03*
X160015000Y-21595000D03*
X162555000Y-21595000D03*
X160015000Y-24135000D03*
X162555000Y-24135000D03*
X160015000Y-26675000D03*
X162555000Y-26675000D03*
X160015000Y-29215000D03*
X162555000Y-29215000D03*
X160015000Y-31755000D03*
X162555000Y-31755000D03*
X160015000Y-34295000D03*
X162555000Y-34295000D03*
X160015000Y-36835000D03*
X162555000Y-36835000D03*
X160015000Y-39375000D03*
X162555000Y-39375000D03*
X160015000Y-41915000D03*
X162555000Y-41915000D03*
X160015000Y-44455000D03*
X162555000Y-44455000D03*
X160015000Y-46995000D03*
X162555000Y-46995000D03*
X160015000Y-49535000D03*
X162555000Y-49535000D03*
X160015000Y-52075000D03*
X162555000Y-52075000D03*
X160015000Y-54615000D03*
X162555000Y-54615000D03*
X160015000Y-57155000D03*
X162555000Y-57155000D03*
X160015000Y-59695000D03*
X162555000Y-59695000D03*
X160015000Y-62235000D03*
X162555000Y-62235000D03*
X160015000Y-64775000D03*
X162555000Y-64775000D03*
X160015000Y-67315000D03*
X162555000Y-67315000D03*
D23*
X215920000Y-19080000D03*
D24*
X213380000Y-19080000D03*
X215920000Y-21620000D03*
X213380000Y-21620000D03*
X215920000Y-24160000D03*
X213380000Y-24160000D03*
X215920000Y-26700000D03*
X213380000Y-26700000D03*
X215920000Y-29240000D03*
X213380000Y-29240000D03*
X215920000Y-31780000D03*
X213380000Y-31780000D03*
X215920000Y-34320000D03*
X213380000Y-34320000D03*
X215920000Y-36860000D03*
X213380000Y-36860000D03*
X215920000Y-39400000D03*
X213380000Y-39400000D03*
X215920000Y-41940000D03*
X213380000Y-41940000D03*
X215920000Y-44480000D03*
X213380000Y-44480000D03*
X215920000Y-47020000D03*
X213380000Y-47020000D03*
X215920000Y-49560000D03*
X213380000Y-49560000D03*
X215920000Y-52100000D03*
X213380000Y-52100000D03*
X215920000Y-54640000D03*
X213380000Y-54640000D03*
X215920000Y-57180000D03*
X213380000Y-57180000D03*
X215920000Y-59720000D03*
X213380000Y-59720000D03*
X215920000Y-62260000D03*
X213380000Y-62260000D03*
X215920000Y-64800000D03*
X213380000Y-64800000D03*
X215920000Y-67340000D03*
X213380000Y-67340000D03*
D25*
X191770000Y-20320000D03*
D26*
X204470000Y-20320000D03*
D25*
X175260000Y-20320000D03*
D26*
X187960000Y-20320000D03*
D27*
X203645000Y-65405000D03*
D28*
X186985000Y-62865000D03*
D29*
X186985000Y-65405000D03*
X186985000Y-67945000D03*
D27*
X203645000Y-53975000D03*
D28*
X186985000Y-51435000D03*
D29*
X186985000Y-53975000D03*
X186985000Y-56515000D03*
M02*
