M48
; DRILL file {KiCad (6.0.2)} date Thu Feb 24 19:29:28 2022
; FORMAT={-:-/ absolute / metric / decimal}
; #@! TF.CreationDate,2022-02-24T19:29:28+09:00
; #@! TF.GenerationSoftware,Kicad,Pcbnew,(6.0.2)
; #@! TF.FileFunction,Plated,1,2,PTH
FMAT,2
METRIC
; #@! TA.AperFunction,Plated,PTH,ViaDrill
T1C0.400
; #@! TA.AperFunction,Plated,PTH,ComponentDrill
T2C0.600
; #@! TA.AperFunction,Plated,PTH,ComponentDrill
T3C0.800
; #@! TA.AperFunction,Plated,PTH,ComponentDrill
T4C1.000
; #@! TA.AperFunction,Plated,PTH,ComponentDrill
T5C1.100
; #@! TA.AperFunction,Plated,PTH,ComponentDrill
T6C1.400
; #@! TA.AperFunction,Plated,PTH,ComponentDrill
T7C1.500
%
G90
G05
T1
X159.385Y-69.85
X160.655Y-69.85
X165.1Y-54.61
X165.1Y-58.42
X165.1Y-59.69
X166.37Y-58.42
X166.37Y-59.69
X167.005Y-34.29
X167.005Y-35.56
X167.005Y-37.465
X167.005Y-38.735
X168.275Y-34.29
X168.275Y-35.56
X168.275Y-37.465
X168.275Y-38.735
X168.275Y-41.91
X171.45Y-61.595
X173.99Y-43.18
X173.99Y-44.45
X175.26Y-27.305
X175.26Y-28.575
X175.895Y-68.58
X175.895Y-69.85
X176.53Y-27.305
X176.53Y-28.575
X176.53Y-33.655
X176.53Y-34.925
X177.165Y-37.465
X177.165Y-38.735
X177.165Y-68.58
X177.165Y-69.85
X177.8Y-27.305
X177.8Y-28.575
X177.8Y-33.655
X177.8Y-34.925
X178.435Y-37.465
X178.435Y-38.735
X178.435Y-60.96
X178.435Y-62.23
X179.705Y-19.685
X179.705Y-20.955
X179.705Y-41.91
X179.705Y-43.18
X179.705Y-60.96
X179.705Y-62.23
X180.975Y-19.685
X180.975Y-20.955
X180.975Y-41.91
X180.975Y-43.18
X185.42Y-18.415
X186.69Y-43.815
X187.325Y-41.91
X187.96Y-38.1
X188.595Y-41.91
X188.595Y-43.815
X189.23Y-27.305
X189.23Y-28.575
X189.865Y-43.815
X189.865Y-53.975
X189.865Y-55.245
X190.5Y-27.305
X190.5Y-28.575
X190.5Y-66.04
X190.5Y-67.31
X191.135Y-34.29
X191.135Y-35.56
X192.405Y-34.29
X192.405Y-35.56
X192.405Y-53.34
X192.405Y-54.61
X192.405Y-55.88
X193.04Y-50.165
X193.04Y-65.405
X193.04Y-66.675
X193.04Y-67.945
X193.675Y-53.34
X193.675Y-54.61
X193.675Y-55.88
X194.31Y-50.165
X194.31Y-64.135
X194.31Y-65.405
X194.31Y-66.675
X194.31Y-67.945
X194.945Y-53.34
X194.945Y-54.61
X195.58Y-50.165
X195.58Y-61.595
X195.58Y-62.865
X195.58Y-64.135
X195.58Y-65.405
X196.215Y-28.575
X196.215Y-29.845
X196.215Y-53.34
X196.85Y-18.415
X196.85Y-19.685
X196.85Y-61.595
X196.85Y-62.865
X196.85Y-64.135
X197.485Y-69.215
X198.12Y-18.415
X198.12Y-19.685
X198.12Y-61.595
X198.12Y-62.865
X198.12Y-64.135
X198.755Y-67.945
X198.755Y-69.215
X199.39Y-56.515
X199.39Y-57.785
X199.39Y-61.595
X199.39Y-62.865
X199.501Y-40.913
X199.984Y-46.277
X200.025Y-66.675
X200.025Y-67.945
X200.025Y-69.215
X200.301Y-42.019
X200.66Y-17.78
X200.66Y-57.785
X200.66Y-61.595
X200.871Y-56.091
X201.295Y-28.575
X201.295Y-29.845
X201.295Y-67.945
X201.295Y-69.215
X201.93Y-17.78
X201.93Y-57.785
X202.256Y-37.244
X202.565Y-40.64
X202.565Y-41.91
X202.565Y-67.945
X203.2Y-57.785
X204.47Y-57.785
X207.645Y-54.61
X208.28Y-50.165
X208.915Y-27.94
X208.915Y-29.21
X208.915Y-30.48
X208.915Y-34.29
X208.915Y-40.005
X208.915Y-41.275
X208.915Y-42.545
X208.915Y-50.8
X208.915Y-54.61
X209.55Y-51.435
X210.185Y-29.21
X210.185Y-30.48
X210.185Y-34.29
X210.185Y-52.07
X213.995Y-69.85
X215.265Y-69.85
T2
X180.71Y-55.205
X180.71Y-66.635
X182.51Y-50.205
X182.51Y-61.635
T3
X168.92Y-49.545
X168.92Y-52.085
X168.92Y-54.625
X168.92Y-58.435
X168.92Y-60.975
X168.92Y-63.515
X176.54Y-49.545
X176.54Y-54.625
X176.54Y-58.435
X176.54Y-63.515
T4
X160.015Y-19.055
X160.015Y-21.595
X160.015Y-24.135
X160.015Y-26.675
X160.015Y-29.215
X160.015Y-31.755
X160.015Y-34.295
X160.015Y-36.835
X160.015Y-39.375
X160.015Y-41.915
X160.015Y-44.455
X160.015Y-46.995
X160.015Y-49.535
X160.015Y-52.075
X160.015Y-54.615
X160.015Y-57.155
X160.015Y-59.695
X160.015Y-62.235
X160.015Y-64.775
X160.015Y-67.315
X162.555Y-19.055
X162.555Y-21.595
X162.555Y-24.135
X162.555Y-26.675
X162.555Y-29.215
X162.555Y-31.755
X162.555Y-34.295
X162.555Y-36.835
X162.555Y-39.375
X162.555Y-41.915
X162.555Y-44.455
X162.555Y-46.995
X162.555Y-49.535
X162.555Y-52.075
X162.555Y-54.615
X162.555Y-57.155
X162.555Y-59.695
X162.555Y-62.235
X162.555Y-64.775
X162.555Y-67.315
X213.38Y-19.08
X213.38Y-21.62
X213.38Y-24.16
X213.38Y-26.7
X213.38Y-29.24
X213.38Y-31.78
X213.38Y-34.32
X213.38Y-36.86
X213.38Y-39.4
X213.38Y-41.94
X213.38Y-44.48
X213.38Y-47.02
X213.38Y-49.56
X213.38Y-52.1
X213.38Y-54.64
X213.38Y-57.18
X213.38Y-59.72
X213.38Y-62.26
X213.38Y-64.8
X213.38Y-67.34
X215.92Y-19.08
X215.92Y-21.62
X215.92Y-24.16
X215.92Y-26.7
X215.92Y-29.24
X215.92Y-31.78
X215.92Y-34.32
X215.92Y-36.86
X215.92Y-39.4
X215.92Y-41.94
X215.92Y-44.48
X215.92Y-47.02
X215.92Y-49.56
X215.92Y-52.1
X215.92Y-54.64
X215.92Y-57.18
X215.92Y-59.72
X215.92Y-62.26
X215.92Y-64.8
X215.92Y-67.34
T5
X186.985Y-51.435
X186.985Y-53.975
X186.985Y-56.515
X186.985Y-62.865
X186.985Y-65.405
X186.985Y-67.945
T6
X175.26Y-20.32
X187.96Y-20.32
X191.77Y-19.05
X204.47Y-19.05
T7
X166.91Y-19.05
X170.91Y-19.05
X171.3Y-29.26
X171.3Y-33.06
X171.3Y-38.06
X171.3Y-43.06
X184.3Y-28.06
X184.3Y-33.06
X184.3Y-38.06
X184.3Y-43.06
T2
X194.31Y-30.775G85X194.31Y-26.375
G05
X194.31Y-44.11G85X194.31Y-39.71
G05
X207.01Y-30.775G85X207.01Y-26.375
G05
X207.01Y-44.11G85X207.01Y-39.71
G05
T0
M30
