%FSLAX45Y45*%
G04 Gerber Fmt 4.5, Leading zero omitted, Abs format (unit mm)*
G04 Created by KiCad (PCBNEW (6.0.2)) date 2022-02-24 19:29:31*
%MOMM*%
%LPD*%
G01*
G04 APERTURE LIST*
%TA.AperFunction,Profile*%
%ADD10C,0.100000*%
%TD*%
%ADD11C,0.200000*%
%ADD12C,0.300000*%
%ADD13C,0.350000*%
G04 APERTURE END LIST*
D10*
X15748000Y-7175500D02*
X21907500Y-7175500D01*
X15748000Y-1651000D02*
X15748000Y-7175500D01*
X21907500Y-7175500D02*
X21907500Y-1651000D01*
X21907500Y-1651000D02*
X15748000Y-1651000D01*
D11*
D12*
X16550500Y-6708000D02*
X16850500Y-7008000D01*
X16850500Y-6708000D02*
X16550500Y-7008000D01*
X17058500Y-6708000D02*
X17358500Y-7008000D01*
X17358500Y-6708000D02*
X17058500Y-7008000D01*
X20741500Y-1755000D02*
X21041500Y-2055000D01*
X21041500Y-1755000D02*
X20741500Y-2055000D01*
X20741500Y-6009500D02*
X21041500Y-6309500D01*
X21041500Y-6009500D02*
X20741500Y-6309500D01*
X20741500Y-6708000D02*
X21041500Y-7008000D01*
X21041500Y-6708000D02*
X20741500Y-7008000D01*
D13*
X20539500Y-5397500D02*
G75*
G03*
X20539500Y-5397500I-175000J0D01*
G01*
X20539500Y-6540500D02*
G75*
G03*
X20539500Y-6540500I-175000J0D01*
G01*
D11*
X16000619Y-7490976D02*
X16000619Y-7290976D01*
X16048238Y-7290976D01*
X16076809Y-7300500D01*
X16095857Y-7319548D01*
X16105381Y-7338595D01*
X16114905Y-7376690D01*
X16114905Y-7405262D01*
X16105381Y-7443357D01*
X16095857Y-7462405D01*
X16076809Y-7481452D01*
X16048238Y-7490976D01*
X16000619Y-7490976D01*
X16200619Y-7490976D02*
X16200619Y-7357643D01*
X16200619Y-7395738D02*
X16210143Y-7376690D01*
X16219667Y-7367167D01*
X16238714Y-7357643D01*
X16257762Y-7357643D01*
X16324428Y-7490976D02*
X16324428Y-7357643D01*
X16324428Y-7290976D02*
X16314905Y-7300500D01*
X16324428Y-7310024D01*
X16333952Y-7300500D01*
X16324428Y-7290976D01*
X16324428Y-7310024D01*
X16448238Y-7490976D02*
X16429190Y-7481452D01*
X16419667Y-7462405D01*
X16419667Y-7290976D01*
X16553000Y-7490976D02*
X16533952Y-7481452D01*
X16524428Y-7462405D01*
X16524428Y-7290976D01*
X16781571Y-7490976D02*
X16781571Y-7290976D01*
X16848238Y-7433833D01*
X16914905Y-7290976D01*
X16914905Y-7490976D01*
X17095857Y-7490976D02*
X17095857Y-7386214D01*
X17086333Y-7367167D01*
X17067286Y-7357643D01*
X17029190Y-7357643D01*
X17010143Y-7367167D01*
X17095857Y-7481452D02*
X17076810Y-7490976D01*
X17029190Y-7490976D01*
X17010143Y-7481452D01*
X17000619Y-7462405D01*
X17000619Y-7443357D01*
X17010143Y-7424309D01*
X17029190Y-7414786D01*
X17076810Y-7414786D01*
X17095857Y-7405262D01*
X17191095Y-7357643D02*
X17191095Y-7557643D01*
X17191095Y-7367167D02*
X17210143Y-7357643D01*
X17248238Y-7357643D01*
X17267286Y-7367167D01*
X17276810Y-7376690D01*
X17286333Y-7395738D01*
X17286333Y-7452881D01*
X17276810Y-7471928D01*
X17267286Y-7481452D01*
X17248238Y-7490976D01*
X17210143Y-7490976D01*
X17191095Y-7481452D01*
X17372048Y-7471928D02*
X17381571Y-7481452D01*
X17372048Y-7490976D01*
X17362524Y-7481452D01*
X17372048Y-7471928D01*
X17372048Y-7490976D01*
X17372048Y-7367167D02*
X17381571Y-7376690D01*
X17372048Y-7386214D01*
X17362524Y-7376690D01*
X17372048Y-7367167D01*
X17372048Y-7386214D01*
X15543000Y-7720500D02*
X15743000Y-7920500D01*
X15743000Y-7720500D02*
X15543000Y-7920500D01*
X15981571Y-7710976D02*
X16105381Y-7710976D01*
X16038714Y-7787167D01*
X16067286Y-7787167D01*
X16086333Y-7796690D01*
X16095857Y-7806214D01*
X16105381Y-7825262D01*
X16105381Y-7872881D01*
X16095857Y-7891928D01*
X16086333Y-7901452D01*
X16067286Y-7910976D01*
X16010143Y-7910976D01*
X15991095Y-7901452D01*
X15981571Y-7891928D01*
X16191095Y-7891928D02*
X16200619Y-7901452D01*
X16191095Y-7910976D01*
X16181571Y-7901452D01*
X16191095Y-7891928D01*
X16191095Y-7910976D01*
X16324428Y-7710976D02*
X16343476Y-7710976D01*
X16362524Y-7720500D01*
X16372048Y-7730024D01*
X16381571Y-7749071D01*
X16391095Y-7787167D01*
X16391095Y-7834786D01*
X16381571Y-7872881D01*
X16372048Y-7891928D01*
X16362524Y-7901452D01*
X16343476Y-7910976D01*
X16324428Y-7910976D01*
X16305381Y-7901452D01*
X16295857Y-7891928D01*
X16286333Y-7872881D01*
X16276809Y-7834786D01*
X16276809Y-7787167D01*
X16286333Y-7749071D01*
X16295857Y-7730024D01*
X16305381Y-7720500D01*
X16324428Y-7710976D01*
X16514905Y-7710976D02*
X16533952Y-7710976D01*
X16553000Y-7720500D01*
X16562524Y-7730024D01*
X16572048Y-7749071D01*
X16581571Y-7787167D01*
X16581571Y-7834786D01*
X16572048Y-7872881D01*
X16562524Y-7891928D01*
X16553000Y-7901452D01*
X16533952Y-7910976D01*
X16514905Y-7910976D01*
X16495857Y-7901452D01*
X16486333Y-7891928D01*
X16476809Y-7872881D01*
X16467286Y-7834786D01*
X16467286Y-7787167D01*
X16476809Y-7749071D01*
X16486333Y-7730024D01*
X16495857Y-7720500D01*
X16514905Y-7710976D01*
X16705381Y-7710976D02*
X16724428Y-7710976D01*
X16743476Y-7720500D01*
X16753000Y-7730024D01*
X16762524Y-7749071D01*
X16772048Y-7787167D01*
X16772048Y-7834786D01*
X16762524Y-7872881D01*
X16753000Y-7891928D01*
X16743476Y-7901452D01*
X16724428Y-7910976D01*
X16705381Y-7910976D01*
X16686333Y-7901452D01*
X16676809Y-7891928D01*
X16667286Y-7872881D01*
X16657762Y-7834786D01*
X16657762Y-7787167D01*
X16667286Y-7749071D01*
X16676809Y-7730024D01*
X16686333Y-7720500D01*
X16705381Y-7710976D01*
X16857762Y-7910976D02*
X16857762Y-7777643D01*
X16857762Y-7796690D02*
X16867286Y-7787167D01*
X16886333Y-7777643D01*
X16914905Y-7777643D01*
X16933952Y-7787167D01*
X16943476Y-7806214D01*
X16943476Y-7910976D01*
X16943476Y-7806214D02*
X16953000Y-7787167D01*
X16972048Y-7777643D01*
X17000619Y-7777643D01*
X17019667Y-7787167D01*
X17029190Y-7806214D01*
X17029190Y-7910976D01*
X17124429Y-7910976D02*
X17124429Y-7777643D01*
X17124429Y-7796690D02*
X17133952Y-7787167D01*
X17153000Y-7777643D01*
X17181571Y-7777643D01*
X17200619Y-7787167D01*
X17210143Y-7806214D01*
X17210143Y-7910976D01*
X17210143Y-7806214D02*
X17219667Y-7787167D01*
X17238714Y-7777643D01*
X17267286Y-7777643D01*
X17286333Y-7787167D01*
X17295857Y-7806214D01*
X17295857Y-7910976D01*
X17686333Y-7701452D02*
X17514905Y-7958595D01*
X17943476Y-7710976D02*
X17962524Y-7710976D01*
X17981571Y-7720500D01*
X17991095Y-7730024D01*
X18000619Y-7749071D01*
X18010143Y-7787167D01*
X18010143Y-7834786D01*
X18000619Y-7872881D01*
X17991095Y-7891928D01*
X17981571Y-7901452D01*
X17962524Y-7910976D01*
X17943476Y-7910976D01*
X17924429Y-7901452D01*
X17914905Y-7891928D01*
X17905381Y-7872881D01*
X17895857Y-7834786D01*
X17895857Y-7787167D01*
X17905381Y-7749071D01*
X17914905Y-7730024D01*
X17924429Y-7720500D01*
X17943476Y-7710976D01*
X18095857Y-7891928D02*
X18105381Y-7901452D01*
X18095857Y-7910976D01*
X18086333Y-7901452D01*
X18095857Y-7891928D01*
X18095857Y-7910976D01*
X18295857Y-7910976D02*
X18181571Y-7910976D01*
X18238714Y-7910976D02*
X18238714Y-7710976D01*
X18219667Y-7739548D01*
X18200619Y-7758595D01*
X18181571Y-7768119D01*
X18486333Y-7910976D02*
X18372048Y-7910976D01*
X18429190Y-7910976D02*
X18429190Y-7710976D01*
X18410143Y-7739548D01*
X18391095Y-7758595D01*
X18372048Y-7768119D01*
X18600619Y-7796690D02*
X18581571Y-7787167D01*
X18572048Y-7777643D01*
X18562524Y-7758595D01*
X18562524Y-7749071D01*
X18572048Y-7730024D01*
X18581571Y-7720500D01*
X18600619Y-7710976D01*
X18638714Y-7710976D01*
X18657762Y-7720500D01*
X18667286Y-7730024D01*
X18676810Y-7749071D01*
X18676810Y-7758595D01*
X18667286Y-7777643D01*
X18657762Y-7787167D01*
X18638714Y-7796690D01*
X18600619Y-7796690D01*
X18581571Y-7806214D01*
X18572048Y-7815738D01*
X18562524Y-7834786D01*
X18562524Y-7872881D01*
X18572048Y-7891928D01*
X18581571Y-7901452D01*
X18600619Y-7910976D01*
X18638714Y-7910976D01*
X18657762Y-7901452D01*
X18667286Y-7891928D01*
X18676810Y-7872881D01*
X18676810Y-7834786D01*
X18667286Y-7815738D01*
X18657762Y-7806214D01*
X18638714Y-7796690D01*
X18867286Y-7910976D02*
X18753000Y-7910976D01*
X18810143Y-7910976D02*
X18810143Y-7710976D01*
X18791095Y-7739548D01*
X18772048Y-7758595D01*
X18753000Y-7768119D01*
X18943476Y-7710976D02*
X18943476Y-7749071D01*
X19019667Y-7710976D02*
X19019667Y-7749071D01*
X19314905Y-7987167D02*
X19305381Y-7977643D01*
X19286333Y-7949071D01*
X19276810Y-7930024D01*
X19267286Y-7901452D01*
X19257762Y-7853833D01*
X19257762Y-7815738D01*
X19267286Y-7768119D01*
X19276810Y-7739548D01*
X19286333Y-7720500D01*
X19305381Y-7691928D01*
X19314905Y-7682405D01*
X19486333Y-7710976D02*
X19391095Y-7710976D01*
X19381571Y-7806214D01*
X19391095Y-7796690D01*
X19410143Y-7787167D01*
X19457762Y-7787167D01*
X19476810Y-7796690D01*
X19486333Y-7806214D01*
X19495857Y-7825262D01*
X19495857Y-7872881D01*
X19486333Y-7891928D01*
X19476810Y-7901452D01*
X19457762Y-7910976D01*
X19410143Y-7910976D01*
X19391095Y-7901452D01*
X19381571Y-7891928D01*
X19733952Y-7910976D02*
X19733952Y-7710976D01*
X19819667Y-7910976D02*
X19819667Y-7806214D01*
X19810143Y-7787167D01*
X19791095Y-7777643D01*
X19762524Y-7777643D01*
X19743476Y-7787167D01*
X19733952Y-7796690D01*
X19943476Y-7910976D02*
X19924429Y-7901452D01*
X19914905Y-7891928D01*
X19905381Y-7872881D01*
X19905381Y-7815738D01*
X19914905Y-7796690D01*
X19924429Y-7787167D01*
X19943476Y-7777643D01*
X19972048Y-7777643D01*
X19991095Y-7787167D01*
X20000619Y-7796690D01*
X20010143Y-7815738D01*
X20010143Y-7872881D01*
X20000619Y-7891928D01*
X19991095Y-7901452D01*
X19972048Y-7910976D01*
X19943476Y-7910976D01*
X20124429Y-7910976D02*
X20105381Y-7901452D01*
X20095857Y-7882405D01*
X20095857Y-7710976D01*
X20276810Y-7901452D02*
X20257762Y-7910976D01*
X20219667Y-7910976D01*
X20200619Y-7901452D01*
X20191095Y-7882405D01*
X20191095Y-7806214D01*
X20200619Y-7787167D01*
X20219667Y-7777643D01*
X20257762Y-7777643D01*
X20276810Y-7787167D01*
X20286333Y-7806214D01*
X20286333Y-7825262D01*
X20191095Y-7844309D01*
X20362524Y-7901452D02*
X20381571Y-7910976D01*
X20419667Y-7910976D01*
X20438714Y-7901452D01*
X20448238Y-7882405D01*
X20448238Y-7872881D01*
X20438714Y-7853833D01*
X20419667Y-7844309D01*
X20391095Y-7844309D01*
X20372048Y-7834786D01*
X20362524Y-7815738D01*
X20362524Y-7806214D01*
X20372048Y-7787167D01*
X20391095Y-7777643D01*
X20419667Y-7777643D01*
X20438714Y-7787167D01*
X20514905Y-7987167D02*
X20524429Y-7977643D01*
X20543476Y-7949071D01*
X20553000Y-7930024D01*
X20562524Y-7901452D01*
X20572048Y-7853833D01*
X20572048Y-7815738D01*
X20562524Y-7768119D01*
X20553000Y-7739548D01*
X20543476Y-7720500D01*
X20524429Y-7691928D01*
X20514905Y-7682405D01*
X20876810Y-7987167D02*
X20867286Y-7977643D01*
X20848238Y-7949071D01*
X20838714Y-7930024D01*
X20829190Y-7901452D01*
X20819667Y-7853833D01*
X20819667Y-7815738D01*
X20829190Y-7768119D01*
X20838714Y-7739548D01*
X20848238Y-7720500D01*
X20867286Y-7691928D01*
X20876810Y-7682405D01*
X20953000Y-7777643D02*
X20953000Y-7910976D01*
X20953000Y-7796690D02*
X20962524Y-7787167D01*
X20981571Y-7777643D01*
X21010143Y-7777643D01*
X21029190Y-7787167D01*
X21038714Y-7806214D01*
X21038714Y-7910976D01*
X21162524Y-7910976D02*
X21143476Y-7901452D01*
X21133952Y-7891928D01*
X21124429Y-7872881D01*
X21124429Y-7815738D01*
X21133952Y-7796690D01*
X21143476Y-7787167D01*
X21162524Y-7777643D01*
X21191095Y-7777643D01*
X21210143Y-7787167D01*
X21219667Y-7796690D01*
X21229190Y-7815738D01*
X21229190Y-7872881D01*
X21219667Y-7891928D01*
X21210143Y-7901452D01*
X21191095Y-7910976D01*
X21162524Y-7910976D01*
X21286333Y-7777643D02*
X21362524Y-7777643D01*
X21314905Y-7710976D02*
X21314905Y-7882405D01*
X21324429Y-7901452D01*
X21343476Y-7910976D01*
X21362524Y-7910976D01*
X21581571Y-7777643D02*
X21581571Y-7977643D01*
X21581571Y-7787167D02*
X21600619Y-7777643D01*
X21638714Y-7777643D01*
X21657762Y-7787167D01*
X21667286Y-7796690D01*
X21676810Y-7815738D01*
X21676810Y-7872881D01*
X21667286Y-7891928D01*
X21657762Y-7901452D01*
X21638714Y-7910976D01*
X21600619Y-7910976D01*
X21581571Y-7901452D01*
X21791095Y-7910976D02*
X21772048Y-7901452D01*
X21762524Y-7882405D01*
X21762524Y-7710976D01*
X21953000Y-7910976D02*
X21953000Y-7806214D01*
X21943476Y-7787167D01*
X21924429Y-7777643D01*
X21886333Y-7777643D01*
X21867286Y-7787167D01*
X21953000Y-7901452D02*
X21933952Y-7910976D01*
X21886333Y-7910976D01*
X21867286Y-7901452D01*
X21857762Y-7882405D01*
X21857762Y-7863357D01*
X21867286Y-7844309D01*
X21886333Y-7834786D01*
X21933952Y-7834786D01*
X21953000Y-7825262D01*
X22019667Y-7777643D02*
X22095857Y-7777643D01*
X22048238Y-7710976D02*
X22048238Y-7882405D01*
X22057762Y-7901452D01*
X22076810Y-7910976D01*
X22095857Y-7910976D01*
X22238714Y-7901452D02*
X22219667Y-7910976D01*
X22181571Y-7910976D01*
X22162524Y-7901452D01*
X22153000Y-7882405D01*
X22153000Y-7806214D01*
X22162524Y-7787167D01*
X22181571Y-7777643D01*
X22219667Y-7777643D01*
X22238714Y-7787167D01*
X22248238Y-7806214D01*
X22248238Y-7825262D01*
X22153000Y-7844309D01*
X22419667Y-7910976D02*
X22419667Y-7710976D01*
X22419667Y-7901452D02*
X22400619Y-7910976D01*
X22362524Y-7910976D01*
X22343476Y-7901452D01*
X22333952Y-7891928D01*
X22324429Y-7872881D01*
X22324429Y-7815738D01*
X22333952Y-7796690D01*
X22343476Y-7787167D01*
X22362524Y-7777643D01*
X22400619Y-7777643D01*
X22419667Y-7787167D01*
X22495857Y-7987167D02*
X22505381Y-7977643D01*
X22524428Y-7949071D01*
X22533952Y-7930024D01*
X22543476Y-7901452D01*
X22553000Y-7853833D01*
X22553000Y-7815738D01*
X22543476Y-7768119D01*
X22533952Y-7739548D01*
X22524428Y-7720500D01*
X22505381Y-7691928D01*
X22495857Y-7682405D01*
X15743000Y-8140500D02*
G75*
G03*
X15743000Y-8140500I-100000J0D01*
G01*
X15981571Y-8030976D02*
X16105381Y-8030976D01*
X16038714Y-8107167D01*
X16067286Y-8107167D01*
X16086333Y-8116690D01*
X16095857Y-8126214D01*
X16105381Y-8145262D01*
X16105381Y-8192881D01*
X16095857Y-8211928D01*
X16086333Y-8221452D01*
X16067286Y-8230976D01*
X16010143Y-8230976D01*
X15991095Y-8221452D01*
X15981571Y-8211928D01*
X16191095Y-8211928D02*
X16200619Y-8221452D01*
X16191095Y-8230976D01*
X16181571Y-8221452D01*
X16191095Y-8211928D01*
X16191095Y-8230976D01*
X16381571Y-8030976D02*
X16286333Y-8030976D01*
X16276809Y-8126214D01*
X16286333Y-8116690D01*
X16305381Y-8107167D01*
X16353000Y-8107167D01*
X16372048Y-8116690D01*
X16381571Y-8126214D01*
X16391095Y-8145262D01*
X16391095Y-8192881D01*
X16381571Y-8211928D01*
X16372048Y-8221452D01*
X16353000Y-8230976D01*
X16305381Y-8230976D01*
X16286333Y-8221452D01*
X16276809Y-8211928D01*
X16514905Y-8030976D02*
X16533952Y-8030976D01*
X16553000Y-8040500D01*
X16562524Y-8050024D01*
X16572048Y-8069071D01*
X16581571Y-8107167D01*
X16581571Y-8154786D01*
X16572048Y-8192881D01*
X16562524Y-8211928D01*
X16553000Y-8221452D01*
X16533952Y-8230976D01*
X16514905Y-8230976D01*
X16495857Y-8221452D01*
X16486333Y-8211928D01*
X16476809Y-8192881D01*
X16467286Y-8154786D01*
X16467286Y-8107167D01*
X16476809Y-8069071D01*
X16486333Y-8050024D01*
X16495857Y-8040500D01*
X16514905Y-8030976D01*
X16705381Y-8030976D02*
X16724428Y-8030976D01*
X16743476Y-8040500D01*
X16753000Y-8050024D01*
X16762524Y-8069071D01*
X16772048Y-8107167D01*
X16772048Y-8154786D01*
X16762524Y-8192881D01*
X16753000Y-8211928D01*
X16743476Y-8221452D01*
X16724428Y-8230976D01*
X16705381Y-8230976D01*
X16686333Y-8221452D01*
X16676809Y-8211928D01*
X16667286Y-8192881D01*
X16657762Y-8154786D01*
X16657762Y-8107167D01*
X16667286Y-8069071D01*
X16676809Y-8050024D01*
X16686333Y-8040500D01*
X16705381Y-8030976D01*
X16857762Y-8230976D02*
X16857762Y-8097643D01*
X16857762Y-8116690D02*
X16867286Y-8107167D01*
X16886333Y-8097643D01*
X16914905Y-8097643D01*
X16933952Y-8107167D01*
X16943476Y-8126214D01*
X16943476Y-8230976D01*
X16943476Y-8126214D02*
X16953000Y-8107167D01*
X16972048Y-8097643D01*
X17000619Y-8097643D01*
X17019667Y-8107167D01*
X17029190Y-8126214D01*
X17029190Y-8230976D01*
X17124429Y-8230976D02*
X17124429Y-8097643D01*
X17124429Y-8116690D02*
X17133952Y-8107167D01*
X17153000Y-8097643D01*
X17181571Y-8097643D01*
X17200619Y-8107167D01*
X17210143Y-8126214D01*
X17210143Y-8230976D01*
X17210143Y-8126214D02*
X17219667Y-8107167D01*
X17238714Y-8097643D01*
X17267286Y-8097643D01*
X17286333Y-8107167D01*
X17295857Y-8126214D01*
X17295857Y-8230976D01*
X17686333Y-8021452D02*
X17514905Y-8278595D01*
X17943476Y-8030976D02*
X17962524Y-8030976D01*
X17981571Y-8040500D01*
X17991095Y-8050024D01*
X18000619Y-8069071D01*
X18010143Y-8107167D01*
X18010143Y-8154786D01*
X18000619Y-8192881D01*
X17991095Y-8211928D01*
X17981571Y-8221452D01*
X17962524Y-8230976D01*
X17943476Y-8230976D01*
X17924429Y-8221452D01*
X17914905Y-8211928D01*
X17905381Y-8192881D01*
X17895857Y-8154786D01*
X17895857Y-8107167D01*
X17905381Y-8069071D01*
X17914905Y-8050024D01*
X17924429Y-8040500D01*
X17943476Y-8030976D01*
X18095857Y-8211928D02*
X18105381Y-8221452D01*
X18095857Y-8230976D01*
X18086333Y-8221452D01*
X18095857Y-8211928D01*
X18095857Y-8230976D01*
X18295857Y-8230976D02*
X18181571Y-8230976D01*
X18238714Y-8230976D02*
X18238714Y-8030976D01*
X18219667Y-8059548D01*
X18200619Y-8078595D01*
X18181571Y-8088119D01*
X18362524Y-8030976D02*
X18486333Y-8030976D01*
X18419667Y-8107167D01*
X18448238Y-8107167D01*
X18467286Y-8116690D01*
X18476810Y-8126214D01*
X18486333Y-8145262D01*
X18486333Y-8192881D01*
X18476810Y-8211928D01*
X18467286Y-8221452D01*
X18448238Y-8230976D01*
X18391095Y-8230976D01*
X18372048Y-8221452D01*
X18362524Y-8211928D01*
X18553000Y-8030976D02*
X18686333Y-8030976D01*
X18600619Y-8230976D01*
X18791095Y-8116690D02*
X18772048Y-8107167D01*
X18762524Y-8097643D01*
X18753000Y-8078595D01*
X18753000Y-8069071D01*
X18762524Y-8050024D01*
X18772048Y-8040500D01*
X18791095Y-8030976D01*
X18829190Y-8030976D01*
X18848238Y-8040500D01*
X18857762Y-8050024D01*
X18867286Y-8069071D01*
X18867286Y-8078595D01*
X18857762Y-8097643D01*
X18848238Y-8107167D01*
X18829190Y-8116690D01*
X18791095Y-8116690D01*
X18772048Y-8126214D01*
X18762524Y-8135738D01*
X18753000Y-8154786D01*
X18753000Y-8192881D01*
X18762524Y-8211928D01*
X18772048Y-8221452D01*
X18791095Y-8230976D01*
X18829190Y-8230976D01*
X18848238Y-8221452D01*
X18857762Y-8211928D01*
X18867286Y-8192881D01*
X18867286Y-8154786D01*
X18857762Y-8135738D01*
X18848238Y-8126214D01*
X18829190Y-8116690D01*
X18943476Y-8030976D02*
X18943476Y-8069071D01*
X19019667Y-8030976D02*
X19019667Y-8069071D01*
X19314905Y-8307167D02*
X19305381Y-8297643D01*
X19286333Y-8269071D01*
X19276810Y-8250024D01*
X19267286Y-8221452D01*
X19257762Y-8173833D01*
X19257762Y-8135738D01*
X19267286Y-8088119D01*
X19276810Y-8059548D01*
X19286333Y-8040500D01*
X19305381Y-8011928D01*
X19314905Y-8002405D01*
X19381571Y-8050024D02*
X19391095Y-8040500D01*
X19410143Y-8030976D01*
X19457762Y-8030976D01*
X19476810Y-8040500D01*
X19486333Y-8050024D01*
X19495857Y-8069071D01*
X19495857Y-8088119D01*
X19486333Y-8116690D01*
X19372048Y-8230976D01*
X19495857Y-8230976D01*
X19733952Y-8230976D02*
X19733952Y-8030976D01*
X19819667Y-8230976D02*
X19819667Y-8126214D01*
X19810143Y-8107167D01*
X19791095Y-8097643D01*
X19762524Y-8097643D01*
X19743476Y-8107167D01*
X19733952Y-8116690D01*
X19943476Y-8230976D02*
X19924429Y-8221452D01*
X19914905Y-8211928D01*
X19905381Y-8192881D01*
X19905381Y-8135738D01*
X19914905Y-8116690D01*
X19924429Y-8107167D01*
X19943476Y-8097643D01*
X19972048Y-8097643D01*
X19991095Y-8107167D01*
X20000619Y-8116690D01*
X20010143Y-8135738D01*
X20010143Y-8192881D01*
X20000619Y-8211928D01*
X19991095Y-8221452D01*
X19972048Y-8230976D01*
X19943476Y-8230976D01*
X20124429Y-8230976D02*
X20105381Y-8221452D01*
X20095857Y-8202405D01*
X20095857Y-8030976D01*
X20276810Y-8221452D02*
X20257762Y-8230976D01*
X20219667Y-8230976D01*
X20200619Y-8221452D01*
X20191095Y-8202405D01*
X20191095Y-8126214D01*
X20200619Y-8107167D01*
X20219667Y-8097643D01*
X20257762Y-8097643D01*
X20276810Y-8107167D01*
X20286333Y-8126214D01*
X20286333Y-8145262D01*
X20191095Y-8164309D01*
X20362524Y-8221452D02*
X20381571Y-8230976D01*
X20419667Y-8230976D01*
X20438714Y-8221452D01*
X20448238Y-8202405D01*
X20448238Y-8192881D01*
X20438714Y-8173833D01*
X20419667Y-8164309D01*
X20391095Y-8164309D01*
X20372048Y-8154786D01*
X20362524Y-8135738D01*
X20362524Y-8126214D01*
X20372048Y-8107167D01*
X20391095Y-8097643D01*
X20419667Y-8097643D01*
X20438714Y-8107167D01*
X20514905Y-8307167D02*
X20524429Y-8297643D01*
X20543476Y-8269071D01*
X20553000Y-8250024D01*
X20562524Y-8221452D01*
X20572048Y-8173833D01*
X20572048Y-8135738D01*
X20562524Y-8088119D01*
X20553000Y-8059548D01*
X20543476Y-8040500D01*
X20524429Y-8011928D01*
X20514905Y-8002405D01*
X20876810Y-8307167D02*
X20867286Y-8297643D01*
X20848238Y-8269071D01*
X20838714Y-8250024D01*
X20829190Y-8221452D01*
X20819667Y-8173833D01*
X20819667Y-8135738D01*
X20829190Y-8088119D01*
X20838714Y-8059548D01*
X20848238Y-8040500D01*
X20867286Y-8011928D01*
X20876810Y-8002405D01*
X20953000Y-8097643D02*
X20953000Y-8230976D01*
X20953000Y-8116690D02*
X20962524Y-8107167D01*
X20981571Y-8097643D01*
X21010143Y-8097643D01*
X21029190Y-8107167D01*
X21038714Y-8126214D01*
X21038714Y-8230976D01*
X21162524Y-8230976D02*
X21143476Y-8221452D01*
X21133952Y-8211928D01*
X21124429Y-8192881D01*
X21124429Y-8135738D01*
X21133952Y-8116690D01*
X21143476Y-8107167D01*
X21162524Y-8097643D01*
X21191095Y-8097643D01*
X21210143Y-8107167D01*
X21219667Y-8116690D01*
X21229190Y-8135738D01*
X21229190Y-8192881D01*
X21219667Y-8211928D01*
X21210143Y-8221452D01*
X21191095Y-8230976D01*
X21162524Y-8230976D01*
X21286333Y-8097643D02*
X21362524Y-8097643D01*
X21314905Y-8030976D02*
X21314905Y-8202405D01*
X21324429Y-8221452D01*
X21343476Y-8230976D01*
X21362524Y-8230976D01*
X21581571Y-8097643D02*
X21581571Y-8297643D01*
X21581571Y-8107167D02*
X21600619Y-8097643D01*
X21638714Y-8097643D01*
X21657762Y-8107167D01*
X21667286Y-8116690D01*
X21676810Y-8135738D01*
X21676810Y-8192881D01*
X21667286Y-8211928D01*
X21657762Y-8221452D01*
X21638714Y-8230976D01*
X21600619Y-8230976D01*
X21581571Y-8221452D01*
X21791095Y-8230976D02*
X21772048Y-8221452D01*
X21762524Y-8202405D01*
X21762524Y-8030976D01*
X21953000Y-8230976D02*
X21953000Y-8126214D01*
X21943476Y-8107167D01*
X21924429Y-8097643D01*
X21886333Y-8097643D01*
X21867286Y-8107167D01*
X21953000Y-8221452D02*
X21933952Y-8230976D01*
X21886333Y-8230976D01*
X21867286Y-8221452D01*
X21857762Y-8202405D01*
X21857762Y-8183357D01*
X21867286Y-8164309D01*
X21886333Y-8154786D01*
X21933952Y-8154786D01*
X21953000Y-8145262D01*
X22019667Y-8097643D02*
X22095857Y-8097643D01*
X22048238Y-8030976D02*
X22048238Y-8202405D01*
X22057762Y-8221452D01*
X22076810Y-8230976D01*
X22095857Y-8230976D01*
X22238714Y-8221452D02*
X22219667Y-8230976D01*
X22181571Y-8230976D01*
X22162524Y-8221452D01*
X22153000Y-8202405D01*
X22153000Y-8126214D01*
X22162524Y-8107167D01*
X22181571Y-8097643D01*
X22219667Y-8097643D01*
X22238714Y-8107167D01*
X22248238Y-8126214D01*
X22248238Y-8145262D01*
X22153000Y-8164309D01*
X22419667Y-8230976D02*
X22419667Y-8030976D01*
X22419667Y-8221452D02*
X22400619Y-8230976D01*
X22362524Y-8230976D01*
X22343476Y-8221452D01*
X22333952Y-8211928D01*
X22324429Y-8192881D01*
X22324429Y-8135738D01*
X22333952Y-8116690D01*
X22343476Y-8107167D01*
X22362524Y-8097643D01*
X22400619Y-8097643D01*
X22419667Y-8107167D01*
X22495857Y-8307167D02*
X22505381Y-8297643D01*
X22524428Y-8269071D01*
X22533952Y-8250024D01*
X22543476Y-8221452D01*
X22553000Y-8173833D01*
X22553000Y-8135738D01*
X22543476Y-8088119D01*
X22533952Y-8059548D01*
X22524428Y-8040500D01*
X22505381Y-8011928D01*
X22495857Y-8002405D01*
M02*
